<?xml version="1.0" encoding="UTF-8" standalone="no"?>
<!-- Created with Inkscape (http://www.inkscape.org/) -->

<svg
   width="55.91666mm"
   height="55.916672mm"
   viewBox="0 0 55.91666 55.916672"
   version="1.1"
   id="svg1"
   inkscape:version="1.3 (0e150ed6c4, 2023-07-21)"
   sodipodi:docname="Event type img icons.svg"
   xmlns:inkscape="http://www.inkscape.org/namespaces/inkscape"
   xmlns:sodipodi="http://sodipodi.sourceforge.net/DTD/sodipodi-0.dtd"
   xmlns="http://www.w3.org/2000/svg"
   xmlns:svg="http://www.w3.org/2000/svg">
  <sodipodi:namedview
     id="namedview1"
     pagecolor="#505050"
     bordercolor="#ffffff"
     borderopacity="1"
     inkscape:showpageshadow="0"
     inkscape:pageopacity="0"
     inkscape:pagecheckerboard="1"
     inkscape:deskcolor="#505050"
     inkscape:document-units="mm"
     inkscape:zoom="1"
     inkscape:cx="-519"
     inkscape:cy="442.5"
     inkscape:window-width="2880"
     inkscape:window-height="1514"
     inkscape:window-x="-11"
     inkscape:window-y="-11"
     inkscape:window-maximized="1"
     inkscape:current-layer="layer1" />
  <defs
     id="defs1" />
  <g
     inkscape:label="Layer 1"
     inkscape:groupmode="layer"
     id="layer1"
     transform="translate(-218.15407,-81.325727)">
    <g
       id="g35"
       transform="translate(179.3875,8.73125)">
      <rect
         style="fill:#f5f5f5;fill-opacity:1;stroke:#141220;stroke-width:3;stroke-dasharray:none;stroke-opacity:1"
         id="rect1-5-1"
         width="52.916668"
         height="52.916668"
         x="40.266579"
         y="74.094482"
         ry="8.1275444" />
      <path
         id="path13-3-8"
         style="fill:#141220;fill-opacity:1;stroke:#90b4d6;stroke-width:0;stroke-dasharray:none;stroke-opacity:1"
         d="m 64.267805,89.250503 a 6.2271903,4.5330797 85.043451 0 0 -1.476929,1.93578 6.2271903,4.5330797 85.043451 0 0 1.568083,8.63114 l 0.0011,8.4e-4 a 6.2271903,4.5330797 85.043451 0 0 0.428567,0.336297 6.6493727,4.5330797 85.043451 0 1 0.592271,0.76455 6.6493727,4.5330797 85.043451 0 1 -0.0071,9.36219 l -0.0015,0.001 a 6.6493727,4.5330797 85.043451 0 1 -0.441522,0.51913 6.2271903,4.5330797 85.043451 0 0 0.907293,-0.8723 l 4.29e-4,-0.001 a 6.2271903,4.5330797 85.043451 0 0 0.0593,-8.77228 6.2271903,4.5330797 85.043451 0 0 -0.529757,-0.6538 6.2271903,4.5330797 85.043451 0 0 0.03538,0.0192 6.6493727,4.5330797 85.043451 0 1 -0.06613,-0.0507 6.2271903,4.5330797 85.043451 0 0 -0.657626,-0.597057 6.6493727,4.5330797 85.043451 0 1 -1.420395,-9.00962 6.6493727,4.5330797 85.043451 0 1 1.008481,-1.6135 z" />
      <path
         id="path13-3"
         style="fill:#cbe6ad;fill-opacity:1;stroke:#90b4d6;stroke-width:0;stroke-dasharray:none;stroke-opacity:1"
         d="m 64.14108,89.229863 a 6.2271903,4.5330797 85.043451 0 0 -1.47693,1.93578 6.2271903,4.5330797 85.043451 0 0 1.568083,8.63114 l 0.0011,8.3e-4 a 6.2271903,4.5330797 85.043451 0 0 0.428568,0.336297 6.6493727,4.5330797 85.043451 0 1 0.592272,0.76456 6.6493727,4.5330797 85.043451 0 1 -0.0071,9.3622 l -0.0015,10e-4 a 6.6493727,4.5330797 85.043451 0 1 -0.441524,0.51913 6.2271903,4.5330797 85.043451 0 0 0.907294,-0.87231 l 4.28e-4,-0.001 a 6.2271903,4.5330797 85.043451 0 0 0.0593,-8.77229 6.2271903,4.5330797 85.043451 0 0 -0.529758,-0.65379 6.2271903,4.5330797 85.043451 0 0 0.03538,0.0192 6.6493727,4.5330797 85.043451 0 1 -0.06613,-0.0507 6.2271903,4.5330797 85.043451 0 0 -0.657625,-0.597057 6.6493727,4.5330797 85.043451 0 1 -1.420396,-9.00963 6.6493727,4.5330797 85.043451 0 1 1.008481,-1.61349 z" />
      <path
         id="path13-3-8-16"
         style="fill:#141220;fill-opacity:1;stroke:#90b4d6;stroke-width:0;stroke-dasharray:none;stroke-opacity:1"
         d="m 60.427923,91.528093 a 6.2271903,4.5330797 60.198141 0 0 -0.526879,2.37717 6.2271903,4.5330797 60.198141 0 0 5.049497,7.173437 l 0.0014,3.7e-4 a 6.2271903,4.5330797 60.198141 0 0 0.530204,0.12509 6.6493727,4.5330797 60.198141 0 1 0.858698,0.44495 6.6493727,4.5330797 60.198141 0 1 3.927266,8.49866 l -10e-4,0.001 a 6.6493727,4.5330797 60.198141 0 1 -0.182535,0.65661 6.2271903,4.5330797 60.198141 0 0 0.456805,-1.1728 l -3.1e-5,-0.001 a 6.2271903,4.5330797 60.198141 0 0 -3.632034,-7.98528 6.2271903,4.5330797 60.198141 0 0 -0.755431,-0.3707 6.2271903,4.5330797 60.198141 0 0 0.04015,0.002 6.6493727,4.5330797 60.198141 0 1 -0.08135,-0.0183 6.2271903,4.5330797 60.198141 0 0 -0.847623,-0.26548 6.6493727,4.5330797 60.198141 0 1 -5.074511,-7.578947 6.6493727,4.5330797 60.198141 0 1 0.237199,-1.88789 z" />
      <path
         id="path13-3-89"
         style="fill:#d2a4a4;fill-opacity:1;stroke:#90b4d6;stroke-width:0;stroke-dasharray:none;stroke-opacity:1"
         d="m 60.56518,91.518783 a 6.2271903,4.5330797 60.198141 0 0 -0.526879,2.37717 6.2271903,4.5330797 60.198141 0 0 5.049497,7.173437 l 0.0014,3.6e-4 a 6.2271903,4.5330797 60.198141 0 0 0.530204,0.1251 6.6493727,4.5330797 60.198141 0 1 0.858698,0.44495 6.6493727,4.5330797 60.198141 0 1 3.927266,8.49865 l -0.001,10e-4 a 6.6493727,4.5330797 60.198141 0 1 -0.182536,0.65659 6.2271903,4.5330797 60.198141 0 0 0.456805,-1.17278 l -2.9e-5,-0.001 a 6.2271903,4.5330797 60.198141 0 0 -3.632036,-7.98529 6.2271903,4.5330797 60.198141 0 0 -0.75543,-0.37068 6.2271903,4.5330797 60.198141 0 0 0.04015,0.002 6.6493727,4.5330797 60.198141 0 1 -0.08135,-0.0183 6.2271903,4.5330797 60.198141 0 0 -0.847623,-0.26548 6.6493727,4.5330797 60.198141 0 1 -5.07451,-7.578937 6.6493727,4.5330797 60.198141 0 1 0.237198,-1.88789 z" />
      <path
         id="path13-3-8-1"
         style="fill:#141220;fill-opacity:1;stroke:#90b4d6;stroke-width:0;stroke-dasharray:none;stroke-opacity:1"
         d="m 54.534575,95.074633 a 6.2271903,4.5330797 45.018073 0 1 2.432122,0.11551 6.2271903,4.5330797 45.018073 0 1 5.596642,6.755217 l -6.6e-5,0.001 a 6.2271903,4.5330797 45.018073 0 1 -0.01844,0.54444 6.6493727,4.5330797 45.018073 0 0 0.203965,0.94538 6.6493727,4.5330797 45.018073 0 0 7.16996,6.02016 l 0.0019,-4.2e-4 a 6.6493727,4.5330797 45.018073 0 0 0.681486,-0.004 6.2271903,4.5330797 45.018073 0 1 -1.25157,0.13294 l -0.0011,-3.5e-4 a 6.2271903,4.5330797 45.018073 0 1 -6.752062,-5.60054 6.2271903,4.5330797 45.018073 0 1 -0.159427,-0.82624 6.2271903,4.5330797 45.018073 0 1 -0.0081,0.0395 6.6493727,4.5330797 45.018073 0 0 0.0037,-0.0833 6.2271903,4.5330797 45.018073 0 1 -0.0337,-0.88758 6.6493727,4.5330797 45.018073 0 0 -5.981371,-6.885797 6.6493727,4.5330797 45.018073 0 0 -1.883963,-0.26662 z" />
      <path
         id="path13-3-9"
         style="fill:#90b4d6;fill-opacity:1;stroke:#90b4d6;stroke-width:0;stroke-dasharray:none;stroke-opacity:1"
         d="m 54.600334,94.964343 a 6.2271903,4.5330797 45.018073 0 1 2.43212,0.11552 6.2271903,4.5330797 45.018073 0 1 5.596645,6.755227 l -6.6e-5,0.001 a 6.2271903,4.5330797 45.018073 0 1 -0.01844,0.54446 6.6493727,4.5330797 45.018073 0 0 0.203964,0.94537 6.6493727,4.5330797 45.018073 0 0 7.169961,6.02016 l 0.0019,-4.2e-4 a 6.6493727,4.5330797 45.018073 0 0 0.681485,-0.004 6.2271903,4.5330797 45.018073 0 1 -1.25157,0.13294 l -0.0011,-3.4e-4 a 6.2271903,4.5330797 45.018073 0 1 -6.752062,-5.60054 6.2271903,4.5330797 45.018073 0 1 -0.159425,-0.82624 6.2271903,4.5330797 45.018073 0 1 -0.0081,0.0395 6.6493727,4.5330797 45.018073 0 0 0.0037,-0.0833 6.2271903,4.5330797 45.018073 0 1 -0.0337,-0.88759 6.6493727,4.5330797 45.018073 0 0 -5.98137,-6.885787 6.6493727,4.5330797 45.018073 0 0 -1.883963,-0.26661 z" />
      <path
         id="path12-7-1-7"
         style="fill:#141220;fill-opacity:1;stroke:#90b4d6;stroke-width:0;stroke-dasharray:none;stroke-opacity:1"
         d="m 67.109951,75.135613 a 6.5750118,8.1791675 16.86841 0 0 -3.648888,1.74483 6.5750118,8.1791675 16.86841 0 0 -2.139478,11.33019 6.5750118,8.1791675 16.86841 0 0 1.819581,2.00895 l -0.905939,0.94854 1.003872,0.54468 0.481403,-1.14679 a 6.5750118,8.1791675 16.86841 0 0 6.867415,-1.15747 l 0.0015,-10e-4 a 6.5750118,8.1791675 16.86841 0 0 2.138346,-11.33054 6.5750118,8.1791675 16.86841 0 0 -5.617751,-2.94142 z" />
      <path
         id="path12-7-1-7-9"
         style="fill:#141220;fill-opacity:1;stroke:#90b4d6;stroke-width:0;stroke-dasharray:none;stroke-opacity:1"
         d="m 61.428421,75.166253 a 6.8008058,8.3065494 2.81644 0 1 2.994202,2.84958 6.8008058,8.3065494 2.81644 0 1 -1.673901,11.60143 6.8008058,8.3065494 2.81644 0 1 -2.451058,1.35291 l 0.571924,1.20398 -1.164814,0.20273 -0.09004,-1.25905 a 6.8008058,8.3065494 2.81644 0 1 -6.342782,-3.31434 l -0.0011,-0.002 a 6.8008058,8.3065494 2.81644 0 1 1.675128,-11.60141 6.8008058,8.3065494 2.81644 0 1 6.482337,-1.035 z" />
      <path
         id="path12-7-1-7-9-9"
         style="fill:#cbe6ad;fill-opacity:1;stroke:#90b4d6;stroke-width:0;stroke-dasharray:none;stroke-opacity:1"
         d="m 61.370351,75.252763 a 6.5750118,8.1791675 1.705489 0 1 2.903054,2.81623 6.5750118,8.1791675 1.705489 0 1 -1.580936,11.42151 6.5750118,8.1791675 1.705489 0 1 -2.364711,1.32473 l 0.556615,1.18769 -1.125163,0.19608 -0.09104,-1.2404 a 6.5750118,8.1791675 1.705489 0 1 -6.141032,-3.28465 l -0.0011,-0.002 a 6.5750118,8.1791675 1.705489 0 1 1.582121,-11.42149 6.5750118,8.1791675 1.705489 0 1 6.262063,-0.99882 z" />
      <path
         id="path12-7-1-7-9-5"
         style="fill:#141220;fill-opacity:1;stroke:#90b4d6;stroke-width:0;stroke-dasharray:none;stroke-opacity:1"
         d="m 43.722136,82.143973 a 8.3065494,6.8008058 47.574811 0 1 4.131712,-0.11969 8.3065494,6.8008058 47.574811 0 1 7.059348,9.35739 8.3065494,6.8008058 47.574811 0 1 -0.765156,2.69306 l 1.25762,0.44163 -0.676204,0.96987 -0.957437,-0.82259 a 8.3065494,6.8008058 47.574811 0 1 -6.81953,2.17021 l -0.0021,-5.2e-4 a 8.3065494,6.8008058 47.574811 0 1 -7.058475,-9.35826 8.3065494,6.8008058 47.574811 0 1 3.829397,-5.33174 z" />
      <path
         id="path12-7-1-7-9-9-2"
         style="fill:#d2a4a4;fill-opacity:1;stroke:#90b4d6;stroke-width:0;stroke-dasharray:none;stroke-opacity:1"
         d="m 43.742678,82.246113 a 8.1791675,6.5750118 46.46386 0 1 4.043845,-0.0785 8.1791675,6.5750118 46.46386 0 1 6.997047,9.1647 8.1791675,6.5750118 46.46386 0 1 -0.724361,2.6119 l 1.235282,0.44104 -0.653018,0.93702 -0.944897,-0.80875 a 8.1791675,6.5750118 46.46386 0 1 -6.656376,2.04787 l -0.0021,-5.4e-4 a 8.1791675,6.5750118 46.46386 0 1 -6.99621,-9.16553 8.1791675,6.5750118 46.46386 0 1 3.700003,-5.14986 z" />
      <path
         id="path12-7-1-2"
         style="fill:#141220;fill-opacity:1;stroke:#90b4d6;stroke-width:0;stroke-dasharray:none;stroke-opacity:1"
         d="m 66.937002,75.334203 a 6.4501262,8.0403795 16.512388 0 0 -3.576604,1.71422 6.4501262,8.0403795 16.512388 0 0 -2.091496,11.1431 6.4501262,8.0403795 16.512388 0 0 1.785096,1.97697 l -0.887711,0.93249 0.98454,0.53628 0.471367,-1.12771 a 6.4501262,8.0403795 16.512388 0 0 6.732512,-1.13481 l 0.0015,-10e-4 a 6.4501262,8.0403795 16.512388 0 0 2.09039,-11.14343 6.4501262,8.0403795 16.512388 0 0 -5.509517,-2.89621 z" />
      <path
         id="path12-7-1"
         style="fill:#90b4d6;fill-opacity:1;stroke:#90b4d6;stroke-width:0;stroke-dasharray:none;stroke-opacity:1"
         d="m 67.12943,75.269113 a 6.4501262,8.0403795 16.512388 0 0 -3.576605,1.7142 6.4501262,8.0403795 16.512388 0 0 -2.091498,11.14311 6.4501262,8.0403795 16.512388 0 0 1.7851,1.97698 l -0.887713,0.93248 0.984538,0.53628 0.471371,-1.1277 a 6.4501262,8.0403795 16.512388 0 0 6.732512,-1.13481 l 0.0014,-10e-4 a 6.4501262,8.0403795 16.512388 0 0 2.090389,-11.14344 6.4501262,8.0403795 16.512388 0 0 -5.509515,-2.8962 z" />
      <path
         style="opacity:0.551527;fill:#e1c7c7;fill-opacity:1;stroke:#90b4d6;stroke-width:0;stroke-dasharray:none;stroke-opacity:1"
         id="path12-7-1-6-7"
         sodipodi:type="arc"
         sodipodi:cx="145.1219"
         sodipodi:cy="27.752596"
         sodipodi:rx="10.060853"
         sodipodi:ry="22.708155"
         sodipodi:start="0.65778456"
         sodipodi:end="0.65751517"
         sodipodi:open="true"
         sodipodi:arc-type="arc"
         d="m 153.08354,41.635571 a 10.060853,22.708155 0 0 1 -14.11196,4.088027 10.060853,22.708155 0 0 1 -1.81215,-31.851556 10.060853,22.708155 0 0 1 14.11172,-4.0923174 10.060853,22.708155 0 0 1 1.81405,31.8510044"
         transform="matrix(0.65042251,0.75957261,-0.97547802,0.22009686,0,0)" />
      <g
         id="g17"
         transform="matrix(1.1550639,0.20236157,-0.27258894,0.85748357,29.520367,-52.075247)">
        <path
           id="rect17-5-7"
           style="fill:#141220;fill-opacity:1;stroke:#cbe6ad;stroke-width:0"
           d="m 76.223742,155.376 c 4.293021,-1.632 8.494981,-1.15479 12.667682,0 1.964614,0.5437 3.149267,1.72199 3.677716,3.70353 0.962767,3.61011 0.985049,6.32304 0,8.59584 -0.815008,1.88046 -1.678134,3.30977 -3.677716,3.70353 -3.769011,0.74219 -7.064939,2.25853 -12.667682,0 -1.891531,-0.7625 -2.59854,-1.96322 -3.677716,-3.70353 -1.688884,-2.72355 -1.199163,-5.62993 0,-8.59584 0.76831,-1.90028 1.771558,-2.9789 3.677716,-3.70353 z"
           sodipodi:nodetypes="sssssssss" />
        <path
           id="rect17-3"
           style="fill:#f5f5f5;fill-opacity:1;stroke:#cbe6ad;stroke-width:0"
           d="m 76.496297,155.64449 c 4.146505,-1.56531 8.205056,-1.1076 12.235348,0 1.897565,0.52149 3.041783,1.65163 3.552198,3.5522 0.929908,3.4626 0.951431,6.06468 0,8.24461 -0.787189,1.80362 -1.62086,3.17453 -3.552198,3.5522 -3.64038,0.71186 -6.823822,2.16625 -12.235348,0 -1.826976,-0.73135 -2.509855,-1.883 -3.552197,-3.5522 -1.631245,-2.61226 -1.158236,-5.39988 0,-8.24461 0.742089,-1.82263 1.711096,-2.85718 3.552197,-3.5522 z"
           sodipodi:nodetypes="sssssssss" />
      </g>
      <g
         id="g15"
         transform="matrix(0.51731231,0.48502491,-0.48502491,0.51731231,114.06567,-6.3423087)">
        <path
           style="opacity:1;fill:#141220;fill-opacity:1;stroke:#90b4d6;stroke-width:0;stroke-dasharray:none;stroke-opacity:1"
           id="path11"
           sodipodi:type="arc"
           sodipodi:cx="70.931953"
           sodipodi:cy="165.21449"
           sodipodi:rx="11.597632"
           sodipodi:ry="17.344673"
           sodipodi:start="0.65778456"
           sodipodi:end="0.65751517"
           sodipodi:open="true"
           sodipodi:arc-type="arc"
           d="m 80.109724,175.81842 a 11.597632,17.344673 0 0 1 -16.267541,3.12247 11.597632,17.344673 0 0 1 -2.088955,-24.32848 11.597632,17.344673 0 0 1 16.267259,-3.12574 11.597632,17.344673 0 0 1 2.091147,24.32805" />
        <path
           style="fill:#90b4d6;fill-opacity:1;stroke:#90b4d6;stroke-width:0;stroke-dasharray:none;stroke-opacity:1"
           id="path11-4"
           sodipodi:type="arc"
           sodipodi:cx="70.970238"
           sodipodi:cy="165.0945"
           sodipodi:rx="11.157543"
           sodipodi:ry="16.686504"
           sodipodi:start="0.65778456"
           sodipodi:end="0.65751517"
           sodipodi:open="true"
           sodipodi:arc-type="arc"
           d="m 79.799744,175.29605 a 11.157543,16.686504 0 0 1 -15.650245,3.00398 11.157543,16.686504 0 0 1 -2.009686,-23.4053 11.157543,16.686504 0 0 1 15.649974,-3.00714 11.157543,16.686504 0 0 1 2.011794,23.4049" />
        <path
           id="path9-3"
           style="fill:#141220;fill-opacity:1;stroke:#90b4d6;stroke-width:0"
           d="m 70.185761,139.00716 c 0,0 6.17159,-0.27916 8.663641,4.13201 1.694166,2.99882 0.130394,5.61294 -0.170452,7.91087 -0.669501,5.11383 -2.58776,4.1876 -4.327626,5.11834 -2.501817,1.33835 -4.167753,1.36422 -6.412705,0.15827 -1.337979,-0.71876 -4.519623,0.34731 -5.313089,-4.88409 -0.479078,-3.15859 -1.371107,-6.5832 0.14618,-8.82349 2.780556,-4.10552 7.414668,-3.6117 7.414668,-3.6117"
           sodipodi:nodetypes="cssssssc" />
        <path
           id="path14-1-8-9-0"
           style="fill:#141220;fill-opacity:1;stroke:#90b4d6;stroke-width:0"
           d="m 76.745804,151.90314 c 0.44905,-1.02471 2.237498,-2.69018 1.91695,-3.91652 -0.340019,-1.30096 1.668152,-1.10916 1.894083,-0.0546 0.305876,1.42755 -0.534677,3.20131 -1.916709,3.9165 -1.515505,0.78427 -1.900431,1.1214 -1.894354,0.0551"
           sodipodi:nodetypes="csssc" />
        <path
           id="path14-1-8-9-0-4"
           style="fill:#141220;fill-opacity:1;stroke:#90b4d6;stroke-width:0"
           d="m 64.595634,151.91967 c -0.44905,-1.02471 -2.237498,-2.69018 -1.91695,-3.91652 0.340019,-1.30096 -1.668152,-1.10916 -1.894083,-0.0546 -0.305876,1.42755 0.534677,3.20131 1.916709,3.9165 1.515505,0.78427 1.900431,1.1214 1.894354,0.0551"
           sodipodi:nodetypes="csssc" />
        <path
           id="path14-1-8-9"
           style="fill:#e9c6af;fill-opacity:1;stroke:#90b4d6;stroke-width:0"
           d="m 76.587747,151.93185 c 0.44905,-1.02471 2.237498,-2.69018 1.91695,-3.91652 -0.340019,-1.30096 1.668152,-1.10916 1.894083,-0.0546 0.305876,1.42755 -0.534677,3.20131 -1.916709,3.9165 -1.515505,0.78427 -1.900431,1.1214 -1.894354,0.0551"
           sodipodi:nodetypes="csssc" />
        <path
           id="path14-1-8-9-7"
           style="fill:#e9c6af;fill-opacity:1;stroke:#90b4d6;stroke-width:0"
           d="m 64.727926,151.93621 c -0.44905,-1.02471 -2.237498,-2.69018 -1.91695,-3.91652 0.340019,-1.30096 -1.668152,-1.10916 -1.894083,-0.0546 -0.305876,1.42755 0.534677,3.20131 1.916709,3.9165 1.515505,0.78427 1.900431,1.1214 1.894354,0.0551"
           sodipodi:nodetypes="csssc" />
        <path
           id="path14-1-8-9-7-7"
           style="fill:#deaa87;fill-opacity:1;stroke:#90b4d6;stroke-width:0"
           d="m 65.958615,151.16884 c -0.654495,-0.78094 -2.643606,-1.77957 -2.676914,-2.93349 -0.03537,-1.22414 -1.741739,-0.5431 -1.669628,0.43651 0.09757,1.32607 1.285784,2.66167 2.676698,2.93353 1.525246,0.29812 1.947908,0.49441 1.670004,-0.4361"
           sodipodi:nodetypes="csssc" />
        <path
           id="path14-1-8-9-7-7-5"
           style="fill:#deaa87;fill-opacity:1;stroke:#90b4d6;stroke-width:0"
           d="m 75.398609,151.2702 c 0.654495,-0.78094 2.643606,-1.77957 2.676914,-2.93349 0.03537,-1.22414 1.741739,-0.5431 1.669628,0.43651 -0.09757,1.32607 -1.285784,2.66167 -2.676698,2.93353 -1.525246,0.29812 -1.947908,0.49441 -1.670004,-0.4361"
           sodipodi:nodetypes="csssc" />
        <path
           id="path9"
           style="opacity:1;fill:#e9c6af;stroke:#90b4d6;stroke-width:0"
           d="m 70.212991,139.14455 c 0,0 6.065582,-0.27193 8.514828,4.02498 1.665066,2.92116 0.128154,5.46758 -0.167524,7.70599 -0.658,4.98138 -2.54331,4.07914 -4.253291,4.98578 -2.458845,1.30369 -4.096165,1.32889 -6.302555,0.15416 -1.314997,-0.70014 -4.441991,0.33832 -5.221829,-4.75758 -0.470849,-3.07679 -1.347556,-6.4127 0.143669,-8.59497 2.732796,-3.99919 7.287309,-3.51816 7.287309,-3.51816"
           sodipodi:nodetypes="cssssssc" />
        <path
           id="path13-8-0-8"
           style="fill:#deaa87;fill-opacity:1;stroke:#90b4d6;stroke-width:0;stroke-dasharray:none;stroke-opacity:1"
           d="m 68.671626,141.01033 a 2.523295,0.40462445 50.169634 0 0 0.210275,0.22614 l 5.88e-4,6.7e-4 a 2.523295,0.40462445 50.169634 0 0 1.286661,0.71837 2.523295,0.40462445 50.169634 0 0 -0.206172,-0.42869 2.5124126,0.38057532 50.467618 0 1 0.336496,0.62892 2.5124126,0.38057532 50.467618 0 1 -1.222095,-0.69522 l -3.77e-4,-3.8e-4 a 2.5124126,0.38057532 50.467618 0 1 -0.405411,-0.4498 z" />
        <path
           id="path13-8-0-8-4"
           style="fill:#deaa87;fill-opacity:1;stroke:#90b4d6;stroke-width:0;stroke-dasharray:none;stroke-opacity:1"
           d="m 69.643336,141.23789 a 2.8515177,0.46352258 46.825897 0 0 0.252988,0.24333 l 7.08e-4,7.2e-4 a 2.8515177,0.46352258 46.825897 0 0 1.54802,0.77297 2.8515177,0.46352258 46.825897 0 0 -0.248051,-0.46127 2.8375203,0.4362339 47.14705 0 1 0.404848,0.67672 2.8375203,0.4362339 47.14705 0 1 -1.470339,-0.74806 l -4.54e-4,-4.1e-4 a 2.8375203,0.4362339 47.14705 0 1 -0.487762,-0.48399 z" />
        <path
           id="path13-8-0-8-8"
           style="fill:#deaa87;fill-opacity:1;stroke:#90b4d6;stroke-width:0;stroke-dasharray:none;stroke-opacity:1"
           d="m 70.833955,140.42761 a 2.523295,0.40462445 50.169634 0 0 0.210275,0.22614 l 5.88e-4,6.7e-4 a 2.523295,0.40462445 50.169634 0 0 1.286661,0.71837 2.523295,0.40462445 50.169634 0 0 -0.206172,-0.42869 2.5124126,0.38057532 50.467618 0 1 0.336496,0.62892 2.5124126,0.38057532 50.467618 0 1 -1.222095,-0.69522 l -3.77e-4,-3.8e-4 a 2.5124126,0.38057532 50.467618 0 1 -0.405411,-0.4498 z" />
        <path
           id="path13-8-0-8-8-2"
           style="fill:#deaa87;fill-opacity:1;stroke:#90b4d6;stroke-width:0;stroke-dasharray:none;stroke-opacity:1"
           d="m 70.19732,140.9485 a 3.5494694,0.57730571 46.532472 0 0 0.316537,0.3015 l 8.85e-4,8.9e-4 a 3.5494694,0.57730571 46.532472 0 0 1.936873,0.95777 3.5494694,0.57730571 46.532472 0 0 -0.310361,-0.57155 3.5318532,0.54334801 46.855469 0 1 0.506544,0.83851 3.5318532,0.54334801 46.855469 0 1 -1.839679,-0.9269 l -5.67e-4,-5.1e-4 a 3.5318532,0.54334801 46.855469 0 1 -0.610285,-0.5997 z" />
        <path
           id="path14-1"
           style="fill:#deaa87;stroke:#90b4d6;stroke-width:0"
           d="m 65.566764,146.62367 c 0.663626,-0.21771 1.733419,-1.05618 2.534774,-0.92396 0.850115,0.14025 0.708474,-0.77681 0.01984,-0.86775 -0.932283,-0.12312 -2.080492,0.28269 -2.53477,0.92385 -0.498155,0.70308 -0.714512,0.88329 -0.02017,0.86788"
           sodipodi:nodetypes="csssc" />
        <path
           id="path14-1-8"
           style="fill:#deaa87;stroke:#90b4d6;stroke-width:0"
           d="m 75.262147,146.55219 c -0.663626,-0.21771 -1.733419,-1.05618 -2.534774,-0.92396 -0.850115,0.14025 -0.708474,-0.77681 -0.01984,-0.86775 0.932283,-0.12312 2.080492,0.28269 2.53477,0.92385 0.498155,0.70308 0.714512,0.88329 0.02017,0.86788"
           sodipodi:nodetypes="csssc" />
        <path
           id="path14-1-8-7"
           style="fill:#deaa87;stroke:#90b4d6;stroke-width:0"
           d="m 68.529128,148.18349 c -0.4204,0.0669 -1.098103,0.32468 -1.605753,0.28404 -0.53854,-0.0431 -0.448812,0.2388 -0.01257,0.26675 0.590592,0.0378 1.317971,-0.0869 1.605751,-0.284 0.315576,-0.21613 0.452636,-0.27153 0.01278,-0.2668"
           sodipodi:nodetypes="csssc" />
        <path
           id="path14-1-8-7-1"
           style="fill:#deaa87;stroke:#90b4d6;stroke-width:0"
           d="m 72.982383,148.20002 c 0.4204,0.0669 1.098103,0.32468 1.605753,0.28404 0.53854,-0.0431 0.448812,0.2388 0.01257,0.26675 -0.590592,0.0378 -1.317971,-0.0869 -1.605751,-0.284 -0.315576,-0.21613 -0.452636,-0.27153 -0.01278,-0.2668"
           sodipodi:nodetypes="csssc" />
        <path
           id="path14-1-8-7-1-0"
           style="fill:#deaa87;stroke:#90b4d6;stroke-width:0"
           d="m 69.40224,153.17749 c 0.4204,0.0669 1.098103,0.32468 1.605753,0.28404 0.53854,-0.0431 0.448812,0.2388 0.01257,0.26675 -0.590592,0.0378 -1.317971,-0.0869 -1.605751,-0.284 -0.315576,-0.21613 -0.452636,-0.27153 -0.01278,-0.2668"
           sodipodi:nodetypes="csssc" />
        <path
           id="path14-1-8-1"
           style="fill:#deaa87;stroke:#90b4d6;stroke-width:0"
           d="m 71.098973,150.63777 c -0.2818,-0.0323 -0.928186,0.34113 -1.112766,-0.0426 -0.195805,-0.40707 -0.515373,0.44059 -0.347817,0.75056 0.226823,0.41963 0.72589,0.44999 1.112729,0.0426 0.424199,-0.44668 0.559114,-0.53148 0.347945,-0.75056"
           sodipodi:nodetypes="csssc" />
      </g>
      <path
         id="rect16-6"
         style="fill:#f5f5f5;fill-opacity:1;stroke:#90b4d6;stroke-width:0"
         d="m 67.951397,75.573213 c 1.109482,0.34926 1.373085,0.23474 1.249847,-0.0919 1.065949,0.4694 1.84115,0.98506 2.379411,1.53846 0.323988,0.57275 -0.552791,0.26654 -1.249842,0.0919 -0.519665,-0.64972 -1.445374,-1.09617 -2.379416,-1.53846 z"
         sodipodi:nodetypes="ccccc" />
      <path
         id="rect16-6-7"
         style="fill:#f5f5f5;fill-opacity:1;stroke:#90b4d6;stroke-width:0"
         d="m 56.992512,76.377623 c 1.074152,-0.49227 1.164571,-0.93933 0.805125,-1.36565 1.143636,-0.24937 2.120749,-0.13943 2.962181,0.26334 0.706391,0.6429 -0.167643,0.98149 -0.805126,1.36564 -0.908656,-0.58174 -1.934217,-0.43006 -2.96218,-0.26333 z"
         sodipodi:nodetypes="ccccc" />
      <path
         id="rect16-6-2"
         style="fill:#f5f5f5;fill-opacity:1;stroke:#90b4d6;stroke-width:0"
         d="m 47.30423,87.713793 c 1.177996,0.092 1.474342,-0.25472 1.367473,-0.80202 1.120627,0.33805 1.921076,0.90911 2.460591,1.67014 0.30473,0.90521 -0.623634,0.77622 -1.367469,0.80201 -0.511256,-0.9501 -1.48122,-1.31611 -2.460595,-1.67013 z"
         sodipodi:nodetypes="ccccc" />
      <text
         xml:space="preserve"
         style="font-weight:bold;font-size:4.93889px;line-height:0.8;font-family:Raleway;-inkscape-font-specification:'Raleway Bold';text-align:center;text-anchor:middle;fill:#141220;fill-opacity:1;stroke:#cbe6ad;stroke-width:0;stroke-dasharray:none;stroke-opacity:1"
         x="80.501068"
         y="90.716446"
         id="text20-8-3"><tspan
           sodipodi:role="line"
           id="tspan20-7-8"
           style="font-style:normal;font-variant:normal;font-weight:900;font-stretch:normal;font-size:4.93889px;font-family:Cinzel;-inkscape-font-specification:'Cinzel Heavy';fill:#141220;fill-opacity:1;stroke:#cbe6ad;stroke-width:0;stroke-opacity:1"
           x="80.501068"
           y="90.716446">Baby </tspan><tspan
           sodipodi:role="line"
           style="font-style:normal;font-variant:normal;font-weight:900;font-stretch:normal;font-size:4.93889px;font-family:Cinzel;-inkscape-font-specification:'Cinzel Heavy';fill:#141220;fill-opacity:1;stroke:#cbe6ad;stroke-width:0;stroke-opacity:1"
           x="80.501068"
           y="95.046104"
           id="tspan21">Shower</tspan></text>
    </g>
  </g>
</svg>
