<?xml version="1.0" encoding="UTF-8" standalone="no"?>
<!-- Created with Inkscape (http://www.inkscape.org/) -->

<svg
   width="52.916668mm"
   height="52.916668mm"
   viewBox="0 0 52.916669 52.916668"
   version="1.1"
   id="svg1"
   sodipodi:docname="FAVICON final Source File.svg"
   inkscape:version="1.3 (0e150ed6c4, 2023-07-21)"
   xml:space="preserve"
   xmlns:inkscape="http://www.inkscape.org/namespaces/inkscape"
   xmlns:sodipodi="http://sodipodi.sourceforge.net/DTD/sodipodi-0.dtd"
   xmlns:xlink="http://www.w3.org/1999/xlink"
   xmlns="http://www.w3.org/2000/svg"
   xmlns:svg="http://www.w3.org/2000/svg"><sodipodi:namedview
     id="namedview1"
     pagecolor="#505050"
     bordercolor="#ffffff"
     borderopacity="1"
     inkscape:showpageshadow="0"
     inkscape:pageopacity="0"
     inkscape:pagecheckerboard="1"
     inkscape:deskcolor="#505050"
     inkscape:document-units="mm"
     showgrid="true"
     inkscape:zoom="0.21993563"
     inkscape:cx="-2011.9523"
     inkscape:cy="2189.2769"
     inkscape:window-width="2880"
     inkscape:window-height="1514"
     inkscape:window-x="-11"
     inkscape:window-y="-11"
     inkscape:window-maximized="1"
     inkscape:current-layer="layer1"><inkscape:grid
       id="grid1"
       units="mm"
       originx="-74.976139"
       originy="-1267.1647"
       spacingx="0.99999999"
       spacingy="0.99999998"
       empcolor="#0099e5"
       empopacity="0.30196078"
       color="#0099e5"
       opacity="0.14901961"
       empspacing="5"
       dotted="false"
       gridanglex="30"
       gridanglez="30"
       visible="true" /></sodipodi:namedview><defs
     id="defs1"><linearGradient
       id="linearGradient10"
       inkscape:collect="always"><stop
         style="stop-color:#729619;stop-opacity:1;"
         offset="0.19615385"
         id="stop14" /><stop
         style="stop-color:#00c4cc;stop-opacity:1;"
         offset="0.85576922"
         id="stop17" /></linearGradient><linearGradient
       inkscape:collect="always"
       xlink:href="#linearGradient10"
       id="linearGradient29"
       gradientUnits="userSpaceOnUse"
       gradientTransform="matrix(0.9472956,0,0,0.94736946,50.685692,394.60566)"
       x1="-1.5876449"
       y1="-13.962748"
       x2="48.68346"
       y2="-13.962748" /></defs><g
     inkscape:label="Layer 1"
     inkscape:groupmode="layer"
     id="layer1"
     transform="translate(-45.800173,-628.19655)"><g
       id="g2-2-5-5-9"
       inkscape:export-filename="FAVICON PNGs\FAV 200 x 200 px.png"
       inkscape:export-xdpi="96"
       inkscape:export-ydpi="96"
       transform="translate(-0.36554483,273.2776)"><rect
         style="fill:#e9ebec;fill-opacity:1;stroke:#bf3e1d;stroke-width:6.52601e-09;stroke-dasharray:none;stroke-opacity:1"
         id="rect4-1-9-4-0-8-3-7-2-1-8-2-8-8-1"
         width="52.916668"
         height="52.916668"
         x="46.165718"
         y="354.91895" /><path
         id="text1-6-7-9-2-1-7-0-4-8-7-5-9-1-2-3-6-3-2-9-5"
         style="font-style:normal;font-variant:normal;font-weight:normal;font-stretch:normal;font-size:9.13924px;line-height:0.8;font-family:MuseoModerno;-inkscape-font-specification:MuseoModerno;text-align:center;text-anchor:middle;fill:#bf3e1d;fill-opacity:1;stroke:#000000;stroke-width:0;stroke-dasharray:none;stroke-opacity:1"
         d="m 70.737862,357.50069 a 23.824304,23.812748 0 0 0 -17.512627,9.21805 23.824304,23.812748 0 0 0 -0.03307,0.0491 22.353164,22.342321 0 0 1 0.464055,-0.48783 23.801758,23.789234 0 0 0 -0.409794,0.45837 23.801758,23.789234 0 0 0 -4.926315,15.88069 23.801758,23.789234 0 0 0 0.387057,3.01222 22.353164,22.342321 0 0 1 -0.05013,-0.17519 23.824304,23.812748 0 0 0 0.05581,0.21911 23.801758,23.789234 0 0 0 0.503846,1.98283 23.824304,23.812748 0 0 0 0.385506,1.38803 23.801758,23.789234 0 0 0 0.684196,1.63659 23.824304,23.812748 0 0 0 0.690397,1.572 23.801758,23.789234 0 0 0 0.676961,1.12034 23.824304,23.812748 0 0 0 1.150317,1.85053 23.801758,23.789234 0 0 0 0.257866,0.31213 23.824304,23.812748 0 0 0 4.451408,4.58163 l 0.0093,0.004 a 23.824304,23.812748 0 0 0 33.416564,-4.2938 23.824304,23.812748 0 0 0 2.384868,-3.76979 h 0.498161 v -1.0449 a 23.824304,23.812748 0 0 0 2.04742,-11.08098 23.824304,23.812748 0 0 0 -9.223727,-17.50487 23.824304,23.812748 0 0 0 -15.904455,-4.92839 z m 1.650028,1.9296 a 22.332011,22.32026 0 0 1 5.889563,0.47749 22.353164,22.342321 0 0 1 5.899898,3.24735 22.353164,22.342321 0 0 1 7.390764,25.17262 h -6.838859 c -0.241485,0 -0.571541,-0.0975 -0.742074,-0.30334 -0.139407,-0.16905 -0.132808,-0.64699 -0.132808,-0.64699 v -1.06918 h -0.0016 v -10.68462 c 0,-0.95561 -0.219012,-1.79841 -0.659908,-2.52646 -0.439898,-0.72809 -1.039784,-1.30439 -1.79834,-1.72909 -0.743126,-0.42473 -1.601024,-0.63821 -2.571936,-0.63821 -0.940296,0 -1.796644,0.21347 -2.570385,0.63821 -0.758311,0.4247 -1.357407,1.001 -1.797307,1.72909 -0.4399,0.72805 -0.659908,1.57085 -0.659908,2.52646 v 6.93808 c 0,0.25786 -0.06188,0.48494 -0.181384,0.68213 -0.121979,0.19718 -0.28787,0.35718 -0.500228,0.47852 -0.196673,0.10602 -0.417179,0.16071 -0.659908,0.16071 -0.226548,0 -0.44,-0.0545 -0.63717,-0.16071 -0.181735,-0.12127 -0.33248,-0.28134 -0.453719,-0.47852 -0.121995,-0.19716 -0.181385,-0.42427 -0.181385,-0.68213 v -6.93808 c 0,-0.95561 -0.219528,-1.79841 -0.660424,-2.52646 -0.439902,-0.72809 -1.038479,-1.30439 -1.79679,-1.72909 -0.755469,-0.42299 -1.616428,-0.6365 -2.582271,-0.63821 l -0.01137,-10e-4 c -0.951042,9.7e-4 -1.811963,0.2152 -2.582271,0.6382 -0.758561,0.42471 -1.357407,1.00102 -1.797307,1.7291 -0.424714,0.72806 -0.638204,1.5693 -0.638204,2.52491 v 11.30887 0.50539 c 0,0 -3.38e-4,0.47692 -0.132291,0.64596 -0.171777,0.20588 -0.499344,0.30334 -0.742074,0.30334 H 52.38291 a 22.332011,22.32026 0 0 1 3.589961,-20.31142 22.332011,22.32026 0 0 1 16.415019,-8.64289 z m -6.256466,14.59859 c 0.241485,0 0.463252,0.0598 0.660425,0.18139 0.196671,0.12127 0.355735,0.28185 0.476974,0.47904 0.121979,0.19718 0.181384,0.41724 0.181384,0.65991 v 6.93911 c 0,1.00109 0.219241,1.86556 0.658874,2.59364 0.455086,0.72809 1.061733,1.29632 1.820044,1.70584 0.773497,0.40956 1.623571,0.61495 2.548682,0.61495 0.925358,0 1.767122,-0.20539 2.525427,-0.61495 0.758562,-0.40952 1.365473,-0.97775 1.820561,-1.70584 0.454837,-0.72808 0.683162,-1.59255 0.683162,-2.59364 v -6.96237 c 0,-0.24274 0.06043,-0.45463 0.182418,-0.63665 0.121979,-0.19715 0.280321,-0.35768 0.47749,-0.47904 0.21161,-0.12127 0.432366,-0.18139 0.659909,-0.18139 0.243974,0 0.462737,0.0598 0.659908,0.18139 0.196671,0.12127 0.349732,0.28185 0.455786,0.47904 0.12198,0.18198 0.181384,0.39394 0.181384,0.63665 v 11.60395 0.44803 h -0.0026 c 7.46e-4,0.009 0.002,0.0223 0.0026,0.032 v 0.0176 h 0.001 c 0.05228,0.79985 0.257488,1.53197 0.622701,2.19728 0.424715,0.75842 1.000913,1.35844 1.729094,1.79834 0.727941,0.42474 1.569696,0.63666 2.525427,0.63666 h 4.83278 a 22.353164,22.342321 0 0 1 -1.628841,2.43344 22.353164,22.342321 0 0 1 -22.13715,8.20312 22.332011,22.32026 0 0 1 -6.070947,-3.31556 22.332011,22.32026 0 0 1 -6.108671,-7.26364 h 6.076114 c 0.955733,0 1.797488,-0.21197 2.525428,-0.63666 0.728183,-0.43988 1.304379,-1.04045 1.729093,-1.79885 0.347788,-0.6335 0.550662,-1.32715 0.613399,-2.08256 v -0.13126 c 7.46e-4,-0.009 0.002,-0.0223 0.0026,-0.032 h -0.0026 v -0.50591 h 0.0016 v -11.58069 c 0,-0.24273 0.05263,-0.46272 0.15968,-0.65991 0.12198,-0.19715 0.279802,-0.35768 0.476973,-0.47904 0.196673,-0.12127 0.417178,-0.18139 0.659908,-0.18139 z" /><path
         id="path4-6-9-35-1-8-4-0-2-8-0-1-2"
         style="fill:url(#linearGradient29);fill-opacity:1;stroke:#bf3e1d;stroke-width:7.5854e-09;stroke-dasharray:none;stroke-opacity:1"
         d="m 71.637548,357.6025 a 23.824304,23.812748 0 0 0 -17.513143,9.21804 23.824304,23.812748 0 0 0 -0.03307,0.0496 22.353164,22.342321 0 0 1 0.464055,-0.48834 23.801758,23.789234 0 0 0 -0.409794,0.45837 23.801758,23.789234 0 0 0 -4.925798,15.8812 23.801758,23.789234 0 0 0 0.387057,3.0117 22.353164,22.342321 0 0 1 -0.05013,-0.17467 23.824304,23.812748 0 0 0 0.05581,0.21859 23.801758,23.789234 0 0 0 0.503845,1.98283 23.824304,23.812748 0 0 0 0.38499,1.38855 23.801758,23.789234 0 0 0 0.684712,1.63607 23.824304,23.812748 0 0 0 0.689881,1.572 23.801758,23.789234 0 0 0 0.677478,1.12034 23.824304,23.812748 0 0 0 1.150317,1.85054 23.801758,23.789234 0 0 0 0.257866,0.31212 23.824304,23.812748 0 0 0 4.451407,4.58163 l 0.0093,0.004 a 23.824304,23.812748 0 0 0 33.416048,-4.29328 23.824304,23.812748 0 0 0 4.930449,-15.89619 23.824304,23.812748 0 0 0 -9.223727,-17.50487 23.824304,23.812748 0 0 0 -15.903938,-4.92838 z m 1.649512,1.93011 a 22.332011,22.32026 0 0 1 5.889563,0.47698 22.353164,22.342321 0 0 1 5.900415,3.24734 22.353164,22.342321 0 0 1 7.575248,24.63106 h -7.381461 c -0.241485,0 -0.572058,-0.0975 -0.742591,-0.30334 -0.139407,-0.16905 -0.132291,-0.64751 -0.132291,-0.64751 v -1.06867 h -0.0016 v -10.68462 c 0,-0.95561 -0.219012,-1.79841 -0.659908,-2.52646 -0.439898,-0.72809 -1.039784,-1.30438 -1.79834,-1.72909 -0.743126,-0.42473 -1.601024,-0.63821 -2.571936,-0.63821 -0.940296,0 -1.796644,0.21347 -2.570385,0.63821 -0.758311,0.42471 -1.357407,1.001 -1.797307,1.72909 -0.4399,0.72805 -0.659908,1.57085 -0.659908,2.52646 v 6.93808 c 0,0.25786 -0.06188,0.48494 -0.181384,0.68213 -0.121979,0.19718 -0.288387,0.35718 -0.500745,0.47852 -0.196672,0.10602 -0.417179,0.16072 -0.659908,0.16072 -0.226547,0 -0.439482,-0.0545 -0.636653,-0.16072 -0.181735,-0.12127 -0.332996,-0.28134 -0.454236,-0.47852 -0.121995,-0.19716 -0.181384,-0.42427 -0.181384,-0.68213 v -6.93808 c 0,-0.95561 -0.219012,-1.79841 -0.659908,-2.52646 -0.439902,-0.72809 -1.038996,-1.30438 -1.797307,-1.72909 -0.755469,-0.42299 -1.615911,-0.6365 -2.581754,-0.63821 l -0.01189,-0.001 c -0.951042,9.7e-4 -1.811446,0.21521 -2.581754,0.63821 -0.758561,0.4247 -1.357407,1.00049 -1.797307,1.72857 -0.424714,0.72807 -0.638204,1.56982 -0.638204,2.52543 v 11.30835 0.50592 c 0,0 -3.38e-4,0.47691 -0.132291,0.64595 -0.171777,0.20588 -0.499861,0.30334 -0.742591,0.30334 h -7.647078 a 22.332011,22.32026 0 0 1 3.739823,-19.76985 22.332011,22.32026 0 0 1 16.415019,-8.64237 z m -6.614067,14.05651 c 0.241485,0 0.462736,0.0598 0.659908,0.18138 0.196671,0.12127 0.356252,0.28134 0.477491,0.47853 0.121979,0.19718 0.181384,0.41775 0.181384,0.66042 v 6.93911 c 0,1.00109 0.218724,1.86556 0.658358,2.59364 0.455085,0.72809 1.062249,1.29632 1.82056,1.70584 0.773497,0.40956 1.623571,0.61495 2.548682,0.61495 0.925358,0 1.767122,-0.20539 2.525427,-0.61495 0.758562,-0.40952 1.364957,-0.97775 1.820044,-1.70584 0.454837,-0.72808 0.683163,-1.59255 0.683163,-2.59364 v -6.96236 c 0,-0.24274 0.06095,-0.45515 0.182934,-0.63717 0.121979,-0.19715 0.279804,-0.35717 0.476974,-0.47853 0.211609,-0.12127 0.432882,-0.18138 0.660425,-0.18138 0.243974,0 0.462737,0.0598 0.659908,0.18138 0.196671,0.12127 0.349215,0.28134 0.455269,0.47853 0.12198,0.18198 0.181384,0.39446 0.181384,0.63717 v 11.60394 0.44803 h -0.0026 c 7.46e-4,0.009 0.002,0.0223 0.0026,0.032 v 0.0176 h 0.0015 c 0.05228,0.79985 0.257488,1.53198 0.622701,2.19729 0.424715,0.75841 1.000913,1.35844 1.729094,1.79834 0.727941,0.42473 1.569696,0.63665 2.525427,0.63665 h 5.499406 a 22.353164,22.342321 0 0 1 -1.937866,2.97501 22.353164,22.342321 0 0 1 -22.136633,8.20312 22.332011,22.32026 0 0 1 -6.071464,-3.31556 22.332011,22.32026 0 0 1 -6.345866,-7.80521 h 5.955192 c 0.955732,0 1.797488,-0.21196 2.525427,-0.63665 0.728183,-0.43988 1.304379,-1.04046 1.729093,-1.79886 0.347788,-0.6335 0.551179,-1.32715 0.613916,-2.08256 v -0.13126 c 7.46e-4,-0.009 0.002,-0.0223 0.0026,-0.032 h -0.0026 v -0.50591 h 0.001 v -11.58069 c 0,-0.24273 0.05263,-0.46323 0.15968,-0.66042 0.12198,-0.19715 0.280319,-0.35717 0.47749,-0.47853 0.196673,-0.12127 0.417178,-0.18138 0.659908,-0.18138 z" /></g></g></svg>
