<?xml version="1.0" encoding="UTF-8" standalone="no"?>
<!-- Created with Inkscape (http://www.inkscape.org/) -->

<svg
   width="55.91666mm"
   height="55.916679mm"
   viewBox="0 0 55.91666 55.916679"
   version="1.1"
   id="svg1"
   inkscape:version="1.3 (0e150ed6c4, 2023-07-21)"
   sodipodi:docname="Event type img icons.svg"
   xmlns:inkscape="http://www.inkscape.org/namespaces/inkscape"
   xmlns:sodipodi="http://sodipodi.sourceforge.net/DTD/sodipodi-0.dtd"
   xmlns="http://www.w3.org/2000/svg"
   xmlns:svg="http://www.w3.org/2000/svg">
  <sodipodi:namedview
     id="namedview1"
     pagecolor="#505050"
     bordercolor="#ffffff"
     borderopacity="1"
     inkscape:showpageshadow="0"
     inkscape:pageopacity="0"
     inkscape:pagecheckerboard="1"
     inkscape:deskcolor="#505050"
     inkscape:document-units="mm"
     inkscape:zoom="1"
     inkscape:cx="-519"
     inkscape:cy="442.5"
     inkscape:window-width="2880"
     inkscape:window-height="1514"
     inkscape:window-x="-11"
     inkscape:window-y="-11"
     inkscape:window-maximized="1"
     inkscape:current-layer="layer1" />
  <defs
     id="defs1" />
  <g
     inkscape:label="Layer 1"
     inkscape:groupmode="layer"
     id="layer1"
     transform="translate(-221.85311,-202.14166)">
    <g
       id="g32"
       transform="translate(51.064583,127.52917)">
      <rect
         style="fill:#f5f5f5;fill-opacity:1;stroke:#141220;stroke-width:3;stroke-dasharray:none;stroke-opacity:1"
         id="rect1-5-1-3-8-5-2"
         width="52.916668"
         height="52.916668"
         x="172.28853"
         y="76.112503"
         ry="8.1275444" />
      <path
         style="opacity:0.551527;fill:#e1c7c7;fill-opacity:1;stroke:#90b4d6;stroke-width:0;stroke-dasharray:none;stroke-opacity:1"
         id="path12-7-1-6-7-1"
         sodipodi:type="arc"
         sodipodi:cx="179.25888"
         sodipodi:cy="-85.479942"
         sodipodi:rx="10.060853"
         sodipodi:ry="22.708155"
         sodipodi:start="0.65778456"
         sodipodi:end="0.65751517"
         sodipodi:open="true"
         sodipodi:arc-type="arc"
         d="m 187.22052,-71.596968 a 10.060853,22.708155 0 0 1 -14.11196,4.088027 10.060853,22.708155 0 0 1 -1.81215,-31.851556 10.060853,22.708155 0 0 1 14.11172,-4.092313 10.060853,22.708155 0 0 1 1.81405,31.851001"
         transform="matrix(0.65042251,0.75957261,-0.97547802,0.22009686,0,0)" />
      <g
         id="g19"
         transform="translate(31.03469,-57.071128)">
        <path
           id="rect18-4"
           style="fill:#141220;fill-opacity:1;stroke:#cbe6ad;stroke-width:0;stroke-dasharray:none;stroke-opacity:1"
           d="m 182.6933,164.8704 c -0.10709,0 -0.27613,0.0249 -0.37889,0.0554 l -10.33537,3.06815 c -0.10273,0.0305 -0.0991,0.0554 0.008,0.0554 h 10.98847 c 0.1071,0 0.27612,-0.0249 0.3789,-0.0554 l 10.33537,-3.06815 c 0.10273,-0.0305 0.0991,-0.0554 -0.008,-0.0554 z m 11.17128,0.0372 -10.21049,3.00842 v 0.19209 c -0.0304,-0.0319 -0.0727,-0.0522 -0.1201,-0.0522 h -11.56558 c -0.093,0 -0.16792,0.076 -0.16792,0.17004 v 9.46108 c 0,0.0941 0.075,0.17003 0.16792,0.17003 h 11.56558 c 0.0539,0 0.0995,-0.0275 0.1302,-0.0673 l 10.09783,-4.28367 z" />
        <g
           id="g18"
           transform="matrix(0.71003435,0,0,0.71003435,51.175455,53.00242)">
          <rect
             style="fill:#90b4d6;fill-opacity:1;stroke:#cbe6ad;stroke-width:0.304;stroke-dasharray:none;stroke-opacity:1"
             id="rect18"
             width="16.299273"
             height="13.256221"
             x="170.32886"
             y="162.23268"
             ry="0.22968699" />
          <path
             id="rect18-8"
             style="fill:#90b4d6;stroke:#cbe6ad;stroke-width:0.3;stroke-dasharray:none;stroke-opacity:1"
             d="m 186.56289,162.04285 13.98405,-4.06918 -0.14031,11.63088 -13.84374,5.79975 z"
             sodipodi:nodetypes="ccccc" />
          <rect
             style="fill:#90b4d6;fill-opacity:1;stroke:#cbe6ad;stroke-width:0.569328;stroke-dasharray:none;stroke-opacity:1"
             id="rect18-9"
             width="15.579196"
             height="15.280132"
             x="723.56"
             y="561.25378"
             ry="0.26475477"
             transform="matrix(1,0,-0.95959728,0.2813771,0,0)" />
        </g>
        <path
           id="rect19-3-3"
           style="fill:#141220;fill-opacity:1;stroke:#cbe6ad;stroke-width:0"
           d="m 187.84487,166.70704 1.80119,-0.51449 0.12277,8.97657 -1.91227,0.80098 z"
           sodipodi:nodetypes="ccccc" />
        <path
           id="rect19"
           style="fill:#d2a4a4;stroke:#cbe6ad;stroke-width:0"
           d="m 187.72418,166.7005 1.80119,-0.51449 0.12277,8.97657 -1.91227,0.80098 z"
           sodipodi:nodetypes="ccccc" />
        <path
           id="rect19-6-7-2"
           style="fill:#141220;fill-opacity:1;stroke:#cbe6ad;stroke-width:0"
           d="m 179.02349,168.31094 h -2.23383 l -0.11108,9.40921 1.88889,0.006 z"
           sodipodi:nodetypes="ccccc" />
        <path
           id="rect19-6"
           style="fill:#d2a4a4;stroke:#cbe6ad;stroke-width:0"
           d="m 178.9028,168.3044 h -2.23383 l -0.11108,9.40921 1.88889,0.006 z"
           sodipodi:nodetypes="ccccc" />
        <path
           id="rect19-7-52-6"
           style="fill:#141220;fill-opacity:1;stroke:#cbe6ad;stroke-width:0"
           d="m 189.6333,166.25327 -1.77735,0.67866 -10.46159,-0.28649 2.22751,-0.6728 z"
           sodipodi:nodetypes="ccccc" />
        <path
           id="rect19-7"
           style="fill:#d2a4a4;stroke:#cbe6ad;stroke-width:0"
           d="m 189.51261,166.24673 -1.77735,0.67866 -10.46159,-0.28649 2.22751,-0.6728 z"
           sodipodi:nodetypes="ccccc" />
        <path
           id="rect19-7-5-8-9"
           style="fill:#141220;fill-opacity:1;stroke:#cbe6ad;stroke-width:0"
           d="m 188.33149,165.1235 -1.90238,-0.0189 -9.71819,3.24067 2.32279,-0.0336 z"
           sodipodi:nodetypes="ccccc" />
        <path
           id="rect19-7-5"
           style="fill:#d2a4a4;stroke:#cbe6ad;stroke-width:0"
           d="m 188.2108,165.11696 -1.90238,-0.0189 -9.71819,3.24067 2.32279,-0.0336 z"
           sodipodi:nodetypes="ccccc" />
        <path
           id="path19-0-4"
           style="fill:#141220;fill-opacity:1;stroke:#cbe6ad;stroke-width:0;stroke-dasharray:none;stroke-opacity:1"
           d="m 181.94565,162.70776 a 3.5568238,1.6867412 30.395038 0 0 -2.76952,-0.86421 3.5568238,1.6867412 30.395038 0 0 -0.64453,2.36479 3.5568238,1.6867412 30.395038 0 0 4.4571,2.2624 l 8.3e-4,4e-5 a 3.5568238,1.6867412 30.395038 0 0 0.64387,-2.36517 3.5568238,1.6867412 30.395038 0 0 -1.68776,-1.39786 z m 0.276,0.51616 a 2.8723492,1.4300632 30.395038 0 1 1.35571,1.14107 2.8723492,1.4300632 30.395038 0 1 -0.56804,1.99208 l -8.3e-4,-5e-5 a 2.8723492,1.4300632 30.395038 0 1 -3.60543,-1.8164 2.8723492,1.4300632 30.395038 0 1 0.56869,-1.99169 2.8723492,1.4300632 30.395038 0 1 2.24993,0.67501 z" />
        <path
           id="path19-0"
           style="fill:#d2a4a4;fill-opacity:1;stroke:#cbe6ad;stroke-width:0;stroke-dasharray:none;stroke-opacity:1"
           d="m 181.93613,162.82388 a 3.5568238,1.6867412 30.395038 0 0 -2.76952,-0.86421 3.5568238,1.6867412 30.395038 0 0 -0.64453,2.36479 3.5568238,1.6867412 30.395038 0 0 4.4571,2.2624 l 8.3e-4,4e-5 a 3.5568238,1.6867412 30.395038 0 0 0.64387,-2.36517 3.5568238,1.6867412 30.395038 0 0 -1.68776,-1.39786 z m 0.276,0.51616 a 2.8723492,1.4300632 30.395038 0 1 1.35571,1.14107 2.8723492,1.4300632 30.395038 0 1 -0.56804,1.99208 l -8.3e-4,-5e-5 a 2.8723492,1.4300632 30.395038 0 1 -3.60543,-1.8164 2.8723492,1.4300632 30.395038 0 1 0.56869,-1.99169 2.8723492,1.4300632 30.395038 0 1 2.24993,0.67501 z" />
        <path
           id="path19-0-6-8"
           style="fill:#141220;fill-opacity:1;stroke:#cbe6ad;stroke-width:0;stroke-dasharray:none;stroke-opacity:1"
           d="m 186.36554,162.47523 a 1.6867412,3.5568238 59.604962 0 1 2.76952,-0.86421 1.6867412,3.5568238 59.604962 0 1 0.64453,2.36479 1.6867412,3.5568238 59.604962 0 1 -4.4571,2.2624 l -8.3e-4,4e-5 a 1.6867412,3.5568238 59.604962 0 1 -0.64387,-2.36517 1.6867412,3.5568238 59.604962 0 1 1.68776,-1.39786 z m -0.276,0.51616 a 1.4300632,2.8723492 59.604962 0 0 -1.35571,1.14107 1.4300632,2.8723492 59.604962 0 0 0.56804,1.99208 l 8.3e-4,-5e-5 a 1.4300632,2.8723492 59.604962 0 0 3.60543,-1.8164 1.4300632,2.8723492 59.604962 0 0 -0.56869,-1.99169 1.4300632,2.8723492 59.604962 0 0 -2.24993,0.67501 z" />
        <path
           id="path19-0-6"
           style="fill:#d2a4a4;fill-opacity:1;stroke:#cbe6ad;stroke-width:0;stroke-dasharray:none;stroke-opacity:1"
           d="m 186.35602,162.59135 a 1.6867412,3.5568238 59.604962 0 1 2.76952,-0.86421 1.6867412,3.5568238 59.604962 0 1 0.64453,2.36479 1.6867412,3.5568238 59.604962 0 1 -4.4571,2.2624 l -8.3e-4,4e-5 a 1.6867412,3.5568238 59.604962 0 1 -0.64387,-2.36517 1.6867412,3.5568238 59.604962 0 1 1.68776,-1.39786 z m -0.276,0.51616 a 1.4300632,2.8723492 59.604962 0 0 -1.35571,1.14107 1.4300632,2.8723492 59.604962 0 0 0.56804,1.99208 l 8.3e-4,-5e-5 a 1.4300632,2.8723492 59.604962 0 0 3.60543,-1.8164 1.4300632,2.8723492 59.604962 0 0 -0.56869,-1.99169 1.4300632,2.8723492 59.604962 0 0 -2.24993,0.67501 z" />
      </g>
      <text
         xml:space="preserve"
         style="font-weight:bold;font-size:4.93889px;line-height:0.8;font-family:Raleway;-inkscape-font-specification:'Raleway Bold';text-align:center;text-anchor:middle;fill:#141220;fill-opacity:1;stroke:#cbe6ad;stroke-width:0;stroke-dasharray:none;stroke-opacity:1"
         x="198.68008"
         y="82.201645"
         id="text20-8-2-0-4"><tspan
           sodipodi:role="line"
           id="tspan20-7-5-8-2"
           style="font-style:normal;font-variant:normal;font-weight:900;font-stretch:normal;font-size:4.93889px;font-family:Cinzel;-inkscape-font-specification:'Cinzel Heavy';fill:#141220;fill-opacity:1;stroke:#cbe6ad;stroke-width:0;stroke-opacity:1"
           x="198.68008"
           y="82.201645">Birthday</tspan></text>
      <path
         style="fill:#141220;fill-opacity:1;stroke:#bf3e1d;stroke-width:0;stroke-dasharray:none"
         id="path1-1-9"
         sodipodi:type="arc"
         sodipodi:cx="197.87767"
         sodipodi:cy="97.133148"
         sodipodi:rx="5.1249356"
         sodipodi:ry="5.1249356"
         sodipodi:start="0.65778456"
         sodipodi:end="0.65751517"
         sodipodi:open="true"
         sodipodi:arc-type="arc"
         d="m 201.93328,100.26636 a 5.1249356,5.1249356 0 0 1 -7.18854,0.92261 5.1249356,5.1249356 0 0 1 -0.9231,-7.188483 5.1249356,5.1249356 0 0 1 7.18842,-0.923582 5.1249356,5.1249356 0 0 1 0.92406,7.188355" />
      <rect
         style="fill:#141220;fill-opacity:1;stroke:#bf3e1d;stroke-width:0;stroke-dasharray:none"
         id="rect2-9-1"
         width="5.2701764"
         height="19.524551"
         x="195.11809"
         y="100.45294" />
      <g
         id="g21"
         transform="matrix(-0.360045,0.62301783,0.62301783,0.360045,156.10828,-79.861647)">
        <path
           id="path13-3-8-56"
           style="fill:#141220;fill-opacity:1;stroke:#90b4d6;stroke-width:0;stroke-dasharray:none;stroke-opacity:1"
           d="m 198.48553,156.99131 a 6.2271903,4.5330797 85.043451 0 0 -1.47693,1.93578 6.2271903,4.5330797 85.043451 0 0 1.56809,8.63114 l 10e-4,8.4e-4 a 6.2271903,4.5330797 85.043451 0 0 0.42856,0.3363 6.6493727,4.5330797 85.043451 0 1 0.59227,0.76455 6.6493727,4.5330797 85.043451 0 1 -0.007,9.36219 l -0.001,0.001 a 6.6493727,4.5330797 85.043451 0 1 -0.44152,0.51913 6.2271903,4.5330797 85.043451 0 0 0.90729,-0.8723 l 4.3e-4,-0.001 a 6.2271903,4.5330797 85.043451 0 0 0.0593,-8.77228 6.2271903,4.5330797 85.043451 0 0 -0.52975,-0.6538 6.2271903,4.5330797 85.043451 0 0 0.0354,0.0192 6.6493727,4.5330797 85.043451 0 1 -0.0661,-0.0507 6.2271903,4.5330797 85.043451 0 0 -0.65763,-0.59706 6.6493727,4.5330797 85.043451 0 1 -1.42039,-9.00962 6.6493727,4.5330797 85.043451 0 1 1.00848,-1.6135 z" />
        <path
           id="path13-3-43"
           style="fill:#cbe6ad;fill-opacity:1;stroke:#90b4d6;stroke-width:0;stroke-dasharray:none;stroke-opacity:1"
           d="m 198.35881,156.97067 a 6.2271903,4.5330797 85.043451 0 0 -1.47693,1.93578 6.2271903,4.5330797 85.043451 0 0 1.56808,8.63114 l 0.001,8.3e-4 a 6.2271903,4.5330797 85.043451 0 0 0.42857,0.3363 6.6493727,4.5330797 85.043451 0 1 0.59227,0.76456 6.6493727,4.5330797 85.043451 0 1 -0.007,9.3622 l -0.001,0.001 a 6.6493727,4.5330797 85.043451 0 1 -0.44152,0.51913 6.2271903,4.5330797 85.043451 0 0 0.90729,-0.87231 l 4.3e-4,-0.001 a 6.2271903,4.5330797 85.043451 0 0 0.0593,-8.77229 6.2271903,4.5330797 85.043451 0 0 -0.52976,-0.65379 6.2271903,4.5330797 85.043451 0 0 0.0354,0.0192 6.6493727,4.5330797 85.043451 0 1 -0.0661,-0.0507 6.2271903,4.5330797 85.043451 0 0 -0.65763,-0.59706 6.6493727,4.5330797 85.043451 0 1 -1.42039,-9.00963 6.6493727,4.5330797 85.043451 0 1 1.00848,-1.61349 z" />
        <path
           id="path13-3-8-16-1"
           style="fill:#141220;fill-opacity:1;stroke:#90b4d6;stroke-width:0;stroke-dasharray:none;stroke-opacity:1"
           d="m 194.64565,159.2689 a 6.2271903,4.5330797 60.198141 0 0 -0.52688,2.37717 6.2271903,4.5330797 60.198141 0 0 5.0495,7.17344 l 0.001,3.7e-4 a 6.2271903,4.5330797 60.198141 0 0 0.5302,0.12509 6.6493727,4.5330797 60.198141 0 1 0.8587,0.44495 6.6493727,4.5330797 60.198141 0 1 3.92727,8.49866 l -0.001,0.001 a 6.6493727,4.5330797 60.198141 0 1 -0.18254,0.65661 6.2271903,4.5330797 60.198141 0 0 0.45681,-1.1728 l -4e-5,-0.001 a 6.2271903,4.5330797 60.198141 0 0 -3.63203,-7.98528 6.2271903,4.5330797 60.198141 0 0 -0.75543,-0.3707 6.2271903,4.5330797 60.198141 0 0 0.0402,0.002 6.6493727,4.5330797 60.198141 0 1 -0.0814,-0.0183 6.2271903,4.5330797 60.198141 0 0 -0.84762,-0.26548 6.6493727,4.5330797 60.198141 0 1 -5.07451,-7.57895 6.6493727,4.5330797 60.198141 0 1 0.23719,-1.88789 z" />
        <path
           id="path13-3-89-3"
           style="fill:#d2a4a4;fill-opacity:1;stroke:#90b4d6;stroke-width:0;stroke-dasharray:none;stroke-opacity:1"
           d="m 194.78291,159.25959 a 6.2271903,4.5330797 60.198141 0 0 -0.52688,2.37717 6.2271903,4.5330797 60.198141 0 0 5.04949,7.17344 l 0.001,3.6e-4 a 6.2271903,4.5330797 60.198141 0 0 0.53021,0.1251 6.6493727,4.5330797 60.198141 0 1 0.8587,0.44495 6.6493727,4.5330797 60.198141 0 1 3.92726,8.49865 l -0.001,0.001 a 6.6493727,4.5330797 60.198141 0 1 -0.18253,0.65659 6.2271903,4.5330797 60.198141 0 0 0.4568,-1.17278 l -3e-5,-0.001 a 6.2271903,4.5330797 60.198141 0 0 -3.63203,-7.98529 6.2271903,4.5330797 60.198141 0 0 -0.75543,-0.37068 6.2271903,4.5330797 60.198141 0 0 0.0402,0.002 6.6493727,4.5330797 60.198141 0 1 -0.0814,-0.0183 6.2271903,4.5330797 60.198141 0 0 -0.84763,-0.26548 6.6493727,4.5330797 60.198141 0 1 -5.07451,-7.57894 6.6493727,4.5330797 60.198141 0 1 0.2372,-1.88789 z" />
        <path
           id="path13-3-8-1-2"
           style="fill:#141220;fill-opacity:1;stroke:#90b4d6;stroke-width:0;stroke-dasharray:none;stroke-opacity:1"
           d="m 188.7523,162.81544 a 6.2271903,4.5330797 45.018073 0 1 2.43212,0.11551 6.2271903,4.5330797 45.018073 0 1 5.59665,6.75522 l -7e-5,0.001 a 6.2271903,4.5330797 45.018073 0 1 -0.0184,0.54444 6.6493727,4.5330797 45.018073 0 0 0.20396,0.94538 6.6493727,4.5330797 45.018073 0 0 7.16996,6.02016 l 0.002,-4.2e-4 a 6.6493727,4.5330797 45.018073 0 0 0.68149,-0.004 6.2271903,4.5330797 45.018073 0 1 -1.25157,0.13294 l -0.001,-3.5e-4 a 6.2271903,4.5330797 45.018073 0 1 -6.75206,-5.60054 6.2271903,4.5330797 45.018073 0 1 -0.15943,-0.82624 6.2271903,4.5330797 45.018073 0 1 -0.008,0.0395 6.6493727,4.5330797 45.018073 0 0 0.004,-0.0833 6.2271903,4.5330797 45.018073 0 1 -0.0337,-0.88758 6.6493727,4.5330797 45.018073 0 0 -5.98137,-6.8858 6.6493727,4.5330797 45.018073 0 0 -1.88396,-0.26662 z" />
        <path
           id="path13-3-9-36"
           style="fill:#90b4d6;fill-opacity:1;stroke:#90b4d6;stroke-width:0;stroke-dasharray:none;stroke-opacity:1"
           d="m 188.81806,162.70515 a 6.2271903,4.5330797 45.018073 0 1 2.43212,0.11552 6.2271903,4.5330797 45.018073 0 1 5.59665,6.75523 l -7e-5,0.001 a 6.2271903,4.5330797 45.018073 0 1 -0.0184,0.54446 6.6493727,4.5330797 45.018073 0 0 0.20396,0.94537 6.6493727,4.5330797 45.018073 0 0 7.16996,6.02016 l 0.002,-4.2e-4 a 6.6493727,4.5330797 45.018073 0 0 0.68149,-0.004 6.2271903,4.5330797 45.018073 0 1 -1.25157,0.13294 l -0.001,-3.4e-4 a 6.2271903,4.5330797 45.018073 0 1 -6.75206,-5.60054 6.2271903,4.5330797 45.018073 0 1 -0.15943,-0.82624 6.2271903,4.5330797 45.018073 0 1 -0.008,0.0395 6.6493727,4.5330797 45.018073 0 0 0.004,-0.0833 6.2271903,4.5330797 45.018073 0 1 -0.0337,-0.88759 6.6493727,4.5330797 45.018073 0 0 -5.98137,-6.88579 6.6493727,4.5330797 45.018073 0 0 -1.88396,-0.26661 z" />
        <path
           id="path12-7-1-7-0"
           style="fill:#141220;fill-opacity:1;stroke:#90b4d6;stroke-width:0;stroke-dasharray:none;stroke-opacity:1"
           d="m 201.32768,142.87642 a 6.5750118,8.1791675 16.86841 0 0 -3.64889,1.74483 6.5750118,8.1791675 16.86841 0 0 -2.13948,11.33019 6.5750118,8.1791675 16.86841 0 0 1.81958,2.00895 l -0.90594,0.94854 1.00388,0.54468 0.4814,-1.14679 a 6.5750118,8.1791675 16.86841 0 0 6.86741,-1.15747 l 10e-4,-0.001 a 6.5750118,8.1791675 16.86841 0 0 2.13835,-11.33054 6.5750118,8.1791675 16.86841 0 0 -5.61775,-2.94142 z" />
        <path
           id="path12-7-1-7-9-21"
           style="fill:#141220;fill-opacity:1;stroke:#90b4d6;stroke-width:0;stroke-dasharray:none;stroke-opacity:1"
           d="m 195.64615,142.90706 a 6.8008058,8.3065494 2.81644 0 1 2.9942,2.84958 6.8008058,8.3065494 2.81644 0 1 -1.6739,11.60143 6.8008058,8.3065494 2.81644 0 1 -2.45106,1.35291 l 0.57192,1.20398 -1.16481,0.20273 -0.09,-1.25905 a 6.8008058,8.3065494 2.81644 0 1 -6.34278,-3.31434 l -0.001,-0.002 a 6.8008058,8.3065494 2.81644 0 1 1.67513,-11.60141 6.8008058,8.3065494 2.81644 0 1 6.48233,-1.035 z" />
        <path
           id="path12-7-1-7-9-9-7"
           style="fill:#cbe6ad;fill-opacity:1;stroke:#90b4d6;stroke-width:0;stroke-dasharray:none;stroke-opacity:1"
           d="m 195.58808,142.99357 a 6.5750118,8.1791675 1.705489 0 1 2.90305,2.81623 6.5750118,8.1791675 1.705489 0 1 -1.58093,11.42151 6.5750118,8.1791675 1.705489 0 1 -2.36472,1.32473 l 0.55662,1.18769 -1.12516,0.19608 -0.091,-1.2404 a 6.5750118,8.1791675 1.705489 0 1 -6.14104,-3.28465 l -0.001,-0.002 a 6.5750118,8.1791675 1.705489 0 1 1.58213,-11.42149 6.5750118,8.1791675 1.705489 0 1 6.26206,-0.99882 z" />
        <path
           id="path12-7-1-7-9-5-9"
           style="fill:#141220;fill-opacity:1;stroke:#90b4d6;stroke-width:0;stroke-dasharray:none;stroke-opacity:1"
           d="m 177.93986,149.88478 a 8.3065494,6.8008058 47.574811 0 1 4.13171,-0.11969 8.3065494,6.8008058 47.574811 0 1 7.05935,9.35739 8.3065494,6.8008058 47.574811 0 1 -0.76515,2.69306 l 1.25762,0.44163 -0.67621,0.96987 -0.95743,-0.82259 a 8.3065494,6.8008058 47.574811 0 1 -6.81953,2.17021 l -0.002,-5.2e-4 a 8.3065494,6.8008058 47.574811 0 1 -7.05848,-9.35826 8.3065494,6.8008058 47.574811 0 1 3.8294,-5.33174 z" />
        <path
           id="path12-7-1-7-9-9-2-0"
           style="fill:#d2a4a4;fill-opacity:1;stroke:#90b4d6;stroke-width:0;stroke-dasharray:none;stroke-opacity:1"
           d="m 177.9604,149.98692 a 8.1791675,6.5750118 46.46386 0 1 4.04385,-0.0785 8.1791675,6.5750118 46.46386 0 1 6.99705,9.1647 8.1791675,6.5750118 46.46386 0 1 -0.72436,2.6119 l 1.23528,0.44104 -0.65302,0.93702 -0.9449,-0.80875 a 8.1791675,6.5750118 46.46386 0 1 -6.65637,2.04787 l -0.002,-5.4e-4 a 8.1791675,6.5750118 46.46386 0 1 -6.99621,-9.16553 8.1791675,6.5750118 46.46386 0 1 3.7,-5.14986 z" />
        <path
           id="path12-7-1-2-7"
           style="fill:#141220;fill-opacity:1;stroke:#90b4d6;stroke-width:0;stroke-dasharray:none;stroke-opacity:1"
           d="m 201.15473,143.07501 a 6.4501262,8.0403795 16.512388 0 0 -3.57661,1.71422 6.4501262,8.0403795 16.512388 0 0 -2.09149,11.1431 6.4501262,8.0403795 16.512388 0 0 1.78509,1.97697 l -0.88771,0.93249 0.98454,0.53628 0.47137,-1.12771 a 6.4501262,8.0403795 16.512388 0 0 6.73251,-1.13481 l 0.002,-0.001 a 6.4501262,8.0403795 16.512388 0 0 2.09039,-11.14343 6.4501262,8.0403795 16.512388 0 0 -5.50951,-2.89621 z" />
        <path
           id="path12-7-1-1"
           style="fill:#90b4d6;fill-opacity:1;stroke:#90b4d6;stroke-width:0;stroke-dasharray:none;stroke-opacity:1"
           d="m 201.34716,143.00992 a 6.4501262,8.0403795 16.512388 0 0 -3.57661,1.7142 6.4501262,8.0403795 16.512388 0 0 -2.0915,11.14311 6.4501262,8.0403795 16.512388 0 0 1.7851,1.97698 l -0.88771,0.93248 0.98454,0.53628 0.47137,-1.1277 a 6.4501262,8.0403795 16.512388 0 0 6.73251,-1.13481 l 0.001,-10e-4 a 6.4501262,8.0403795 16.512388 0 0 2.09039,-11.14344 6.4501262,8.0403795 16.512388 0 0 -5.50951,-2.8962 z" />
        <path
           id="rect16-6-1"
           style="fill:#f5f5f5;fill-opacity:1;stroke:#90b4d6;stroke-width:0"
           d="m 202.16912,143.31402 c 1.10949,0.34926 1.37309,0.23474 1.24985,-0.0919 1.06595,0.4694 1.84115,0.98506 2.37941,1.53846 0.32399,0.57275 -0.55279,0.26654 -1.24984,0.0919 -0.51967,-0.64972 -1.44537,-1.09617 -2.37942,-1.53846 z"
           sodipodi:nodetypes="ccccc" />
        <path
           id="rect16-6-7-8"
           style="fill:#f5f5f5;fill-opacity:1;stroke:#90b4d6;stroke-width:0"
           d="m 191.21024,144.11843 c 1.07415,-0.49227 1.16457,-0.93933 0.80512,-1.36565 1.14364,-0.24937 2.12075,-0.13943 2.96218,0.26334 0.7064,0.6429 -0.16764,0.98149 -0.80512,1.36564 -0.90866,-0.58174 -1.93422,-0.43006 -2.96218,-0.26333 z"
           sodipodi:nodetypes="ccccc" />
        <path
           id="rect16-6-2-2"
           style="fill:#f5f5f5;fill-opacity:1;stroke:#90b4d6;stroke-width:0"
           d="m 181.52196,155.4546 c 1.17799,0.092 1.47434,-0.25472 1.36747,-0.80202 1.12063,0.33805 1.92108,0.90911 2.46059,1.67014 0.30473,0.90521 -0.62363,0.77622 -1.36747,0.80201 -0.51125,-0.9501 -1.48122,-1.31611 -2.46059,-1.67013 z"
           sodipodi:nodetypes="ccccc" />
      </g>
      <rect
         style="fill:#141220;fill-opacity:1;stroke:#bf3e1d;stroke-width:0;stroke-dasharray:none"
         id="rect2-6-5-5"
         width="1.7428931"
         height="11.791798"
         x="104.54684"
         y="191.86856"
         transform="matrix(0,1,1,0,0,0)" />
      <rect
         style="fill:#141220;fill-opacity:1;stroke:#bf3e1d;stroke-width:0;stroke-dasharray:none"
         id="rect2-6-5-5-7"
         width="1.3784207"
         height="7.2740602"
         x="212.48242"
         y="80.350807"
         transform="matrix(0.66881966,0.74342468,0.75424618,-0.65659173,0,0)" />
      <rect
         style="fill:#141220;fill-opacity:1;stroke:#bf3e1d;stroke-width:0;stroke-dasharray:none"
         id="rect2-6-5-5-7-7"
         width="1.3784207"
         height="7.2740602"
         x="-47.234844"
         y="-213.83185"
         transform="matrix(-0.66881966,0.74342468,-0.75424618,-0.65659173,0,0)" />
      <path
         id="rect15-0"
         style="fill:#141220;fill-opacity:1;stroke:#90b4d6;stroke-width:0"
         d="m 197.55941,86.404513 4.12102,7.20624 -7.65648,-0.0403 c 1.08148,-2.45963 2.30388,-4.82425 3.53546,-7.16594 z"
         sodipodi:nodetypes="cccc" />
      <path
         id="rect15-0-8"
         style="fill:#cbe6ad;fill-opacity:1;stroke:#90b4d6;stroke-width:0"
         d="m 197.57927,86.766803 3.9341,6.8794 -7.30921,-0.0385 c 1.03243,-2.34807 2.19939,-4.60544 3.37511,-6.84092 z"
         sodipodi:nodetypes="cccc" />
      <path
         sodipodi:type="star"
         style="fill:#141220;fill-opacity:1;stroke:#cbe6ad;stroke-width:0;stroke-dasharray:none;stroke-opacity:1"
         id="path21"
         inkscape:flatsided="false"
         sodipodi:sides="12"
         sodipodi:cx="184.49725"
         sodipodi:cy="141.83321"
         sodipodi:r1="1.3348517"
         sodipodi:r2="1.7798023"
         sodipodi:arg1="0.7328151"
         sodipodi:arg2="0.99461449"
         inkscape:rounded="-3.469447e-18"
         inkscape:randomized="0"
         d="m 185.48944,142.72617 -0.0225,0.59949 -0.55691,-0.22303 -0.31923,0.50792 -0.37079,-0.4716 -0.53042,0.28025 -0.0853,-0.59381 -0.59948,-0.0225 0.22303,-0.55691 -0.50792,-0.31923 0.4716,-0.37078 -0.28025,-0.53042 0.59381,-0.0853 0.0225,-0.59949 0.55691,0.22303 0.31923,-0.50792 0.37078,0.4716 0.53042,-0.28025 0.0853,0.59381 0.59948,0.0225 -0.22302,0.55691 0.50792,0.31923 -0.4716,0.37079 0.28025,0.53042 z"
         inkscape:transform-center-x="2.324375e-06"
         inkscape:transform-center-y="-1.786875e-06"
         transform="translate(13.080339,-55.645182)" />
      <path
         sodipodi:type="star"
         style="fill:#90b4d6;fill-opacity:1;stroke:#cbe6ad;stroke-width:0;stroke-dasharray:none;stroke-opacity:1"
         id="path21-3"
         inkscape:flatsided="false"
         sodipodi:sides="12"
         sodipodi:cx="184.49725"
         sodipodi:cy="141.83321"
         sodipodi:r1="1.3348517"
         sodipodi:r2="1.7798023"
         sodipodi:arg1="0.7328151"
         sodipodi:arg2="0.99461449"
         inkscape:rounded="-3.469447e-18"
         inkscape:randomized="0"
         d="m 185.48944,142.72617 -0.0225,0.59949 -0.55691,-0.22303 -0.31923,0.50792 -0.37079,-0.4716 -0.53042,0.28025 -0.0853,-0.59381 -0.59948,-0.0225 0.22303,-0.55691 -0.50792,-0.31923 0.4716,-0.37078 -0.28025,-0.53042 0.59381,-0.0853 0.0225,-0.59949 0.55691,0.22303 0.31923,-0.50792 0.37078,0.4716 0.53042,-0.28025 0.0853,0.59381 0.59948,0.0225 -0.22302,0.55691 0.50792,0.31923 -0.4716,0.37079 0.28025,0.53042 z"
         inkscape:transform-center-x="2.4592718e-06"
         inkscape:transform-center-y="-2.0179476e-06"
         transform="matrix(0.90230761,0,0,0.90230761,31.104001,-41.756417)" />
    </g>
  </g>
</svg>
