<?xml version="1.0" encoding="UTF-8" standalone="no"?>
<!-- Created with Inkscape (http://www.inkscape.org/) -->

<svg
   width="201.96654mm"
   height="201.96654mm"
   viewBox="0 0 201.96654 201.96654"
   version="1.1"
   id="svg1"
   inkscape:version="1.3 (0e150ed6c4, 2023-07-21)"
   sodipodi:docname="Cater-Captain logo.svg"
   xmlns:inkscape="http://www.inkscape.org/namespaces/inkscape"
   xmlns:sodipodi="http://sodipodi.sourceforge.net/DTD/sodipodi-0.dtd"
   xmlns:xlink="http://www.w3.org/1999/xlink"
   xmlns="http://www.w3.org/2000/svg"
   xmlns:svg="http://www.w3.org/2000/svg">
  <sodipodi:namedview
     id="namedview1"
     pagecolor="#505050"
     bordercolor="#ffffff"
     borderopacity="1"
     inkscape:showpageshadow="0"
     inkscape:pageopacity="0"
     inkscape:pagecheckerboard="1"
     inkscape:deskcolor="#505050"
     inkscape:document-units="mm"
     inkscape:zoom="1"
     inkscape:cx="408"
     inkscape:cy="389.5"
     inkscape:window-width="2880"
     inkscape:window-height="1514"
     inkscape:window-x="-11"
     inkscape:window-y="-11"
     inkscape:window-maximized="1"
     inkscape:current-layer="layer1"
     showgrid="false"
     showguides="true">
    <inkscape:grid
       id="grid7"
       units="mm"
       originx="3.7162954"
       originy="3.7162949"
       spacingx="0.99999999"
       spacingy="0.99999999"
       empcolor="#0099e5"
       empopacity="0.30196078"
       color="#0099e5"
       opacity="0.14901961"
       empspacing="5"
       dotted="false"
       gridanglex="30"
       gridanglez="30"
       visible="false" />
  </sodipodi:namedview>
  <defs
     id="defs1">
    <linearGradient
       id="linearGradient7"
       inkscape:collect="always">
      <stop
         style="stop-color:#b79cc1;stop-opacity:1;"
         offset="0"
         id="stop7" />
      <stop
         style="stop-color:#b79cc1;stop-opacity:0;"
         offset="1"
         id="stop8" />
    </linearGradient>
    <linearGradient
       id="linearGradient48"
       inkscape:collect="always">
      <stop
         style="stop-color:#141220;stop-opacity:1;"
         offset="0"
         id="stop48" />
      <stop
         style="stop-color:#90b4d6;stop-opacity:1;"
         offset="1"
         id="stop49" />
    </linearGradient>
    <linearGradient
       inkscape:collect="always"
       xlink:href="#linearGradient48"
       id="linearGradient49"
       x1="163.35001"
       y1="235.97641"
       x2="-183.4164"
       y2="-191.59579"
       gradientUnits="userSpaceOnUse"
       gradientTransform="translate(-0.10502733,-0.09913545)" />
    <linearGradient
       inkscape:collect="always"
       xlink:href="#linearGradient7"
       id="linearGradient8"
       x1="330.57565"
       y1="395.58365"
       x2="172.6194"
       y2="199.79198"
       gradientUnits="userSpaceOnUse" />
  </defs>
  <g
     inkscape:label="Layer 1"
     inkscape:groupmode="layer"
     id="layer1"
     transform="translate(-23.734037,-64.929542)">
    <g
       id="g8">
      <rect
         style="fill:#000000;fill-opacity:1;stroke:#000000;stroke-width:0"
         id="rect1"
         width="200"
         height="200"
         x="24.717306"
         y="65.912811" />
      <rect
         style="fill:url(#linearGradient49);fill-opacity:1;stroke:#000000;stroke-width:0"
         id="rect1-4"
         width="200"
         height="200"
         x="24.717306"
         y="65.912811" />
      <rect
         style="opacity:0.643939;fill:url(#linearGradient8);fill-opacity:1;stroke:#000000;stroke-width:1.96654"
         id="rect2"
         width="200"
         height="200"
         x="24.717306"
         y="65.912811" />
      <g
         id="g7">
        <text
           xml:space="preserve"
           style="font-size:22.5778px;line-height:0.8;font-family:'Raleway Dots';-inkscape-font-specification:'Raleway Dots';text-align:center;text-anchor:middle;fill:#ffffff;fill-opacity:1;stroke:#000000;stroke-width:0;stroke-dasharray:none"
           x="125.10626"
           y="183.5798"
           id="text1"><tspan
             sodipodi:role="line"
             id="tspan1"
             style="font-style:normal;font-variant:normal;font-weight:bold;font-stretch:normal;font-size:22.5778px;font-family:Cinzel;-inkscape-font-specification:'Cinzel Bold';fill:#ffffff;fill-opacity:1;stroke-width:0;stroke-dasharray:none"
             x="125.10626"
             y="183.5798">Cater-Captain</tspan></text>
        <g
           id="g4">
          <path
             id="rect7-3"
             style="fill:#cbe6ad;fill-opacity:1;stroke:#f0dfad;stroke-width:0;stroke-dasharray:none;stroke-opacity:1"
             d="m 146.42731,144.6024 8.72678,-2.58675 c -6.23063,5.8173 -15.56984,13.11807 -31.29046,14.0434 l -0.67654,-2.03293 -18.00076,4.34844 -0.24287,-1.47578 z"
             sodipodi:nodetypes="ccccccc" />
          <g
             id="g2">
            <path
               id="path13-8-5-4"
               style="fill:#cbe6ad;fill-opacity:1;stroke:#000000;stroke-width:0"
               d="m 50.296317,152.63484 c 0.07514,-0.0254 1.485977,-1.14893 1.674469,-1.61264 0.356399,-0.87677 0.828655,-2.37601 0.987309,-2.44888 2.122619,-0.97493 3.82266,-0.67824 4.223521,-1.38896 0.07106,-0.12598 0.354132,-0.34567 0.164805,-0.43543 -0.793687,-0.37634 -3.842939,0.11438 -4.96112,-0.79936 -0.784011,-0.64066 -1.9432,-2.32269 -3.045724,-2.72132 -0.639507,-0.23116 -1.384806,0.70165 -2.072214,0.64458 -1.223208,-0.10158 -2.651182,-0.91553 -3.888867,-0.91964 -1.070556,-0.004 -2.189958,0.51972 -2.389441,1.53908 -0.140137,0.71662 -0.913413,-0.40541 -1.083582,-0.34842 -0.989538,0.33137 -0.714726,1.41399 -1.320078,1.91034 -1.855928,1.52171 -2.933695,3.00659 -0.770574,4.77468 0.437771,0.35783 1.210248,-0.0859 1.759415,0.19812 0.736482,0.38099 1.275727,-0.60348 2.124472,-0.29664 0.351473,0.127 0.481862,1.00175 0.853616,1.15008 0.629898,0.25134 1.45184,-0.65887 2.13744,-0.48092 0.853489,0.22153 1.189495,-1.38167 2.013774,-1.08382 0.37998,0.1372 0.593495,0.59157 1.042199,0.99304 0.357387,0.31976 1.136569,-0.54012 1.532025,-0.28682 0.527884,0.33811 0.664077,1.73164 1.016607,1.61363"
               sodipodi:nodetypes="csssssssssssssssssssc" />
            <path
               id="path12-4-2"
               style="fill:#cbe6ad;fill-opacity:1;stroke:#000000;stroke-width:0"
               d="m 87.947161,153.39183 c 6.882284,1.66975 10.719344,4.63162 3.154223,4.95917 -7.565109,0.32753 -26.642062,-0.61866 -33.682002,-6.75059 -1.554504,-1.35401 0.15251,-8.18692 2.752743,-6.98032 5.232858,2.4282 0.307951,-1.00944 27.771247,8.76922"
               sodipodi:nodetypes="csssc" />
            <path
               id="path13-4-4"
               style="fill:#cbe6ad;fill-opacity:1;stroke:#000000;stroke-width:0"
               d="m 55.966693,137.20038 c 0.05201,0.0715 0.608122,2.01478 0.480248,2.56422 -0.241775,1.0389 -0.779739,2.72741 -0.682699,2.89651 1.528341,2.66316 3.507695,3.01811 2.604028,4.29977 -0.633096,0.8979 -3.211479,-2.36958 -4.815652,-2.24209 -1.124743,0.0894 -3.261503,0.9007 -4.519328,0.56216 -0.729587,-0.19638 -0.804664,-1.53649 -1.465485,-1.92454 -1.175847,-0.69049 -2.996883,-0.85388 -4.12305,-1.64373 -0.974101,-0.68319 -1.652825,-1.88467 -1.176696,-2.95472 0.334731,-0.75224 -1.090533,-0.21102 -1.208255,-0.3728 -0.684611,-0.94081 0.262877,-1.76521 0.03338,-2.61213 -0.703603,-2.59654 -0.724546,-4.66006 2.379005,-4.90714 0.628098,-0.05 1.043184,0.8555 1.724852,0.94509 0.91418,0.12014 0.768945,1.37582 1.737233,1.63648 0.400971,0.10792 1.083299,-0.61688 1.51639,-0.51559 0.733837,0.17162 0.893095,1.53995 1.630178,1.81511 0.917588,0.34256 0.188927,2.03977 1.129198,2.29306 0.433417,0.11678 0.92016,-0.16619 1.586328,-0.24953 0.530591,-0.0664 0.683473,1.22803 1.205742,1.24752 0.697203,0.026 1.719301,-1.17465 1.963224,-0.83952"
               sodipodi:nodetypes="cssssssssssssssssssc" />
          </g>
          <g
             id="g6"
             style="fill:#cbe6ad;fill-opacity:1"
             transform="translate(0.49706733,-9.6854971)">
            <g
               id="g3"
               transform="matrix(0.69279007,0,0,0.69279007,-17.28696,79.261797)"
               style="fill:#cbe6ad;fill-opacity:1">
              <path
                 id="path2"
                 style="fill:#cbe6ad;fill-opacity:1;stroke:#000000;stroke-width:0"
                 d="m 291.83177,107.42162 a 37.468296,8.5333557 0 0 0 -31.65543,3.3047 37.468296,8.5333557 0 0 0 6.74843,11.9693 37.468296,8.5333557 0 0 0 52.55544,-1.53582 l 0.006,-0.002 a 37.468296,8.5333557 0 0 0 -6.75566,-11.96878 37.468296,8.5333557 0 0 0 -20.89899,-1.76733 z m -0.11627,0.84284 a 36.025764,7.4236555 0 0 1 20.09438,1.53737 36.025764,7.4236555 0 0 1 6.49573,10.41229 l -0.006,0.002 a 36.025764,7.4236555 0 0 1 -50.53232,1.33687 36.025764,7.4236555 0 0 1 -6.48901,-10.4128 36.025764,7.4236555 0 0 1 30.4369,-2.87528 z" />
              <path
                 id="path2-5"
                 style="fill:#cbe6ad;fill-opacity:1;stroke:#000000;stroke-width:0"
                 d="m 291.32692,108.98509 a 33.996839,6.6607151 0 0 0 -28.72255,2.57948 33.996839,6.6607151 0 0 0 6.12318,9.34265 33.996839,6.6607151 0 0 0 47.68616,-1.19879 l 0.005,-0.002 a 33.996839,6.6607151 0 0 0 -6.12975,-9.34224 33.996839,6.6607151 0 0 0 -18.96268,-1.37949 z m -0.10554,0.65788 a 32.687958,5.794538 0 0 1 18.23262,1.19999 32.687958,5.794538 0 0 1 5.89391,8.12732 l -0.005,0.002 a 32.687958,5.794538 0 0 1 -45.85048,1.04351 32.687958,5.794538 0 0 1 -5.8878,-8.12773 32.687958,5.794538 0 0 1 27.61691,-2.2443 z" />
              <path
                 id="path3"
                 style="fill:#cbe6ad;fill-opacity:1;stroke:#000000;stroke-width:0"
                 d="m 307.27323,125.88015 c -8.12563,0.45466 -23.23892,0.53851 -33.75729,0.18729 -10.51842,-0.35122 -17.93414,-8.62326 -16.43753,-6.90371 5.47407,6.28952 56.3148,5.68287 65.0017,0.74883 3.40724,-1.93526 -6.68011,5.51262 -14.80291,5.96737"
                 sodipodi:nodetypes="csssc" />
            </g>
            <path
               id="path9"
               style="fill:#cbe6ad;fill-opacity:1;stroke:#000000;stroke-width:0;stroke-dasharray:none"
               d="m 208.47597,147.86904 c -0.53192,-0.0124 -1.63125,0.45299 -3.11121,1.42573 -2.81162,1.848 -6.63532,6.02545 -11.53761,9.72716 l -10e-4,-0.005 c -1.24366,1.49322 -5.08101,-0.93673 -6.7168,2.78554 -0.17853,0.40624 -0.28585,0.81109 -0.33136,1.20304 -0.067,0.83752 1.22271,1.2071 6.70791,0.12992 0.14174,-1.02107 0.24568,-2.0963 1.2688,-2.98512 5.44816,-4.73325 9.50129,-7.20234 11.83507,-9.25987 2.22983,-1.96585 2.66461,-3.00388 1.88718,-3.02171 z"
               sodipodi:nodetypes="csccsccsscc" />
          </g>
        </g>
        <g
           id="g5">
          <path
             id="rect6-4-0-3"
             style="fill:#d2a4a4;fill-opacity:1;stroke:#000000;stroke-width:0"
             d="m 136.23946,193.38932 65.06692,1.55443 v 0.99853 l -65.06692,1.4056 z"
             sodipodi:nodetypes="ccccc" />
          <path
             id="rect6-4-0-3-4"
             style="fill:#d2a4a4;fill-opacity:1;stroke:#000000;stroke-width:0"
             d="m 114.23935,193.42236 -65.066927,1.55443 v 0.99853 l 65.066927,1.4056 z"
             sodipodi:nodetypes="ccccc" />
          <path
             style="fill:#d2a4a4;fill-opacity:1;stroke:#000000;stroke-width:0;stroke-dasharray:none"
             id="path8-8-0"
             sodipodi:type="arc"
             sodipodi:cx="132.23476"
             sodipodi:cy="195.37943"
             sodipodi:rx="3"
             sodipodi:ry="3"
             sodipodi:start="0.65778456"
             sodipodi:end="0.65751517"
             sodipodi:open="true"
             sodipodi:arc-type="arc"
             d="m 134.6088,197.21352 a 3,3 0 0 1 -4.20798,0.54007 3,3 0 0 1 -0.54036,-4.20794 3,3 0 0 1 4.20791,-0.54064 3,3 0 0 1 0.54093,4.20787" />
          <path
             style="fill:#d2a4a4;fill-opacity:1;stroke:#000000;stroke-width:0;stroke-dasharray:none"
             id="path8-8-0-7"
             sodipodi:type="arc"
             sodipodi:cx="125.23611"
             sodipodi:cy="195.37564"
             sodipodi:rx="3"
             sodipodi:ry="3"
             sodipodi:start="0.65778456"
             sodipodi:end="0.65751517"
             sodipodi:open="true"
             sodipodi:arc-type="arc"
             d="m 127.61015,197.20974 a 3,3 0 0 1 -4.20798,0.54007 3,3 0 0 1 -0.54036,-4.20794 3,3 0 0 1 4.20791,-0.54065 3,3 0 0 1 0.54093,4.20788" />
          <path
             style="fill:#d2a4a4;fill-opacity:1;stroke:#000000;stroke-width:0;stroke-dasharray:none"
             id="path8-8-0-8"
             sodipodi:type="arc"
             sodipodi:cx="118.22764"
             sodipodi:cy="195.37436"
             sodipodi:rx="3"
             sodipodi:ry="3"
             sodipodi:start="0.65778456"
             sodipodi:end="0.65751517"
             sodipodi:open="true"
             sodipodi:arc-type="arc"
             d="m 120.60168,197.20845 a 3,3 0 0 1 -4.20798,0.54008 3,3 0 0 1 -0.54035,-4.20795 3,3 0 0 1 4.2079,-0.54064 3,3 0 0 1 0.54093,4.20788" />
        </g>
      </g>
    </g>
  </g>
</svg>
