<?xml version="1.0" encoding="UTF-8" standalone="no"?>
<!-- Created with Inkscape (http://www.inkscape.org/) -->

<svg
   width="55.91666mm"
   height="55.916668mm"
   viewBox="0 0 55.91666 55.916668"
   version="1.1"
   id="svg1"
   inkscape:version="1.3 (0e150ed6c4, 2023-07-21)"
   sodipodi:docname="Event type img icons.svg"
   xmlns:inkscape="http://www.inkscape.org/namespaces/inkscape"
   xmlns:sodipodi="http://sodipodi.sourceforge.net/DTD/sodipodi-0.dtd"
   xmlns="http://www.w3.org/2000/svg"
   xmlns:svg="http://www.w3.org/2000/svg">
  <sodipodi:namedview
     id="namedview1"
     pagecolor="#505050"
     bordercolor="#ffffff"
     borderopacity="1"
     inkscape:showpageshadow="0"
     inkscape:pageopacity="0"
     inkscape:pagecheckerboard="1"
     inkscape:deskcolor="#505050"
     inkscape:document-units="mm"
     inkscape:zoom="1"
     inkscape:cx="-519"
     inkscape:cy="442.5"
     inkscape:window-width="2880"
     inkscape:window-height="1514"
     inkscape:window-x="-11"
     inkscape:window-y="-11"
     inkscape:window-maximized="1"
     inkscape:current-layer="layer1" />
  <defs
     id="defs1" />
  <g
     inkscape:label="Layer 1"
     inkscape:groupmode="layer"
     id="layer1"
     transform="translate(-214.92736,37.440036)">
    <g
       id="g33"
       transform="translate(175.41875,-46.83125)">
      <rect
         style="fill:#f5f5f5;fill-opacity:1;stroke:#141220;stroke-width:3;stroke-dasharray:none;stroke-opacity:1"
         id="rect1-5"
         width="52.916668"
         height="52.916668"
         x="41.008617"
         y="10.891213"
         ry="8.1275444" />
      <rect
         style="fill:#141220;fill-opacity:1;stroke:#141220;stroke-width:0;stroke-dasharray:none;stroke-opacity:1"
         id="rect1-5-14"
         width="48.286461"
         height="19.050001"
         x="43.330761"
         y="41.164803"
         ry="2.9259162" />
      <path
         id="path7-8-3-5"
         style="fill:#000000;fill-opacity:1;stroke:#90b4d6;stroke-width:0;stroke-dasharray:none;stroke-opacity:1"
         d="m 66.378412,28.115337 a 15.349923,13.555909 0 0 0 -11.28184,5.248611 15.349923,13.555909 0 0 0 2.76456,19.014088 15.349923,13.555909 0 0 0 21.53048,-2.44148 l 0.001,-0.0017 a 15.349923,13.555909 0 0 0 -2.76823,-19.014069 15.349923,13.555909 0 0 0 -10.24675,-2.805514 z m 0.2365,2.904211 a 12.183572,10.759623 0 0 1 8.13437,2.226291 12.183572,10.759623 0 0 1 2.19664,15.092187 l -10e-4,0.0017 a 12.183572,10.759623 0 0 1 -17.08951,1.936681 12.183572,10.759623 0 0 1 -2.19482,-15.09219 12.183572,10.759623 0 0 1 8.95514,-4.164589 z" />
      <path
         id="path5-4-1"
         style="fill:#000000;fill-opacity:1;stroke:#90b4d6;stroke-width:0;stroke-dasharray:none;stroke-opacity:1"
         d="m 66.589872,21.01949 a 17.3515,17.278277 0 0 0 -12.75419,6.689291 17.3515,17.278277 0 0 0 3.12526,24.235233 17.3515,17.278277 0 0 0 24.33794,-3.110488 l 0.003,-0.0037 a 17.3515,17.278277 0 0 0 -3.1289,-24.23468 17.3515,17.278277 0 0 0 -11.58321,-3.575639 z m -0.0429,9.102056 a 13.079954,12.07366 0 0 1 8.73178,2.498729 13.079954,12.07366 0 0 1 2.35837,16.934707 l -0.002,0.0026 a 13.079954,12.07366 0 0 1 -18.34699,2.173379 13.079954,12.07366 0 0 1 -2.35573,-16.935235 13.079954,12.07366 0 0 1 9.61463,-4.674171 z" />
      <path
         id="path5-8"
         style="fill:#ffe680;fill-opacity:1;stroke:#90b4d6;stroke-width:0;stroke-dasharray:none;stroke-opacity:1"
         d="m 66.644392,21.361786 a 16.930473,16.930473 0 0 0 -12.44472,6.554638 16.930473,16.930473 0 0 0 3.04943,23.747388 16.930473,16.930473 0 0 0 23.74739,-3.047876 l 0.003,-0.0036 a 16.930473,16.930473 0 0 0 -3.05305,-23.746871 16.930473,16.930473 0 0 0 -11.30215,-3.503662 z m -0.0419,8.918835 a 12.762574,11.830622 0 0 1 8.5199,2.44843 12.762574,11.830622 0 0 1 2.30115,16.593819 l -0.002,0.0026 a 12.762574,11.830622 0 0 1 -17.90175,2.129585 12.762574,11.830622 0 0 1 -2.29857,-16.594336 12.762574,11.830622 0 0 1 9.38134,-4.580082 z" />
      <path
         style="fill:#ffffff;fill-opacity:1;stroke:#90b4d6;stroke-width:0;stroke-dasharray:none;stroke-opacity:1"
         id="path7-0"
         sodipodi:type="arc"
         sodipodi:cx="71.035294"
         sodipodi:cy="26.195244"
         sodipodi:rx="4.3296967"
         sodipodi:ry="4.3296967"
         sodipodi:start="0.65778456"
         sodipodi:end="0.65751517"
         sodipodi:open="true"
         sodipodi:arc-type="arc"
         d="m 74.461593,28.84227 a 4.3296967,4.3296967 0 0 1 -6.073094,0.779452 4.3296967,4.3296967 0 0 1 -0.779861,-6.073042 4.3296967,4.3296967 0 0 1 6.072989,-0.78027 4.3296967,4.3296967 0 0 1 0.780679,6.072936" />
      <path
         id="path7-8-15-3"
         style="fill:#000000;fill-opacity:1;stroke:#90b4d6;stroke-width:0;stroke-dasharray:none;stroke-opacity:1"
         d="m 70.703142,21.621681 a 4.5859727,4.5859727 0 0 0 -3.37058,1.775609 4.5859727,4.5859727 0 0 0 0.82594,6.432478 4.5859727,4.5859727 0 0 0 6.43248,-0.825954 l 5.5e-4,-5.47e-4 a 4.5859727,4.5859727 0 0 0 -0.82705,-6.432479 4.5859727,4.5859727 0 0 0 -3.06134,-0.949107 z m 0.0707,0.982496 a 3.6399873,3.6399873 0 0 1 2.43024,0.753156 3.6399873,3.6399873 0 0 1 0.65628,5.105698 l -5.5e-4,5.47e-4 a 3.6399873,3.6399873 0 0 1 -5.1057,0.655181 3.6399873,3.6399873 0 0 1 -0.65573,-5.105699 3.6399873,3.6399873 0 0 1 2.67546,-1.408883 z" />
      <path
         id="path7-8-1-6"
         style="fill:#808080;fill-opacity:1;stroke:#90b4d6;stroke-width:0;stroke-dasharray:none;stroke-opacity:1"
         d="m 70.806632,21.879572 a 4.3296967,4.3296967 0 0 0 -3.18223,1.676383 4.3296967,4.3296967 0 0 0 0.77979,6.073015 4.3296967,4.3296967 0 0 0 6.07302,-0.779798 l 5.1e-4,-5.17e-4 a 4.3296967,4.3296967 0 0 0 -0.78083,-6.073014 4.3296967,4.3296967 0 0 0 -2.89026,-0.896069 z m 0.0667,0.927592 a 3.4365754,3.4365754 0 0 1 2.29444,0.711067 3.4365754,3.4365754 0 0 1 0.6196,4.820378 l -5.2e-4,5.17e-4 a 3.4365754,3.4365754 0 0 1 -4.82038,0.618567 3.4365754,3.4365754 0 0 1 -0.61908,-4.820378 3.4365754,3.4365754 0 0 1 2.52594,-1.330151 z" />
      <path
         sodipodi:type="star"
         style="fill:#666666;fill-opacity:1;stroke:#90b4d6;stroke-width:0;stroke-dasharray:none;stroke-opacity:1"
         id="path6-6-4-7-8-4"
         inkscape:flatsided="false"
         sodipodi:sides="4"
         sodipodi:cx="149.42308"
         sodipodi:cy="22.884615"
         sodipodi:r1="16.762836"
         sodipodi:r2="3.2010901"
         sodipodi:arg1="0.58166358"
         sodipodi:arg2="1.3670617"
         inkscape:rounded="-3.469447e-18"
         inkscape:randomized="0"
         d="M 163.42927,32.094364 150.07075,26.019499 140.21333,36.8908 146.2882,23.532285 135.4169,13.674866 148.77541,19.74973 158.63283,8.8784301 152.55796,22.236944 Z"
         transform="matrix(0.20394336,0.1637046,-0.1637046,0.20394336,44.224362,-2.9848047)" />
      <path
         sodipodi:type="star"
         style="fill:#b3b3b3;fill-opacity:1;stroke:#90b4d6;stroke-width:0;stroke-dasharray:none;stroke-opacity:1"
         id="path6-6-4-7-92"
         inkscape:flatsided="false"
         sodipodi:sides="4"
         sodipodi:cx="149.42308"
         sodipodi:cy="22.884615"
         sodipodi:r1="16.762836"
         sodipodi:r2="3.2010901"
         sodipodi:arg1="0.58166358"
         sodipodi:arg2="1.3670617"
         inkscape:rounded="-3.469447e-18"
         inkscape:randomized="0"
         d="M 163.42927,32.094364 150.07075,26.019499 140.21333,36.8908 146.2882,23.532285 135.4169,13.674866 148.77541,19.74973 158.63283,8.8784301 152.55796,22.236944 Z"
         transform="matrix(0.25589629,-0.05393678,0.05393678,0.25589629,31.804442,28.533009)" />
      <path
         sodipodi:type="star"
         style="fill:#e6e6e6;fill-opacity:1;stroke:#90b4d6;stroke-width:0;stroke-dasharray:none;stroke-opacity:1"
         id="path6-6-4-8"
         inkscape:flatsided="false"
         sodipodi:sides="4"
         sodipodi:cx="149.42308"
         sodipodi:cy="22.884615"
         sodipodi:r1="16.762836"
         sodipodi:r2="3.2010901"
         sodipodi:arg1="0.58166358"
         sodipodi:arg2="1.3670617"
         inkscape:rounded="-3.469447e-18"
         inkscape:randomized="0"
         d="M 163.42927,32.094364 150.07075,26.019499 140.21333,36.8908 146.2882,23.532285 135.4169,13.674866 148.77541,19.74973 158.63283,8.8784301 152.55796,22.236944 Z"
         transform="matrix(0.2148105,-0.14915944,0.14915944,0.2148105,35.256242,43.548658)" />
      <path
         sodipodi:type="star"
         style="fill:#f2f2f2;fill-opacity:1;stroke:#90b4d6;stroke-width:0;stroke-dasharray:none;stroke-opacity:1"
         id="path6-6-9"
         inkscape:flatsided="false"
         sodipodi:sides="4"
         sodipodi:cx="149.42308"
         sodipodi:cy="22.884615"
         sodipodi:r1="16.762836"
         sodipodi:r2="3.2010901"
         sodipodi:arg1="0.58166358"
         sodipodi:arg2="1.3670617"
         inkscape:rounded="-3.469447e-18"
         inkscape:randomized="0"
         d="M 163.42927,32.094364 150.07075,26.019499 140.21333,36.8908 146.2882,23.532285 135.4169,13.674866 148.77541,19.74973 158.63283,8.8784301 152.55796,22.236944 Z"
         transform="matrix(0.26151881,0,0,0.26151881,32.060532,20.419242)" />
      <path
         id="path7-8-1-4-8"
         style="opacity:0.788168;fill:#b3b3b3;fill-opacity:1;stroke:#90b4d6;stroke-width:0;stroke-dasharray:none;stroke-opacity:1"
         d="m 70.818692,21.893865 a 4.3296967,4.3296967 0 0 0 -3.18223,1.676383 4.3296967,4.3296967 0 0 0 0.77979,6.073015 4.3296967,4.3296967 0 0 0 6.07302,-0.779798 l 5.1e-4,-5.17e-4 a 4.3296967,4.3296967 0 0 0 -0.78083,-6.073014 4.3296967,4.3296967 0 0 0 -2.89026,-0.896069 z m 0.0667,0.927592 a 3.4365754,3.4365754 0 0 1 2.29444,0.711067 3.4365754,3.4365754 0 0 1 0.6196,4.820378 l -5.2e-4,5.17e-4 a 3.4365754,3.4365754 0 0 1 -4.82038,0.618567 3.4365754,3.4365754 0 0 1 -0.61908,-4.820378 3.4365754,3.4365754 0 0 1 2.52594,-1.330151 z" />
      <path
         style="opacity:0.316794;fill:#00ffff;fill-opacity:1;stroke:#90b4d6;stroke-width:0;stroke-dasharray:none;stroke-opacity:1"
         id="path7-2-1"
         sodipodi:type="arc"
         sodipodi:cx="71.03511"
         sodipodi:cy="26.186375"
         sodipodi:rx="4.3296967"
         sodipodi:ry="4.3296967"
         sodipodi:start="0.65778456"
         sodipodi:end="0.65751517"
         sodipodi:open="true"
         sodipodi:arc-type="arc"
         d="m 74.46141,28.8334 a 4.3296967,4.3296967 0 0 1 -6.073094,0.779452 4.3296967,4.3296967 0 0 1 -0.779861,-6.073042 4.3296967,4.3296967 0 0 1 6.072989,-0.78027 4.3296967,4.3296967 0 0 1 0.780679,6.072937" />
      <path
         sodipodi:type="star"
         style="fill:#e6e6e6;fill-opacity:1;stroke:#90b4d6;stroke-width:0;stroke-dasharray:none;stroke-opacity:1"
         id="path6-0-0"
         inkscape:flatsided="false"
         sodipodi:sides="4"
         sodipodi:cx="149.42308"
         sodipodi:cy="22.884615"
         sodipodi:r1="22.864927"
         sodipodi:r2="3.2010901"
         sodipodi:arg1="1.0471976"
         sodipodi:arg2="1.8325957"
         inkscape:rounded="-3.469447e-18"
         inkscape:randomized="0"
         d="M 160.85554,42.686223 148.59458,25.976631 129.62147,34.317078 146.33106,22.056112 137.99062,3.0830065 150.25158,19.792599 169.22469,11.452152 152.5151,23.713118 Z"
         transform="matrix(0.18155528,0,0,0.18155528,43.730182,21.926691)" />
      <path
         id="path7-8-4-3"
         style="fill:#ffffff;fill-opacity:1;stroke:#90b4d6;stroke-width:0;stroke-dasharray:none;stroke-opacity:1"
         d="m 70.812392,21.830942 a 4.3296967,4.3296967 0 0 0 -3.18223,1.676383 4.3296967,4.3296967 0 0 0 0.77979,6.073015 4.3296967,4.3296967 0 0 0 6.07302,-0.779798 l 5.1e-4,-5.17e-4 a 4.3296967,4.3296967 0 0 0 -0.78083,-6.073014 4.3296967,4.3296967 0 0 0 -2.89026,-0.896069 z m 0.0667,0.927592 a 3.4365754,3.4365754 0 0 1 2.29444,0.711067 3.4365754,3.4365754 0 0 1 0.6196,4.820378 l -5.2e-4,5.17e-4 a 3.4365754,3.4365754 0 0 1 -4.82038,0.618567 3.4365754,3.4365754 0 0 1 -0.61908,-4.820378 3.4365754,3.4365754 0 0 1 2.52594,-1.330151 z" />
      <path
         sodipodi:type="star"
         style="fill:#ffffff;fill-opacity:1;stroke:#141220;stroke-width:0.763604;stroke-dasharray:none;stroke-opacity:1"
         id="path6-7-6"
         inkscape:flatsided="false"
         sodipodi:sides="4"
         sodipodi:cx="149.42308"
         sodipodi:cy="22.884615"
         sodipodi:r1="22.864927"
         sodipodi:r2="3.2010901"
         sodipodi:arg1="1.0471976"
         sodipodi:arg2="1.8325957"
         inkscape:rounded="-3.469447e-18"
         inkscape:randomized="0"
         d="M 160.85554,42.686223 148.59458,25.976631 129.62147,34.317078 146.33106,22.056112 137.99062,3.0830065 150.25158,19.792599 169.22469,11.452152 152.5151,23.713118 Z"
         transform="matrix(0.25955587,-0.03508137,0.03508137,0.25955587,33.952522,23.051191)" />
      <text
         xml:space="preserve"
         style="font-weight:bold;font-size:4.93889px;line-height:0.8;font-family:Raleway;-inkscape-font-specification:'Raleway Bold';text-align:center;text-anchor:middle;fill:#141220;fill-opacity:1;stroke:#cbe6ad;stroke-width:0;stroke-dasharray:none;stroke-opacity:1"
         x="67.487312"
         y="16.505739"
         id="text20"><tspan
           sodipodi:role="line"
           id="tspan20"
           style="font-style:normal;font-variant:normal;font-weight:900;font-stretch:normal;font-size:4.93889px;font-family:Cinzel;-inkscape-font-specification:'Cinzel Heavy';fill:#141220;fill-opacity:1;stroke:#cbe6ad;stroke-width:0;stroke-opacity:1"
           x="67.487312"
           y="16.505739">Engagement</tspan></text>
    </g>
  </g>
</svg>
