<?xml version="1.0" encoding="UTF-8" standalone="no"?>
<!-- Created with Inkscape (http://www.inkscape.org/) -->

<svg
   width="52.916664mm"
   height="52.916634mm"
   viewBox="0 0 52.916669 52.916635"
   version="1.1"
   id="svg1"
   xmlns="http://www.w3.org/2000/svg"
   xmlns:svg="http://www.w3.org/2000/svg">
  <defs
     id="defs1" />
  <g
     id="layer1"
     transform="translate(727.61904,-10769.781)">
    <g
       id="g20-1-5"
       transform="matrix(0.49999992,0,0,0.49999992,-522.95197,6153.9982)">
      <path
         id="rect1-0-1-4-0-7-1-8-5-7-1-1-0-7-8-82-6-3"
         style="fill:#f9f7f1;stroke:#cbe6ad;stroke-width:0"
         d="m -409.3342,9231.5674 h 105.83335 v 105.8333 H -409.3342 Z" />
      <g
         id="g19-2-2">
        <g
           id="g18-7-4">
          <path
             style="font-size:4.44909px;line-height:0.8;font-family:Raleway;-inkscape-font-specification:Raleway;text-align:center;letter-spacing:0.570343px;text-anchor:middle;fill:#333333;stroke:#cbe6ad;stroke-width:0"
             d="m -388.15996,9321.3457 v -3.1589 h 2.07328 v 0.2759 h -1.76184 v 1.1612 h 1.48599 v 0.2581 h -1.48599 v 1.4637 z m 3.97128,0.044 q -0.24915,0 -0.46271,-0.093 -0.2091,-0.098 -0.36482,-0.2625 -0.15127,-0.1691 -0.2358,-0.3827 -0.0845,-0.218 -0.0845,-0.4582 0,-0.2492 0.0845,-0.4627 0.0845,-0.218 0.24025,-0.3826 0.15572,-0.1691 0.36482,-0.2625 0.21356,-0.098 0.46271,-0.098 0.24915,0 0.45825,0.098 0.20911,0.093 0.36483,0.2625 0.15572,0.1646 0.24025,0.3826 0.0845,0.2135 0.0845,0.4627 0,0.2402 -0.0845,0.4582 -0.0845,0.2136 -0.24025,0.3827 -0.15127,0.1646 -0.36483,0.2625 -0.2091,0.093 -0.4627,0.093 z m -0.84088,-1.1924 q 0,0.2581 0.11123,0.4716 0.11568,0.2091 0.30699,0.3337 0.19131,0.1201 0.42266,0.1201 0.23135,0 0.42266,-0.1245 0.19131,-0.1246 0.30699,-0.3382 0.11568,-0.218 0.11568,-0.4716 0,-0.258 -0.11568,-0.4716 -0.11568,-0.2135 -0.30699,-0.3381 -0.19131,-0.1246 -0.42266,-0.1246 -0.23135,0 -0.42266,0.1291 -0.18687,0.129 -0.30254,0.3425 -0.11568,0.2091 -0.11568,0.4716 z m 4.22749,-0.9031 q -0.30253,0.01 -0.53389,0.169 -0.2269,0.1602 -0.32033,0.4405 v 1.4415 h -0.30254 v -2.318 h 0.28474 v 0.5562 q 0.12013,-0.2447 0.31589,-0.396 0.20021,-0.1513 0.42266,-0.1691 0.0445,0 0.0756,0 0.0356,0 0.0578,0 z m 2.49896,-1.1079 1.03219,1.6996 1.04109,-1.6996 h 0.33813 l -1.2235,1.9843 v 1.1746 h -0.31144 v -1.1835 l -1.21905,-1.9754 z m 3.96684,3.2034 q -0.24915,0 -0.46271,-0.093 -0.20911,-0.098 -0.36482,-0.2625 -0.15127,-0.1691 -0.23581,-0.3827 -0.0845,-0.218 -0.0845,-0.4582 0,-0.2492 0.0845,-0.4627 0.0845,-0.218 0.24025,-0.3826 0.15572,-0.1691 0.36483,-0.2625 0.21356,-0.098 0.46271,-0.098 0.24914,0 0.45825,0.098 0.20911,0.093 0.36483,0.2625 0.15571,0.1646 0.24025,0.3826 0.0845,0.2135 0.0845,0.4627 0,0.2402 -0.0845,0.4582 -0.0845,0.2136 -0.24025,0.3827 -0.15127,0.1646 -0.36483,0.2625 -0.20911,0.093 -0.4627,0.093 z m -0.84088,-1.1924 q 0,0.2581 0.11123,0.4716 0.11567,0.2091 0.30698,0.3337 0.19131,0.1201 0.42267,0.1201 0.23135,0 0.42266,-0.1245 0.19131,-0.1246 0.30699,-0.3382 0.11567,-0.218 0.11567,-0.4716 0,-0.258 -0.11567,-0.4716 -0.11568,-0.2135 -0.30699,-0.3381 -0.19131,-0.1246 -0.42266,-0.1246 -0.23136,0 -0.42267,0.1291 -0.18686,0.129 -0.30254,0.3425 -0.11567,0.2091 -0.11567,0.4716 z m 3.04848,0.1913 v -1.3614 h 0.30254 v 1.3081 q 0,0.3959 0.13347,0.5917 0.13792,0.1957 0.40487,0.1957 0.17796,0 0.34258,-0.076 0.16906,-0.08 0.29809,-0.2224 0.12902,-0.1469 0.19576,-0.3382 v -1.4593 h 0.30254 v 1.9532 q 0,0.062 0.0267,0.093 0.0267,0.027 0.0801,0.031 v 0.2402 q -0.0534,0 -0.0845,0 -0.0311,0 -0.0578,0 -0.089,-0.01 -0.15571,-0.071 -0.0623,-0.062 -0.0667,-0.1513 l -0.009,-0.3114 q -0.15127,0.267 -0.41376,0.4182 -0.25805,0.1513 -0.56059,0.1513 -0.36483,0 -0.55169,-0.2536 -0.18686,-0.2536 -0.18686,-0.7475 z m 4.39211,-1.0944 q -0.30254,0.01 -0.53389,0.169 -0.2269,0.1602 -0.32033,0.4405 v 1.4415 h -0.30254 v -2.318 h 0.28474 v 0.5562 q 0.12013,-0.2447 0.31589,-0.396 0.2002,-0.1513 0.42266,-0.1691 0.0445,0 0.0756,0 0.0356,0 0.0578,0 z m 2.95015,-0.5339 v 2.5849 h -0.31143 v -3.1589 h 0.25804 l 2.07328,2.6339 v -2.6294 h 0.31144 v 3.1544 h -0.28919 z m 4.59494,2.6294 q -0.24915,0 -0.46271,-0.093 -0.21355,-0.098 -0.36927,-0.2625 -0.15572,-0.1691 -0.2447,-0.3871 -0.0845,-0.218 -0.0845,-0.4672 0,-0.3247 0.14682,-0.5961 0.15127,-0.2714 0.41376,-0.4316 0.2625,-0.1646 0.59618,-0.1646 0.34258,0 0.59618,0.1646 0.25805,0.1646 0.40487,0.436 0.14682,0.267 0.14682,0.5873 0,0.036 0,0.071 0,0.031 -0.004,0.049 h -1.9843 q 0.0223,0.2492 0.13792,0.4449 0.12013,0.1913 0.30699,0.307 0.19131,0.1112 0.41377,0.1112 0.2269,0 0.42711,-0.1156 0.20466,-0.1157 0.28474,-0.3026 l 0.2625,0.071 q -0.0712,0.1646 -0.21801,0.2981 -0.14682,0.1335 -0.34703,0.2091 -0.19576,0.071 -0.42266,0.071 z m -0.85423,-1.3125 h 1.7129 q -0.0178,-0.2536 -0.13792,-0.4449 -0.11567,-0.1913 -0.30699,-0.2981 -0.18686,-0.1112 -0.41376,-0.1112 -0.2269,0 -0.41377,0.1112 -0.18686,0.1068 -0.30698,0.3026 -0.11568,0.1913 -0.13348,0.4404 z m 4.19191,-0.783 q -0.30254,0.01 -0.53389,0.169 -0.22691,0.1602 -0.32034,0.4405 v 1.4415 h -0.30254 v -2.318 h 0.28475 v 0.5562 q 0.12012,-0.2447 0.31588,-0.396 0.20021,-0.1513 0.42266,-0.1691 0.0445,0 0.0756,0 0.0356,0 0.0578,0 z m 1.66481,2.051 -0.93875,-2.318 h 0.31588 l 0.79194,2.0155 0.79639,-2.0155 h 0.29809 l -0.93876,2.318 z m 3.15972,0.044 q -0.24915,0 -0.4627,-0.093 -0.20911,-0.098 -0.36483,-0.2625 -0.15127,-0.1691 -0.2358,-0.3827 -0.0845,-0.218 -0.0845,-0.4582 0,-0.2492 0.0845,-0.4627 0.0845,-0.218 0.24025,-0.3826 0.15572,-0.1691 0.36483,-0.2625 0.21355,-0.098 0.4627,-0.098 0.24915,0 0.45826,0.098 0.2091,0.093 0.36482,0.2625 0.15572,0.1646 0.24025,0.3826 0.0845,0.2135 0.0845,0.4627 0,0.2402 -0.0845,0.4582 -0.0845,0.2136 -0.24025,0.3827 -0.15127,0.1646 -0.36482,0.2625 -0.20911,0.093 -0.46271,0.093 z m -0.84088,-1.1924 q 0,0.2581 0.11123,0.4716 0.11568,0.2091 0.30699,0.3337 0.19131,0.1201 0.42266,0.1201 0.23135,0 0.42267,-0.1245 0.19131,-0.1246 0.30698,-0.3382 0.11568,-0.218 0.11568,-0.4716 0,-0.258 -0.11568,-0.4716 -0.11567,-0.2135 -0.30698,-0.3381 -0.19132,-0.1246 -0.42267,-0.1246 -0.23135,0 -0.42266,0.1291 -0.18686,0.129 -0.30254,0.3425 -0.11568,0.2091 -0.11568,0.4716 z m 3.04849,0.1913 v -1.3614 h 0.30254 v 1.3081 q 0,0.3959 0.13347,0.5917 0.13792,0.1957 0.40487,0.1957 0.17796,0 0.34258,-0.076 0.16906,-0.08 0.29808,-0.2224 0.12903,-0.1469 0.19576,-0.3382 v -1.4593 h 0.30254 v 1.9532 q 0,0.062 0.0267,0.093 0.0267,0.027 0.0801,0.031 v 0.2402 q -0.0534,0 -0.0845,0 -0.0311,0 -0.0578,0 -0.089,-0.01 -0.15572,-0.071 -0.0623,-0.062 -0.0667,-0.1513 l -0.009,-0.3114 q -0.15127,0.267 -0.41377,0.4182 -0.25805,0.1513 -0.56058,0.1513 -0.36483,0 -0.55169,-0.2536 -0.18686,-0.2536 -0.18686,-0.7475 z m 3.99614,1.0011 q -0.28474,0 -0.52944,-0.093 -0.2447,-0.094 -0.42266,-0.2848 l 0.12457,-0.2135 q 0.19576,0.1824 0.39152,0.2669 0.20021,0.08 0.42266,0.08 0.2714,0 0.44046,-0.1068 0.16907,-0.1112 0.16907,-0.3159 0,-0.1379 -0.0845,-0.2091 -0.0801,-0.076 -0.23581,-0.1201 -0.15126,-0.049 -0.36482,-0.1023 -0.24025,-0.067 -0.40487,-0.138 -0.16016,-0.076 -0.2447,-0.1868 -0.0801,-0.1157 -0.0801,-0.2981 0,-0.2269 0.11123,-0.3737 0.11567,-0.1513 0.31143,-0.2269 0.20021,-0.08 0.44491,-0.08 0.26695,0 0.4716,0.085 0.20466,0.085 0.33369,0.2358 l -0.14682,0.2047 q -0.12458,-0.1424 -0.29809,-0.2091 -0.16907,-0.071 -0.37818,-0.071 -0.14237,0 -0.27139,0.04 -0.12902,0.036 -0.21356,0.1246 -0.0801,0.084 -0.0801,0.2358 0,0.1246 0.0623,0.1958 0.0623,0.067 0.18686,0.1156 0.12457,0.044 0.30699,0.098 0.26249,0.071 0.45825,0.1468 0.19576,0.071 0.30254,0.1869 0.10678,0.1157 0.10678,0.3248 0,0.3248 -0.2447,0.5072 -0.2447,0.1824 -0.64512,0.1824 z m 5.57198,-2.6116 q -0.0667,-0.076 -0.15572,-0.1335 -0.089,-0.062 -0.20021,-0.1068 -0.11123,-0.044 -0.24025,-0.071 -0.12458,-0.027 -0.26695,-0.027 -0.41376,0 -0.60952,0.1602 -0.19131,0.1557 -0.19131,0.4271 0,0.1869 0.089,0.2937 0.0934,0.1067 0.28919,0.1735 0.19576,0.067 0.4983,0.1379 0.33813,0.071 0.58283,0.1691 0.2447,0.098 0.37817,0.2669 0.13347,0.1646 0.13347,0.4494 0,0.218 -0.0845,0.3781 -0.0845,0.1602 -0.2358,0.267 -0.15127,0.1068 -0.36038,0.1602 -0.2091,0.049 -0.45825,0.049 -0.2447,0 -0.47161,-0.049 -0.22245,-0.053 -0.42266,-0.1513 -0.20021,-0.1023 -0.37372,-0.2581 l 0.15571,-0.2536 q 0.0845,0.089 0.20021,0.1691 0.12013,0.076 0.2625,0.1379 0.14682,0.062 0.31144,0.098 0.16906,0.031 0.34703,0.031 0.37817,0 0.58728,-0.138 0.21355,-0.1379 0.21355,-0.4093 0,-0.1957 -0.10678,-0.3114 -0.10677,-0.1201 -0.32033,-0.1958 -0.21356,-0.076 -0.52499,-0.1468 -0.32924,-0.076 -0.55614,-0.1691 -0.2269,-0.093 -0.34258,-0.2447 -0.11123,-0.1557 -0.11123,-0.4093 0,-0.2936 0.14237,-0.4938 0.14682,-0.2047 0.40042,-0.307 0.2536,-0.1068 0.58283,-0.1068 0.20911,0 0.38707,0.044 0.18242,0.04 0.33369,0.1201 0.15571,0.08 0.28919,0.2002 z m 1.41881,3.279 q 0.0623,0 0.12013,0 0.0578,0 0.0845,0 0.0534,-0.01 0.10233,-0.062 0.0489,-0.053 0.11567,-0.2047 0.0667,-0.1513 0.18687,-0.4449 l -1.00995,-2.318 h 0.32034 l 0.84977,2.0066 0.78304,-2.0066 h 0.30254 l -1.20125,2.9898 q -0.0312,0.085 -0.0934,0.1557 -0.0623,0.076 -0.15572,0.1157 -0.089,0.044 -0.22246,0.049 -0.04,0 -0.0845,0 -0.04,0 -0.0979,-0.01 z m 3.5494,-0.6674 q -0.28474,0 -0.52944,-0.093 -0.2447,-0.094 -0.42266,-0.2848 l 0.12457,-0.2135 q 0.19576,0.1824 0.39152,0.2669 0.20021,0.08 0.42267,0.08 0.27139,0 0.44046,-0.1068 0.16906,-0.1112 0.16906,-0.3159 0,-0.1379 -0.0845,-0.2091 -0.0801,-0.076 -0.2358,-0.1201 -0.15127,-0.049 -0.36483,-0.1023 -0.24025,-0.067 -0.40487,-0.138 -0.16016,-0.076 -0.2447,-0.1868 -0.0801,-0.1157 -0.0801,-0.2981 0,-0.2269 0.11123,-0.3737 0.11567,-0.1513 0.31143,-0.2269 0.20021,-0.08 0.44491,-0.08 0.26695,0 0.47161,0.085 0.20465,0.085 0.33368,0.2358 l -0.14682,0.2047 q -0.12458,-0.1424 -0.29809,-0.2091 -0.16907,-0.071 -0.37817,-0.071 -0.14237,0 -0.2714,0.04 -0.12902,0.036 -0.21355,0.1246 -0.0801,0.084 -0.0801,0.2358 0,0.1246 0.0623,0.1958 0.0623,0.067 0.18686,0.1156 0.12458,0.044 0.30699,0.098 0.26249,0.071 0.45825,0.1468 0.19576,0.071 0.30254,0.1869 0.10678,0.1157 0.10678,0.3248 0,0.3248 -0.2447,0.5072 -0.2447,0.1824 -0.64512,0.1824 z m 3.07073,-0.1557 q -0.0356,0.013 -0.11122,0.049 -0.0756,0.036 -0.18242,0.062 -0.10677,0.027 -0.23135,0.027 -0.12902,0 -0.2447,-0.049 -0.11123,-0.049 -0.17796,-0.1469 -0.0667,-0.1023 -0.0667,-0.2491 v -1.6595 h -0.32033 v -0.2403 h 0.32033 v -0.783 h 0.30254 v 0.783 h 0.53389 v 0.2403 h -0.53389 v 1.575 q 0.009,0.1245 0.089,0.1868 0.0845,0.062 0.19131,0.062 0.12458,0 0.22691,-0.04 0.10233,-0.044 0.12457,-0.062 z m 1.91056,0.1557 q -0.24915,0 -0.46271,-0.093 -0.21355,-0.098 -0.36927,-0.2625 -0.15572,-0.1691 -0.2447,-0.3871 -0.0845,-0.218 -0.0845,-0.4672 0,-0.3247 0.14682,-0.5961 0.15127,-0.2714 0.41376,-0.4316 0.2625,-0.1646 0.59618,-0.1646 0.34258,0 0.59618,0.1646 0.25805,0.1646 0.40487,0.436 0.14682,0.267 0.14682,0.5873 0,0.036 0,0.071 0,0.031 -0.004,0.049 h -1.9843 q 0.0222,0.2492 0.13792,0.4449 0.12013,0.1913 0.30699,0.307 0.19131,0.1112 0.41377,0.1112 0.2269,0 0.42711,-0.1156 0.20466,-0.1157 0.28474,-0.3026 l 0.2625,0.071 q -0.0712,0.1646 -0.21801,0.2981 -0.14682,0.1335 -0.34703,0.2091 -0.19576,0.071 -0.42266,0.071 z m -0.85423,-1.3125 h 1.7129 q -0.0178,-0.2536 -0.13792,-0.4449 -0.11567,-0.1913 -0.30699,-0.2981 -0.18686,-0.1112 -0.41376,-0.1112 -0.2269,0 -0.41377,0.1112 -0.18686,0.1068 -0.30698,0.3026 -0.11568,0.1913 -0.13348,0.4404 z m 6.48319,1.268 h -0.30254 v -1.2947 q 0,-0.4048 -0.12902,-0.5962 -0.12903,-0.1913 -0.38262,-0.1913 -0.2625,0 -0.47161,0.1869 -0.20466,0.1869 -0.28919,0.4805 v 1.4148 h -0.30254 v -1.2947 q 0,-0.4093 -0.12457,-0.5962 -0.12458,-0.1913 -0.38262,-0.1913 -0.25805,0 -0.46716,0.1824 -0.2091,0.1825 -0.29364,0.4805 v 1.4193 h -0.30253 v -2.318 h 0.27584 v 0.525 q 0.14682,-0.2714 0.37372,-0.4182 0.23135,-0.1468 0.51165,-0.1468 0.28919,0 0.46715,0.1646 0.17797,0.1646 0.21801,0.4316 0.16016,-0.2937 0.38262,-0.4449 0.2269,-0.1513 0.51164,-0.1513 0.19576,0 0.32924,0.071 0.13792,0.071 0.218,0.2046 0.0845,0.1291 0.12013,0.3159 0.04,0.1824 0.04,0.4093 z"
             id="text1-9-27-8-3-1-1-4-9-6-2-2-33-0-7-8-4-2-4"
             aria-label="For Your Nervous System" />
          <path
             style="font-size:10.3197px;line-height:0.8;font-family:Raleway;-inkscape-font-specification:Raleway;text-align:center;letter-spacing:1.32292px;text-anchor:middle;stroke:#cbe6ad;stroke-width:0"
             d="m -387.72137,9316.0566 v -7.3269 h 0.72238 v 7.3269 z m 3.85124,-7.3269 2.6212,6.4291 2.61089,-6.4291 h 0.75333 l -3.03399,7.3269 h -0.66046 l -3.04431,-7.3269 z m 8.40224,0 2.39417,3.9421 2.41481,-3.9421 h 0.7843 l -2.83792,4.6025 v 2.7244 h -0.72238 v -2.745 l -2.8276,-4.5819 z m 25.98145,7.3269 v -5.9647 l -2.65216,4.6335 h -0.45407 l -2.66248,-4.6335 v 5.9647 h -0.72238 v -7.3269 h 0.74302 l 2.85855,5.0153 2.8792,-5.0153 h 0.7327 v 7.3269 z m 16.07376,-5.9544 q -0.15479,-0.1755 -0.36119,-0.3096 -0.20639,-0.1445 -0.46438,-0.2477 -0.258,-0.1032 -0.55727,-0.1651 -0.28895,-0.062 -0.61918,-0.062 -0.95973,0 -1.4138,0.3715 -0.44375,0.3612 -0.44375,0.9907 0,0.4334 0.2064,0.6811 0.21671,0.2476 0.67078,0.4024 0.45407,0.1548 1.15581,0.32 0.78429,0.1651 1.35188,0.3921 0.56758,0.227 0.87717,0.6192 0.30959,0.3818 0.30959,1.0423 0,0.5056 -0.19607,0.8772 -0.19608,0.3715 -0.54695,0.6191 -0.35087,0.2477 -0.83589,0.3715 -0.48503,0.1136 -1.06293,0.1136 -0.56759,0 -1.09389,-0.1136 -0.51599,-0.1238 -0.98037,-0.3508 -0.46439,-0.2374 -0.86686,-0.5986 l 0.36119,-0.5882 q 0.19608,0.2064 0.46439,0.3922 0.27863,0.1754 0.60886,0.3199 0.34055,0.1444 0.72238,0.227 0.39215,0.072 0.80494,0.072 0.87717,0 1.3622,-0.3199 0.49534,-0.3199 0.49534,-0.9494 0,-0.4541 -0.24767,-0.7224 -0.24767,-0.2786 -0.74302,-0.454 -0.49534,-0.1755 -1.21772,-0.3406 -0.76366,-0.1754 -1.28996,-0.3921 -0.52631,-0.2167 -0.79462,-0.5676 -0.25799,-0.3612 -0.25799,-0.9494 0,-0.6811 0.33023,-1.1455 0.34055,-0.4747 0.92877,-0.7121 0.58822,-0.2476 1.35188,-0.2476 0.48503,0 0.89781,0.1032 0.42311,0.093 0.77398,0.2786 0.36119,0.1857 0.67078,0.4644 z m 7.58698,0 q -0.15479,-0.1755 -0.36119,-0.3096 -0.20639,-0.1445 -0.46438,-0.2477 -0.258,-0.1032 -0.55727,-0.1651 -0.28895,-0.062 -0.61918,-0.062 -0.95973,0 -1.4138,0.3715 -0.44375,0.3612 -0.44375,0.9907 0,0.4334 0.2064,0.6811 0.21671,0.2476 0.67078,0.4024 0.45406,0.1548 1.1558,0.32 0.7843,0.1651 1.35188,0.3921 0.56759,0.227 0.87718,0.6192 0.30959,0.3818 0.30959,1.0423 0,0.5056 -0.19607,0.8772 -0.19608,0.3715 -0.54695,0.6191 -0.35087,0.2477 -0.83589,0.3715 -0.48503,0.1136 -1.06293,0.1136 -0.56759,0 -1.09389,-0.1136 -0.51599,-0.1238 -0.98037,-0.3508 -0.46439,-0.2374 -0.86686,-0.5986 l 0.36119,-0.5882 q 0.19608,0.2064 0.46439,0.3922 0.27863,0.1754 0.60886,0.3199 0.34055,0.1444 0.72238,0.227 0.39215,0.072 0.80494,0.072 0.87717,0 1.3622,-0.3199 0.49534,-0.3199 0.49534,-0.9494 0,-0.4541 -0.24767,-0.7224 -0.24767,-0.2786 -0.74302,-0.454 -0.49534,-0.1755 -1.21772,-0.3406 -0.76366,-0.1754 -1.28997,-0.3921 -0.5263,-0.2167 -0.79461,-0.5676 -0.258,-0.3612 -0.258,-0.9494 0,-0.6811 0.33024,-1.1455 0.34055,-0.4747 0.92877,-0.7121 0.58822,-0.2476 1.35188,-0.2476 0.48502,0 0.89781,0.1032 0.42311,0.093 0.77398,0.2786 0.36119,0.1857 0.67078,0.4644 z"
             id="text1-9-27-8-3-1-1-9-2-7-2-1-7-8-4-5-7-4"
             aria-label="IVY   M  SS" />
          <g
             id="g17-65-2">
            <path
               id="text1-9-27-8-3-1-1-9-2-7-2-1-0-7-2-5-7-1-7"
               style="font-weight:900;font-size:10.3197px;line-height:0.8;font-family:Raleway;-inkscape-font-specification:'Raleway Heavy';text-align:center;letter-spacing:1.32292px;writing-mode:lr-tb;direction:ltr;text-anchor:middle;fill:#666666;stroke:#cbe6ad;stroke-width:0"
               d="m -343.53179,9308.6265 c -0.48846,0 -0.94252,0.1037 -1.36219,0.3101 -0.41966,0.1995 -0.78785,0.4744 -1.10432,0.8253 -0.30959,0.344 -0.55044,0.7398 -0.72244,1.187 -0.17199,0.4403 -0.25786,0.9047 -0.25786,1.3932 0,0.4678 0.0824,0.9253 0.24753,1.3725 0.16511,0.4403 0.39905,0.8391 0.70176,1.1968 0.30271,0.3509 0.66399,0.6297 1.08366,0.8361 0.41966,0.2064 0.88754,0.3096 1.40353,0.3096 0.48846,0 0.94252,-0.1 1.36219,-0.2992 0.41967,-0.1995 0.7844,-0.4715 1.09399,-0.8155 0.30959,-0.3508 0.55044,-0.7467 0.72244,-1.187 0.17199,-0.4472 0.25786,-0.9145 0.25786,-1.403 0,-0.4609 -0.0824,-0.9121 -0.24753,-1.3524 -0.16511,-0.4403 -0.39905,-0.839 -0.70176,-1.1968 -0.29584,-0.3577 -0.65366,-0.6435 -1.07332,-0.8568 -0.41967,-0.2133 -0.88755,-0.3199 -1.40354,-0.3199 z m -0.002,0.2259 c 1.76278,0 3.18171,1.5535 3.18171,3.4829 0,1.9295 -1.41893,3.4825 -3.18171,3.4825 -1.76278,0 -3.18224,-1.553 -3.18224,-3.4825 0,-1.9294 1.41946,-3.4829 3.18224,-3.4829 z" />
            <path
               id="rect7-3-8-6-6-3-7-7-1-1-39-9"
               style="fill:#666666;fill-opacity:1;stroke:#cbe6ad;stroke-width:0"
               d="m -363.03962,9308.7436 v 3.5476 h -2.93264 v 0.2315 h 2.93678 v 3.5507 h 0.25631 v -3.5502 h 2.91559 v -0.2315 h -2.91972 v -3.5481 z" />
          </g>
        </g>
        <path
           id="rect7-0-2-1-7-9-6-1-3-5-1-1-9-2"
           style="fill:#606a40;fill-opacity:1;stroke:#cbe6ad;stroke-width:0"
           d="m -356.4655,9246.6455 v 0 c -4.185,0 -7.55458,3.6235 -7.55458,8.1246 v 2.6551 c 0,2.8155 2.09725,5.5615 4.40748,7.0285 0.003,0 0.006,0.01 0.01,0.01 0.0139,0.01 0.027,0.015 0.0403,0.023 0.0356,0.022 0.0708,0.046 0.10645,0.068 0.39438,0.2708 0.46978,0.5858 0.26458,0.9426 -2.04371,2.986 -13.71798,4.4855 -16.3313,8.9452 -1.79551,3.0641 1.05256,7.3233 -0.18397,10.6526 -0.84165,2.266 -4.47192,3.1628 -4.63847,5.5743 -0.0497,0.72 0.78572,1.7179 1.26555,2.2293 -0.39641,-0.5087 -0.77535,-1.1289 -0.74155,-1.6185 0.16655,-2.4116 3.79682,-3.3082 4.63847,-5.5743 1.23653,-3.3292 -1.61154,-7.5885 0.18397,-10.6526 2.72022,-4.6421 15.2697,-6.0758 16.54421,-9.3183 h -0.004 c 0.0254,-0.086 0.0648,-0.1865 0.0889,-0.2976 0.0133,-0.076 0.0189,-0.1533 0.0196,-0.2315 -0.002,-0.027 -0.005,-0.053 -0.0103,-0.081 -0.0703,-0.3709 -0.23944,-0.5672 -0.53743,-0.7911 v 0 c 1.7e-4,0 3.4e-4,0 5.1e-4,0 -0.20529,-0.1548 -0.46732,-0.3203 -0.8077,-0.5685 l 5.2e-4,-5e-4 c -2.06999,-1.4157 -3.88969,-3.9009 -3.88969,-6.4456 v -2.4996 c 0,-4.2364 3.17132,-7.6471 7.11016,-7.6471 3.93885,0 7.10965,3.4107 7.10965,7.6471 v 2.4996 c 0,2.5174 -1.76984,4.9378 -3.76567,6.3583 h 0.004 c -0.43425,0.3728 -0.74595,0.587 -0.95912,0.8175 1.3e-4,0 4e-4,0 5.2e-4,0 -0.18047,0.1956 -0.29202,0.4035 -0.34468,0.7307 -0.0431,0.268 0.0449,0.5026 0.092,0.6852 1.44983,3.1855 13.81321,4.6334 16.51062,9.2366 1.79551,3.0641 -1.05256,7.3234 0.18397,10.6526 0.84165,2.266 4.47193,3.1629 4.63848,5.5744 0.0338,0.4896 -0.34515,1.1103 -0.74156,1.619 0.47983,-0.5115 1.31526,-1.5099 1.26556,-2.2299 -0.16655,-2.4115 -3.79683,-3.3083 -4.63848,-5.5743 -1.23653,-3.3292 1.61154,-7.5885 -0.18397,-10.6526 -2.635,-4.4967 -14.48405,-5.9833 -16.38246,-9.0191 -10e-4,0 -0.002,0 -0.003,-0.01 -0.21775,-0.4136 -0.0989,-0.7737 0.40876,-1.0765 0.011,-0.01 0.0168,-0.016 0.0181,-0.022 2.26229,-1.4652 4.35943,-4.177 4.35943,-7.0016 v -2.6552 c 0,-4.5011 -3.36905,-8.1245 -7.55406,-8.1245 z m -0.0145,19.5714 c -0.085,8e-4 -0.13419,0.1039 -0.14935,0.2341 -0.01,0.022 -0.0172,0.045 -0.0238,0.067 -0.66519,2.2492 -2.97705,7.0613 -4.90926,7.9778 -1.31507,0.6237 -3.25845,-0.5148 -4.34341,0.4552 -0.32397,0.2896 -0.38275,1.0718 -0.39067,1.494 0.0428,-0.386 0.13998,-0.8134 0.36019,-1.0103 0.54887,-0.4907 1.39137,-0.4328 2.26962,-0.3529 -0.68491,0.5998 -1.05072,1.734 -1.89239,2.1332 -0.71803,0.3408 -1.77859,-0.2808 -2.37091,0.2486 -0.17686,0.1581 -0.20912,0.5851 -0.21342,0.8154 0.0233,-0.2106 0.0761,-0.4439 0.19637,-0.5514 0.59244,-0.5297 1.65344,0.092 2.37143,-0.2485 0.97224,-0.4612 1.30916,-1.9031 2.23707,-2.3689 0.75324,0.066 1.50925,0.1015 2.10788,-0.2237 1.6322,-0.8868 3.77604,-4.3605 4.50102,-6.9495 -0.18847,3.4291 -0.1018,6.9706 -0.017,10.5172 -0.0408,0 -0.0813,0.01 -0.12093,0.016 -1.54801,0.3035 -2.12784,2.504 -3.59978,3.0717 -1.00178,0.3865 -2.36835,-0.5584 -3.21996,0.095 -0.2543,0.195 -0.34089,0.7673 -0.37,1.0775 0.0528,-0.2816 0.14804,-0.5907 0.32091,-0.7235 0.45655,-0.3504 1.06103,-0.2415 1.67794,-0.1245 -0.53028,0.4063 -0.86198,1.2106 -1.49862,1.4562 -0.54697,0.2109 -1.29315,-0.3043 -1.75803,0.052 -0.13884,0.1066 -0.18616,0.4188 -0.20206,0.5881 0.0288,-0.1535 0.0808,-0.3223 0.17518,-0.3948 0.46503,-0.357 1.21109,0.1587 1.75804,-0.051 0.73175,-0.282 1.05995,-1.3035 1.75079,-1.6092 0.45972,0.084 0.91723,0.1417 1.31672,-0.012 1.47194,-0.5677 2.05177,-2.768 3.59978,-3.0716 0.0579,-0.011 0.1175,-0.019 0.17777,-0.025 0.0389,1.6389 0.0698,3.2757 0.076,4.9051 -0.75604,0.707 -2.21455,0.4108 -3.01997,1.108 -0.57715,0.5025 -0.44109,1.6803 -1.13843,1.9973 -0.14191,0.065 -0.36719,0.016 -0.56276,-0.042 0.2051,0.084 0.59476,0.2226 0.80254,0.1276 0.69719,-0.317 0.56075,-1.4944 1.13998,-1.9957 0.72674,-0.6289 1.98468,-0.4503 2.77916,-0.9276 5.9e-4,0.3455 0.005,0.6922 0.003,1.0366 -0.0113,1.5502 -0.0249,3.1006 -0.0315,4.6509 -0.15294,0 -0.30984,0 -0.39326,0.011 -2.87281,0.3179 -4.26724,4.2472 -7.04143,5.0591 -1.16993,0.3422 -2.5176,-0.2691 -3.76721,-0.5312 -0.71769,-0.5663 -1.37634,-1.3507 -2.24121,-1.5168 -0.93741,-0.1797 -1.98334,0.8627 -2.83187,0.4253 -0.17217,-0.089 -0.3042,-0.3437 -0.3948,-0.5818 0.0744,0.2668 0.24024,0.754 0.49351,0.8842 0.84811,0.437 1.89493,-0.6051 2.83238,-0.4253 0.6906,0.1323 1.24956,0.6596 1.81229,1.1549 -0.64586,-0.1 -1.25841,-0.073 -1.79679,0.2734 -0.4941,0.3176 -0.73977,1.3487 -0.84025,1.9105 0.13932,-0.506 0.36023,-1.0553 0.69608,-1.2713 1.65494,-1.0638 4.00561,0.8703 5.89369,0.3178 2.77418,-0.8117 4.16923,-4.7419 7.04195,-5.0596 0.0653,-0.01 0.13181,-0.01 0.19844,-0.013 -0.0273,0.012 -0.0556,0.024 -0.0817,0.038 -2.09602,1.1114 -1.75401,4.1748 -3.59616,5.5857 -1.25383,0.9602 -3.75965,0.4 -4.64933,1.632 -0.26588,0.3668 -0.0832,1.133 0.0419,1.5399 -0.0751,-0.3817 -0.10314,-0.8182 0.0775,-1.0676 0.47668,-0.6582 1.41689,-0.8047 2.3797,-0.9457 -0.55345,0.7642 -0.60273,1.9388 -1.39888,2.5487 -0.68462,0.5241 -2.05164,0.2259 -2.53835,0.8914 -0.14537,0.1997 -0.0456,0.6188 0.0227,0.8408 -0.041,-0.208 -0.0564,-0.447 0.0424,-0.5829 0.4861,-0.6709 1.85365,-0.3673 2.53886,-0.8899 0.9152,-0.7009 0.84362,-2.1485 1.68517,-2.8608 0.71718,-0.1099 1.41758,-0.2504 1.91823,-0.6336 1.84218,-1.4112 1.49967,-4.4742 3.59564,-5.5857 0.0946,-0.05 0.19519,-0.094 0.29869,-0.1359 -0.002,1.4648 0.003,2.9291 0.0295,4.3935 0.0274,1.5017 0.11393,4.9956 0.0615,5.594 -0.0557,0.055 -0.11333,0.1045 -0.17466,0.1457 -0.87581,0.6078 -2.21637,-0.1471 -3.18431,0.2993 -0.65725,0.3054 -0.84272,1.4125 -1.56062,1.5177 -0.14616,0.022 -0.33886,-0.08 -0.50126,-0.1855 0.16435,0.131 0.48279,0.3596 0.69711,0.3266 0.71767,-0.105 0.90282,-1.2119 1.56166,-1.5157 0.9683,-0.4465 2.30852,0.3076 3.1843,-0.3002 0.0378,-0.035 0.0893,-0.06 0.12713,-0.099 v -6e-4 c 2.7e-4,0 7.6e-4,0 0.001,0 v 6e-4 c 0.0378,0.039 0.0893,0.064 0.12713,0.099 0.87579,0.6078 2.21599,-0.1463 3.1843,0.3002 0.65884,0.3038 0.8445,1.4107 1.56218,1.5157 0.21432,0.033 0.53277,-0.1956 0.69711,-0.3266 -0.16239,0.1052 -0.35561,0.2072 -0.50178,0.1855 -0.7179,-0.1052 -0.90337,-1.2123 -1.56063,-1.5177 -0.96793,-0.4464 -2.30797,0.3085 -3.18378,-0.2993 -0.0763,-0.051 -0.14774,-0.1152 -0.21549,-0.1865 -0.0745,-0.7208 0.18198,-4.0514 0.22066,-5.5532 0.0377,-1.4658 0.0297,-2.9318 0.0109,-4.3981 0.10404,0.042 0.20517,0.086 0.30024,0.1364 2.09598,1.1115 1.75346,4.1746 3.59565,5.5857 0.50064,0.3831 1.20104,0.5237 1.91822,0.6336 0.84155,0.7123 0.76945,2.1599 1.68466,2.8608 0.68521,0.5226 2.05328,0.2194 2.53938,0.8903 0.0988,0.1359 0.0834,0.3744 0.0424,0.5824 0.0683,-0.222 0.1681,-0.641 0.0227,-0.8407 -0.48672,-0.6655 -1.85374,-0.3674 -2.53835,-0.8915 -0.79616,-0.6098 -0.84543,-1.7844 -1.39888,-2.5486 0.96282,0.141 1.90302,0.2875 2.3797,0.9456 0.18065,0.2494 0.15272,0.686 0.0775,1.0677 0.1251,-0.4069 0.30772,-1.1732 0.0419,-1.54 -0.88968,-1.232 -3.39551,-0.6717 -4.64933,-1.6319 -1.84216,-1.4109 -1.50014,-4.4743 -3.59616,-5.5857 -0.0275,-0.015 -0.057,-0.027 -0.0858,-0.04 0.0805,0 0.16066,0.01 0.23926,0.017 2.87272,0.3176 4.26725,4.2475 7.04143,5.0591 1.88808,0.5525 4.23876,-1.3816 5.8937,-0.3178 0.33585,0.2159 0.55676,0.7653 0.69608,1.2713 -0.10048,-0.5618 -0.34616,-1.5929 -0.84026,-1.9105 -0.53865,-0.3462 -1.15159,-0.3727 -1.79782,-0.2729 0.56302,-0.4955 1.12238,-1.0231 1.81332,-1.1554 0.93745,-0.1798 1.98428,0.8623 2.83239,0.4253 0.25327,-0.1303 0.41909,-0.6175 0.49351,-0.8842 -0.0906,0.238 -0.22264,0.493 -0.39481,0.5818 -0.84853,0.4374 -1.89445,-0.6049 -2.83187,-0.4253 -0.86523,0.1661 -1.5242,0.951 -2.24224,1.5173 -1.24933,0.2623 -2.59655,0.8728 -3.76618,0.5307 -2.77419,-0.8118 -4.16862,-4.7412 -7.04143,-5.0591 -0.0934,-0.01 -0.27485,-0.01 -0.4408,-0.011 -0.0252,-1.5577 -0.0584,-3.1155 -0.0656,-4.6731 -0.002,-0.3333 0.002,-0.6683 0.002,-1.002 0.79462,0.4754 2.05063,0.2978 2.77658,0.926 0.57923,0.5013 0.44278,1.6788 1.13998,1.9958 0.20778,0.095 0.59745,-0.043 0.80254,-0.1277 -0.19556,0.058 -0.42085,0.107 -0.56276,0.042 -0.69735,-0.317 -0.56128,-1.4948 -1.13843,-1.9973 -0.80466,-0.6965 -2.26125,-0.4014 -3.01791,-1.1058 -10e-4,-1.6367 0.004,-3.2754 0.015,-4.916 0.061,0.01 0.12122,0.014 0.17983,0.025 1.54802,0.3036 2.12836,2.5039 3.6003,3.0716 0.39949,0.1541 0.85649,0.096 1.3162,0.012 0.69085,0.3057 1.01904,1.3272 1.7508,1.6092 0.54694,0.2094 1.293,-0.3063 1.75803,0.051 0.0943,0.073 0.14638,0.2413 0.17518,0.3948 -0.0159,-0.1693 -0.0632,-0.4815 -0.20205,-0.5881 -0.46489,-0.3565 -1.21105,0.1587 -1.75803,-0.052 -0.63664,-0.2456 -0.96783,-1.0499 -1.4981,-1.4562 0.61673,-0.117 1.2215,-0.2258 1.67793,0.1245 0.17287,0.1328 0.26759,0.4419 0.32039,0.7235 -0.0291,-0.3102 -0.1157,-0.8825 -0.37,-1.0775 -0.85161,-0.6534 -2.21818,0.2915 -3.21996,-0.095 -1.47194,-0.5677 -2.05177,-2.7682 -3.59978,-3.0717 -0.0422,-0.01 -0.0853,-0.013 -0.12867,-0.017 0.0227,-3.4934 0.041,-6.9837 -0.0424,-10.4309 0.74733,2.5794 2.8617,5.9871 4.47622,6.8642 0.59877,0.3252 1.35447,0.2895 2.10788,0.2237 0.92791,0.4658 1.26483,1.9077 2.23707,2.3689 0.71799,0.3405 1.77899,-0.2812 2.37143,0.2485 0.12025,0.1075 0.17307,0.3408 0.19637,0.5514 -0.004,-0.2303 -0.0366,-0.6573 -0.21342,-0.8154 -0.59232,-0.5294 -1.65289,0.092 -2.37092,-0.2486 -0.84166,-0.3992 -1.20747,-1.5334 -1.89239,-2.1332 0.87808,-0.08 1.72087,-0.1377 2.26963,0.3529 0.22021,0.1969 0.31739,0.6243 0.36019,1.0103 -0.008,-0.4222 -0.0672,-1.2044 -0.39119,-1.494 -1.08496,-0.97 -3.02782,0.1685 -4.34289,-0.4552 -1.93221,-0.9165 -4.24407,-5.7286 -4.90926,-7.9778 -3.5e-4,0 -6.9e-4,0 -10e-4,0 -0.0489,-0.1774 -0.11082,-0.2977 -0.16484,-0.2977 z" />
      </g>
    </g>
  </g>
</svg>
