<?xml version="1.0" encoding="UTF-8" standalone="no"?>
<!-- Created with Inkscape (http://www.inkscape.org/) -->

<svg
   width="55.916676mm"
   height="55.916679mm"
   viewBox="0 0 55.916676 55.916679"
   version="1.1"
   id="svg1"
   inkscape:version="1.3 (0e150ed6c4, 2023-07-21)"
   sodipodi:docname="Event type img icons.svg"
   xmlns:inkscape="http://www.inkscape.org/namespaces/inkscape"
   xmlns:sodipodi="http://sodipodi.sourceforge.net/DTD/sodipodi-0.dtd"
   xmlns="http://www.w3.org/2000/svg"
   xmlns:svg="http://www.w3.org/2000/svg">
  <sodipodi:namedview
     id="namedview1"
     pagecolor="#505050"
     bordercolor="#ffffff"
     borderopacity="1"
     inkscape:showpageshadow="0"
     inkscape:pageopacity="0"
     inkscape:pagecheckerboard="1"
     inkscape:deskcolor="#505050"
     inkscape:document-units="mm"
     inkscape:zoom="1"
     inkscape:cx="-519"
     inkscape:cy="442.5"
     inkscape:window-width="2880"
     inkscape:window-height="1514"
     inkscape:window-x="-11"
     inkscape:window-y="-11"
     inkscape:window-maximized="1"
     inkscape:current-layer="layer1" />
  <defs
     id="defs1" />
  <g
     inkscape:label="Layer 1"
     inkscape:groupmode="layer"
     id="layer1"
     transform="translate(-224.78396,-440.70275)">
    <g
       id="g37"
       transform="translate(186.53125,306.65208)">
      <rect
         style="fill:#f5f5f5;fill-opacity:1;stroke:#141220;stroke-width:3;stroke-dasharray:none;stroke-opacity:1"
         id="rect1-5-1-3"
         width="52.916668"
         height="52.916668"
         x="39.752708"
         y="135.55067"
         ry="8.1275444" />
      <path
         id="path12-2-8"
         style="fill:#141220;fill-opacity:1;stroke:#90b4d6;stroke-width:0;stroke-dasharray:none;stroke-opacity:1"
         d="m 55.388434,153.97429 a 2.4046841,2.3116339 0 0 0 -1.767603,0.89509 2.4046841,2.3116339 0 0 0 0.43343,3.24233 2.4046841,2.3116339 0 0 0 0.258363,0.16489 l -1.437941,0.0182 -1.694187,2.92476 8.751185,-0.0435 -1.897491,-2.94646 -1.252287,0.0156 a 2.4046841,2.3116339 0 0 0 0.645203,-0.54967 l 7.06e-4,-6.8e-4 a 2.4046841,2.3116339 0 0 0 -0.434135,-3.24233 2.4046841,2.3116339 0 0 0 -1.605243,-0.47841 z" />
      <path
         id="path12-2-8-5"
         style="fill:#141220;fill-opacity:1;stroke:#90b4d6;stroke-width:0;stroke-dasharray:none;stroke-opacity:1"
         d="m 67.348224,153.59926 a 2.4046841,2.3116339 0 0 0 -1.767603,0.89509 2.4046841,2.3116339 0 0 0 0.43343,3.24233 2.4046841,2.3116339 0 0 0 0.258363,0.16489 l -1.437941,0.0182 -1.694187,2.92476 8.751185,-0.0435 -1.897491,-2.94646 -1.252287,0.0156 a 2.4046841,2.3116339 0 0 0 0.645204,-0.54967 l 7.05e-4,-6.8e-4 a 2.4046841,2.3116339 0 0 0 -0.434135,-3.24233 2.4046841,2.3116339 0 0 0 -1.605243,-0.47841 z" />
      <path
         id="path12-2-8-0"
         style="fill:#141220;fill-opacity:1;stroke:#90b4d6;stroke-width:0;stroke-dasharray:none;stroke-opacity:1"
         d="m 78.647648,153.68452 a 2.4046841,2.3116339 0 0 0 -1.767603,0.89509 2.4046841,2.3116339 0 0 0 0.43343,3.24233 2.4046841,2.3116339 0 0 0 0.258364,0.16489 l -1.437942,0.0182 -1.694187,2.92475 8.751185,-0.0435 -1.897491,-2.94646 -1.252287,0.0156 a 2.4046841,2.3116339 0 0 0 0.645204,-0.54967 l 7.06e-4,-6.8e-4 a 2.4046841,2.3116339 0 0 0 -0.434136,-3.24233 2.4046841,2.3116339 0 0 0 -1.605243,-0.47841 z" />
      <path
         id="path12-2"
         style="fill:#90b4d6;fill-opacity:1;stroke:#90b4d6;stroke-width:0;stroke-dasharray:none;stroke-opacity:1"
         d="m 55.387307,154.36954 a 2.098294,2.098294 0 0 0 -1.542385,0.81247 2.098294,2.098294 0 0 0 0.378204,2.9431 2.098294,2.098294 0 0 0 0.225445,0.14968 l -1.254728,0.0166 -1.478325,2.65484 7.636163,-0.0395 -1.655724,-2.67453 -1.092729,0.0142 a 2.098294,2.098294 0 0 0 0.562996,-0.49893 l 6.17e-4,-6.2e-4 a 2.098294,2.098294 0 0 0 -0.378821,-2.9431 2.098294,2.098294 0 0 0 -1.400713,-0.43426 z" />
      <path
         id="path12-2-9"
         style="fill:#cbe6ad;fill-opacity:1;stroke:#90b4d6;stroke-width:0;stroke-dasharray:none;stroke-opacity:1"
         d="m 67.341712,153.9666 a 2.098294,2.098294 0 0 0 -1.542386,0.81248 2.098294,2.098294 0 0 0 0.378205,2.9431 2.098294,2.098294 0 0 0 0.225445,0.14967 l -1.254729,0.0166 -1.478324,2.65483 7.636163,-0.0394 -1.655724,-2.67454 -1.092729,0.0142 a 2.098294,2.098294 0 0 0 0.562996,-0.49894 l 6.16e-4,-6.2e-4 a 2.098294,2.098294 0 0 0 -0.37882,-2.9431 2.098294,2.098294 0 0 0 -1.400713,-0.43426 z" />
      <path
         id="path12-2-94"
         style="fill:#90b4d6;fill-opacity:1;stroke:#90b4d6;stroke-width:0;stroke-dasharray:none;stroke-opacity:1"
         d="m 78.674475,154.05023 a 2.098294,2.098294 0 0 0 -1.542386,0.81248 2.098294,2.098294 0 0 0 0.378205,2.94309 2.098294,2.098294 0 0 0 0.225444,0.14968 l -1.254728,0.0166 -1.478324,2.65483 7.636163,-0.0394 -1.655725,-2.67454 -1.092728,0.0142 a 2.098294,2.098294 0 0 0 0.562996,-0.49894 l 6.16e-4,-6.2e-4 a 2.098294,2.098294 0 0 0 -0.378821,-2.9431 2.098294,2.098294 0 0 0 -1.400712,-0.43426 z" />
      <text
         xml:space="preserve"
         style="font-weight:bold;font-size:4.93889px;line-height:0.8;font-family:Raleway;-inkscape-font-specification:'Raleway Bold';text-align:center;text-anchor:middle;fill:#141220;fill-opacity:1;stroke:#cbe6ad;stroke-width:0;stroke-dasharray:none;stroke-opacity:1"
         x="65.912659"
         y="141.84785"
         id="text20-8-2"><tspan
           sodipodi:role="line"
           id="tspan20-7-5"
           style="font-style:normal;font-variant:normal;font-weight:900;font-stretch:normal;font-size:4.93889px;font-family:Cinzel;-inkscape-font-specification:'Cinzel Heavy';fill:#141220;fill-opacity:1;stroke:#cbe6ad;stroke-width:0;stroke-opacity:1"
           x="65.912659"
           y="141.84785">Meeting</tspan></text>
      <rect
         style="fill:#141220;fill-opacity:1;stroke:#141220;stroke-width:0;stroke-dasharray:none;stroke-opacity:1"
         id="rect1-5-14-2-2-0"
         width="45.177605"
         height="15.222647"
         x="43.722397"
         y="159.79773"
         ry="2.3380675" />
      <rect
         style="fill:#d2a4a4;fill-opacity:1;stroke:#141220;stroke-width:0;stroke-dasharray:none;stroke-opacity:1"
         id="rect1-5-14-2-2"
         width="44.389164"
         height="14.355363"
         x="44.195454"
         y="160.30734"
         ry="2.2048604" />
      <path
         id="path12-2-4"
         style="fill:#cbe6ad;fill-opacity:1;stroke:#90b4d6;stroke-width:0;stroke-dasharray:none;stroke-opacity:1"
         d="m 80.540474,168.01766 a 2.3309115,2.3309115 0 0 0 -1.713375,0.90254 2.3309115,2.3309115 0 0 0 0.420132,3.26937 2.3309115,2.3309115 0 0 0 0.250438,0.16627 l -1.393828,0.0183 -1.642212,2.94916 8.48271,-0.0439 -1.839279,-2.97104 -1.213869,0.0157 a 2.3309115,2.3309115 0 0 0 0.62541,-0.55424 l 6.86e-4,-7e-4 a 2.3309115,2.3309115 0 0 0 -0.420818,-3.26937 2.3309115,2.3309115 0 0 0 -1.555995,-0.48241 z" />
      <path
         id="path12-2-3"
         style="fill:#90b4d6;fill-opacity:1;stroke:#90b4d6;stroke-width:0;stroke-dasharray:none;stroke-opacity:1"
         d="m 67.952554,168.10084 a 2.3309115,2.3309115 0 0 0 -1.713376,0.90254 2.3309115,2.3309115 0 0 0 0.420132,3.26938 2.3309115,2.3309115 0 0 0 0.250439,0.16627 l -1.393828,0.0183 -1.642212,2.94914 8.482711,-0.0439 -1.839279,-2.97103 -1.213868,0.0157 a 2.3309115,2.3309115 0 0 0 0.625409,-0.55425 l 6.85e-4,-6.9e-4 a 2.3309115,2.3309115 0 0 0 -0.420818,-3.26936 2.3309115,2.3309115 0 0 0 -1.555995,-0.48241 z" />
      <path
         id="path12-2-31"
         style="fill:#cbe6ad;fill-opacity:1;stroke:#90b4d6;stroke-width:0;stroke-dasharray:none;stroke-opacity:1"
         d="m 54.107797,168.16459 a 2.3309115,2.3309115 0 0 0 -1.713375,0.90255 2.3309115,2.3309115 0 0 0 0.420132,3.26936 2.3309115,2.3309115 0 0 0 0.250438,0.16627 l -1.393828,0.0184 -1.642212,2.94914 8.482711,-0.0439 -1.839279,-2.97104 -1.21387,0.0157 a 2.3309115,2.3309115 0 0 0 0.62541,-0.55424 l 6.86e-4,-6.9e-4 a 2.3309115,2.3309115 0 0 0 -0.420818,-3.26937 2.3309115,2.3309115 0 0 0 -1.555995,-0.4824 z" />
      <path
         id="path12-2-8-4"
         style="fill:#141220;fill-opacity:1;stroke:#90b4d6;stroke-width:0;stroke-dasharray:none;stroke-opacity:1"
         d="m 67.983339,168.33884 a 2.1058828,2.2338633 0 0 0 -1.547966,0.86496 2.1058828,2.2338633 0 0 0 0.379574,3.13325 2.1058828,2.2338633 0 0 0 0.226259,0.15935 l -1.259266,0.0178 -1.48367,2.82634 7.663781,-0.0421 -1.661713,-2.84733 -1.09668,0.0151 a 2.1058828,2.2338633 0 0 0 0.565031,-0.53119 l 6.17e-4,-6.6e-4 a 2.1058828,2.2338633 0 0 0 -0.38019,-3.13324 2.1058828,2.2338633 0 0 0 -1.405777,-0.46232 z" />
      <path
         id="path12-2-8-4-7"
         style="fill:#141220;fill-opacity:1;stroke:#90b4d6;stroke-width:0;stroke-dasharray:none;stroke-opacity:1"
         d="m 80.562367,168.2713 a 2.1058828,2.2338633 0 0 0 -1.547966,0.86494 2.1058828,2.2338633 0 0 0 0.379573,3.13325 2.1058828,2.2338633 0 0 0 0.226259,0.15934 l -1.259266,0.0178 -1.48367,2.82635 7.663781,-0.0421 -1.661713,-2.84733 -1.09668,0.0151 a 2.1058828,2.2338633 0 0 0 0.565031,-0.53118 l 6.17e-4,-6.7e-4 a 2.1058828,2.2338633 0 0 0 -0.38019,-3.13324 2.1058828,2.2338633 0 0 0 -1.405776,-0.46231 z" />
      <path
         id="path12-2-8-4-5"
         style="fill:#141220;fill-opacity:1;stroke:#90b4d6;stroke-width:0;stroke-dasharray:none;stroke-opacity:1"
         d="m 54.111799,168.40267 a 2.1058828,2.2338633 0 0 0 -1.547965,0.86495 2.1058828,2.2338633 0 0 0 0.379573,3.13325 2.1058828,2.2338633 0 0 0 0.22626,0.15934 l -1.259266,0.0178 -1.48367,2.82635 7.663779,-0.0421 -1.661711,-2.84733 -1.096681,0.0151 a 2.1058828,2.2338633 0 0 0 0.565031,-0.53117 l 6.17e-4,-6.7e-4 a 2.1058828,2.2338633 0 0 0 -0.380191,-3.13324 2.1058828,2.2338633 0 0 0 -1.405776,-0.46231 z" />
    </g>
  </g>
</svg>
