<?xml version="1.0" encoding="UTF-8" standalone="no"?>
<!-- Created with Inkscape (http://www.inkscape.org/) -->

<svg
   width="55.916676mm"
   height="55.916679mm"
   viewBox="0 0 55.916676 55.916679"
   version="1.1"
   id="svg1"
   inkscape:version="1.3 (0e150ed6c4, 2023-07-21)"
   sodipodi:docname="Event type img icons.svg"
   xmlns:inkscape="http://www.inkscape.org/namespaces/inkscape"
   xmlns:sodipodi="http://sodipodi.sourceforge.net/DTD/sodipodi-0.dtd"
   xmlns="http://www.w3.org/2000/svg"
   xmlns:svg="http://www.w3.org/2000/svg">
  <sodipodi:namedview
     id="namedview1"
     pagecolor="#505050"
     bordercolor="#ffffff"
     borderopacity="1"
     inkscape:showpageshadow="0"
     inkscape:pageopacity="0"
     inkscape:pagecheckerboard="1"
     inkscape:deskcolor="#505050"
     inkscape:document-units="mm"
     inkscape:zoom="1"
     inkscape:cx="-519"
     inkscape:cy="442.5"
     inkscape:window-width="2880"
     inkscape:window-height="1514"
     inkscape:window-x="-11"
     inkscape:window-y="-11"
     inkscape:window-maximized="1"
     inkscape:current-layer="layer1" />
  <defs
     id="defs1" />
  <g
     inkscape:label="Layer 1"
     inkscape:groupmode="layer"
     id="layer1"
     transform="translate(-226.15108,-561.3361)">
    <g
       id="g42"
       transform="translate(140.69068,520.85485)">
      <rect
         style="fill:#f5f5f5;fill-opacity:1;stroke:#141220;stroke-width:3;stroke-dasharray:none;stroke-opacity:1"
         id="rect1-5-3-9"
         width="52.916668"
         height="52.916668"
         x="86.960411"
         y="41.981251"
         ry="8.1275444" />
      <rect
         style="fill:#cbe6ad;fill-opacity:1;stroke:#141220;stroke-width:0;stroke-dasharray:none;stroke-opacity:1"
         id="rect41-30"
         width="49.918999"
         height="25.807222"
         x="88.470055"
         y="55.827084" />
      <path
         d="m 103.47668,63.956723 q 0.74757,0 1.28652,0.254987 0.54475,0.249192 0.8345,0.7186 0.28976,0.469408 0.28976,1.135851 0,0.660648 -0.28976,1.135852 -0.28975,0.469407 -0.8345,0.724395 -0.53895,0.249191 -1.28652,0.249191 -0.74758,0 -1.28653,-0.249191 -0.53895,-0.254988 -0.82871,-0.724395 -0.28975,-0.469408 -0.28975,-1.135852 0,-0.660648 0.28975,-1.130056 0.28976,-0.475203 0.82871,-0.724395 0.53895,-0.254987 1.28653,-0.254987 z m 0,3.929118 q 0.3593,0 0.60849,-0.214421 0.25499,-0.220216 0.38827,-0.625877 0.13329,-0.405661 0.13329,-0.979382 0,-0.573721 -0.13329,-0.979382 -0.13328,-0.405661 -0.38827,-0.620082 -0.24919,-0.220216 -0.60849,-0.220216 -0.35351,0 -0.6085,0.220216 -0.24919,0.214421 -0.38248,0.620082 -0.13328,0.405661 -0.13328,0.979382 0,0.573721 0.13328,0.979382 0.13329,0.405661 0.38248,0.625877 0.25499,0.214421 0.6085,0.214421 z m 5.1403,-3.8306 v 4.039226 h -1.188 v -4.039226 z m 1.37346,-0.02318 v 0.289758 h -3.93492 V 64.03206 Z m 0,0.272373 v 0.817117 l -0.058,-0.0058 v -0.04057 q 0,-0.34771 -0.19704,-0.544745 -0.19704,-0.202831 -0.55054,-0.208626 v -0.01738 z m 0,-0.376686 v 0.16806 l -0.70701,-0.06375 q 0.12749,0 0.26658,-0.01739 0.14487,-0.01739 0.26657,-0.04057 0.1217,-0.02318 0.17386,-0.04636 z m -2.54408,3.743673 v 0.423047 h -0.46361 v -0.05795 q 0,0 0.0348,0 0.0406,0 0.0406,0 0.15067,0 0.25498,-0.104313 0.11011,-0.110108 0.11591,-0.260783 z m 1.15324,0 h 0.0174 q 0.006,0.150675 0.11011,0.260783 0.11011,0.104313 0.26078,0.104313 0,0 0.0348,0 0.0406,0 0.0406,0 v 0.05795 h -0.46361 z m -1.73855,-3.366987 v 0.01738 q -0.3535,0.0058 -0.55054,0.208626 -0.19703,0.197035 -0.19703,0.544745 v 0.04057 l -0.058,0.0058 v -0.817117 z m -0.80553,-0.376686 q 0.058,0.02318 0.17386,0.04636 0.1217,0.02318 0.26658,0.04057 0.14488,0.01739 0.26657,0.01739 l -0.70701,0.06375 z m 8.54207,0.110108 v 4.056612 h -1.18801 v -4.056612 z m -2.74691,0 v 4.056612 h -1.188 v -4.056612 z m 1.61106,1.883427 v 0.289758 h -1.66901 v -0.289758 z m -2.78168,1.750138 v 0.423047 h -0.46361 v -0.05795 q 0,0 0.0348,0 0.0406,0 0.0406,0 0.15068,0 0.25499,-0.104313 0.11011,-0.110108 0.11591,-0.260783 z m 0,-3.210518 h -0.0174 q -0.006,-0.150674 -0.11591,-0.254987 -0.10431,-0.110108 -0.25499,-0.110108 0,0 -0.0406,0 -0.0348,0 -0.0348,0 v -0.05795 h 0.46361 z m 1.15324,3.210518 h 0.0174 q 0.006,0.150675 0.11011,0.260783 0.11011,0.104313 0.26078,0.104313 0,0 0.0348,0 0.0348,0 0.0406,0 v 0.05795 h -0.46361 z m 0,-3.210518 v -0.423047 h 0.46361 v 0.05795 q -0.006,0 -0.0406,0 -0.0348,0 -0.0348,0 -0.15067,0 -0.26078,0.110108 -0.10431,0.104313 -0.11011,0.254987 z m 1.59367,3.210518 v 0.423047 h -0.46362 v -0.05795 q 0.006,0 0.0406,0 0.0348,0 0.0348,0 0.15067,0 0.26078,-0.104313 0.11011,-0.110108 0.11011,-0.260783 z m 0,-3.210518 h -0.0174 q 0,-0.150674 -0.11011,-0.254987 -0.11011,-0.110108 -0.26078,-0.110108 0,0 -0.0348,0 -0.0348,0 -0.0406,0 v -0.05795 h 0.46362 z m 1.15323,3.210518 h 0.0174 q 0.006,0.150675 0.11011,0.260783 0.1101,0.104313 0.26078,0.104313 0,0 0.0348,0 0.0406,0 0.0406,0 v 0.05795 h -0.46362 z m 0,-3.210518 v -0.423047 h 0.46362 v 0.05795 q 0,0 -0.0406,0 -0.0348,0 -0.0348,0 -0.15068,0 -0.26078,0.110108 -0.10432,0.104313 -0.11011,0.254987 z m 2.44556,-0.423047 v 4.056612 h -1.18801 v -4.056612 z m 1.50674,3.761059 0.23181,0.295553 h -1.75594 v -0.295553 z m -0.19124,-1.848656 v 0.289758 h -1.33289 v -0.289758 z m 0.30714,-1.912403 v 0.295553 h -1.64003 v -0.295553 z m 0.35351,2.712135 -0.22022,1.344477 h -1.25175 l 0.20862,-0.295553 q 0.27817,0 0.51577,-0.121698 0.2434,-0.127494 0.42305,-0.3593 0.17965,-0.237602 0.26658,-0.567926 z m -0.66065,-0.521564 v 0.672238 h -0.058 v -0.02898 q 0,-0.272372 -0.17965,-0.446227 -0.17386,-0.17965 -0.44623,-0.185445 v -0.01159 z m 0,-0.938816 v 0.672238 h -0.68383 v -0.01159 q 0.27237,-0.0058 0.45202,-0.185445 0.17965,-0.17965 0.17386,-0.452023 v -0.02318 z m 0.30714,-0.973587 v 0.811322 h -0.0579 v -0.04636 q 0,-0.34771 -0.19703,-0.544745 -0.19704,-0.202831 -0.55054,-0.208626 v -0.01159 z m 0,-0.382481 v 0.16806 l -0.70701,-0.06375 q 0.1275,0 0.26658,-0.01738 0.14488,-0.01739 0.26658,-0.04057 0.1217,-0.02318 0.17385,-0.04636 z m -2.79326,3.737878 v 0.423047 h -0.46362 v -0.05795 q 0,0 0.0348,0 0.0406,0 0.0406,0 0.15067,0 0.25499,-0.104313 0.11011,-0.110108 0.1159,-0.260783 z m 0,-3.210518 h -0.0174 q -0.006,-0.150674 -0.1159,-0.254987 -0.10432,-0.110108 -0.25499,-0.110108 0,0 -0.0406,0 -0.0348,0 -0.0348,0 v -0.05795 h 0.46362 z m 4.99542,-0.423047 h 0.70122 q 0.26078,0 0.53315,0.04636 0.27238,0.04636 0.49839,0.168059 0.22601,0.115903 0.36509,0.330324 0.13909,0.214421 0.13909,0.55054 0,0.220217 -0.0811,0.457818 -0.0811,0.231807 -0.28396,0.411456 -0.19703,0.173855 -0.56213,0.231807 0.2434,0.06954 0.42305,0.237601 0.17965,0.16806 0.28396,0.341915 0.0116,0.01738 0.058,0.09852 0.0464,0.08113 0.1159,0.20283 0.0753,0.115903 0.15647,0.243397 0.0811,0.127493 0.16227,0.237601 0.13329,0.17965 0.2318,0.272373 0.0985,0.09272 0.19704,0.127493 0.10431,0.03477 0.2434,0.04057 v 0.05795 h -0.7244 q -0.34771,0 -0.64326,-0.04057 -0.29555,-0.04057 -0.53316,-0.17965 -0.2318,-0.139084 -0.41145,-0.440432 -0.0637,-0.104313 -0.10431,-0.208626 -0.0406,-0.104313 -0.0696,-0.20283 -0.029,-0.09852 -0.0521,-0.185446 -0.0174,-0.09272 -0.0348,-0.173854 -0.0174,-0.08693 -0.0406,-0.162265 -0.058,-0.208626 -0.13908,-0.283963 -0.0811,-0.07534 -0.16227,-0.104312 v -0.05795 q 0.0232,0 0.0522,0 0.029,0 0.0406,0 0.16227,0 0.28976,-0.07534 0.1275,-0.07534 0.21442,-0.231807 0.0869,-0.156469 0.11591,-0.405661 0.006,-0.04636 0.0116,-0.09852 0.006,-0.05795 0,-0.139084 -0.0232,-0.428842 -0.21442,-0.596902 -0.18545,-0.168059 -0.44623,-0.168059 -0.029,0 -0.0753,0 -0.0464,0 -0.0985,0 -0.0521,0 -0.0985,0 0,0 -0.0174,-0.07534 -0.0116,-0.07534 -0.029,-0.150675 z m 0.0753,0 v 4.056612 h -1.1938 v -4.056612 z m -1.17642,3.633565 v 0.423047 h -0.46361 v -0.05795 q 0.0116,0 0.0406,0 0.029,0 0.0348,0 0.15067,0 0.25498,-0.104313 0.11011,-0.110108 0.11591,-0.260783 z m 0,-3.210518 h -0.0174 q -0.006,-0.150674 -0.11591,-0.254987 -0.10431,-0.110108 -0.25498,-0.110108 -0.006,0 -0.0348,0 -0.029,0 -0.0406,0 v -0.05795 h 0.46361 z m 1.15904,3.210518 h 0.0174 q 0,0.150675 0.11011,0.260783 0.11011,0.104313 0.26078,0.104313 0.0116,0 0.0348,0 0.029,0 0.0348,0 v 0.05795 h -0.45781 z m 5.15189,-3.766853 0.34192,0.150674 -2.09206,4.120358 -0.34191,-0.162264 z"
         id="path41"
         style="font-weight:900;font-size:5.79516px;line-height:0.8;font-family:Cinzel;-inkscape-font-specification:'Cinzel Heavy';text-align:center;text-anchor:middle;fill:#141220;stroke:#141220;stroke-width:0" />
      <path
         d="m 93.995792,69.183957 0.04636,0.735986 -1.692187,2.352834 q 0,0 -0.05795,0.09272 -0.05795,0.08693 -0.110108,0.220216 -0.05216,0.133289 -0.04636,0.272373 h -0.04636 l -0.318734,-0.544745 z m -3.668336,3.187338 v 0.3593 h -0.55054 v -0.05795 q 0.0058,0 0.04057,0 0.03477,0 0.03477,0 0.139084,0 0.243397,-0.07534 0.104313,-0.08113 0.127493,-0.226011 z m 0.301348,0.08113 q -0.0058,0.04636 0.03477,0.133289 0.04636,0.08693 0.15647,0.08693 h 0.08113 v 0.05795 h -0.3593 l 0.05795,-0.278168 z m 0.04636,-3.26847 h 0.04057 l 0.249192,0.695419 -0.370891,2.851219 h -0.417251 z m 0.04057,0 1.80809,2.265908 -0.434637,1.408224 -1.529923,-1.906608 z m 3.332217,0 0.509974,3.546638 h -1.176418 l -0.231806,-1.593669 0.846093,-1.952969 z m 0.347709,3.187338 h 0.110108 q 0.02898,0.144879 0.127494,0.226011 0.104313,0.07534 0.231806,0.07534 0,0 0.04057,0 0.04057,0 0.04057,0 v 0.05795 h -0.55054 z m -1.054719,0.08113 h 0.02898 l 0.05795,0.278168 h -0.3593 v -0.05795 h 0.08113 q 0.121698,0 0.156469,-0.08113 0.04057,-0.08693 0.03477,-0.139084 z m 3.112002,-3.198928 v 3.477096 h -1.135852 v -3.477096 z m -1.118466,3.117796 v 0.3593 h -0.376686 v -0.05795 q 0,0 0.02898,0 0.02898,0 0.03477,0 0.115903,0 0.202831,-0.08693 0.09272,-0.08693 0.09272,-0.214421 z m 1.106875,0 h 0.01159 q 0.0058,0.127494 0.09272,0.214421 0.08693,0.08693 0.208626,0.08693 0,0 0.02898,0 0.02898,0 0.03477,0 v 0.05795 H 96.44135 Z m 0,-2.758496 v -0.3593 h 0.370891 v 0.05795 q 0,0 -0.02898,0 -0.02318,0 -0.02898,0 -0.121698,0 -0.208626,0.08693 -0.08693,0.08113 -0.09272,0.214421 z m -1.106875,0 h -0.01739 q 0,-0.133289 -0.09272,-0.214421 -0.08693,-0.08693 -0.202831,-0.08693 -0.0058,0 -0.03477,0 -0.02898,0 -0.02898,0 v -0.05795 h 0.376686 z m 3.001898,-0.428842 q 0.08693,0 0.278167,0.01159 0.191241,0.0058 0.399866,0.02318 0.214421,0.01739 0.376686,0.04057 0.162264,0.01739 0.197035,0.03477 l -0.127493,0.788142 h -0.03477 q 0,-0.278168 -0.202831,-0.452022 -0.20283,-0.173855 -0.55054,-0.173855 -0.272372,0 -0.423047,0.104313 -0.150674,0.09852 -0.173854,0.278167 -0.01159,0.127494 0.05216,0.214421 0.06954,0.08113 0.185445,0.139084 0.115903,0.05795 0.237602,0.110108 l 0.747575,0.341915 q 0.289758,0.127493 0.469408,0.38248 0.17965,0.249192 0.144879,0.649058 -0.02898,0.37089 -0.220216,0.625877 -0.19124,0.249192 -0.533155,0.376686 -0.341914,0.121698 -0.822912,0.121698 -0.301349,0 -0.52736,-0.04636 -0.226011,-0.04636 -0.37089,-0.121699 -0.144879,-0.07534 -0.214421,-0.162264 -0.06375,-0.133289 -0.05216,-0.324529 0.01159,-0.19124 0.07534,-0.37089 0.06375,-0.185445 0.150674,-0.295553 h 0.03477 q -0.01159,0.260782 0.104313,0.504178 0.121698,0.237602 0.3593,0.394071 0.243396,0.150674 0.585311,0.15647 0.324529,0.0058 0.463613,-0.139084 0.144879,-0.144879 0.144879,-0.312939 0,-0.162264 -0.139084,-0.295553 -0.133289,-0.133289 -0.440432,-0.266577 l -0.608492,-0.283963 q -0.37089,-0.156469 -0.55054,-0.457818 -0.173855,-0.307143 -0.115904,-0.695419 0.04636,-0.301348 0.185446,-0.498384 0.144879,-0.20283 0.376685,-0.301348 0.231806,-0.09852 0.53895,-0.09852 z m 1.263345,0.05216 -0.01739,0.09852 h -0.753371 v -0.09852 z m 4.13195,2.045691 0.15067,0.927226 q -0.0869,0.156469 -0.25499,0.289758 -0.16806,0.133288 -0.44043,0.220216 -0.26658,0.08113 -0.66644,0.08113 -0.68383,-0.0058 -1.18221,-0.214421 -0.49259,-0.208626 -0.75917,-0.608492 -0.26658,-0.405661 -0.26658,-0.990972 0,-0.567926 0.26078,-0.967792 0.26079,-0.405661 0.75338,-0.620082 0.49838,-0.214421 1.1938,-0.214421 0.41725,0 0.74178,0.06375 0.32453,0.06375 0.52156,0.144879 l -0.0753,0.985177 h -0.0406 q -0.15647,-0.533155 -0.42305,-0.73019 -0.26657,-0.202831 -0.62587,-0.202831 -0.39408,0 -0.64327,0.197036 -0.24919,0.19124 -0.36509,0.53895 -0.11591,0.341914 -0.11591,0.788142 0,0.469407 0.11591,0.817117 0.1217,0.34771 0.34771,0.544745 0.2318,0.19124 0.56213,0.208626 0.39986,0 0.61429,-0.115903 0.22021,-0.121699 0.33611,-0.394071 0.1217,-0.278168 0.22022,-0.747576 z m 1.94137,-2.028306 v 3.477096 h -1.13585 v -3.477096 z m 1.22278,3.210519 0.23181,0.266577 h -1.46618 v -0.266577 z m -0.14488,-1.582079 v 0.272373 h -1.08949 v -0.272373 z m 0.25499,-1.62844 v 0.266578 h -1.34448 v -0.266578 z m 0.29555,2.260113 -0.16226,1.216983 h -1.0779 l 0.16806,-0.266577 q 0.22601,0 0.42884,-0.110108 0.20862,-0.115903 0.36509,-0.324529 0.15647,-0.214421 0.22601,-0.515769 z m -0.55054,-0.370891 v 0.625878 h -0.058 v -0.02318 q 0,-0.254987 -0.16227,-0.417252 -0.15646,-0.168059 -0.41145,-0.173854 v -0.01159 z m 0,-0.869274 v 0.620082 h -0.63167 v -0.01159 q 0.25499,-0.0058 0.41145,-0.173855 0.16227,-0.168059 0.16227,-0.423046 v -0.01159 z m 0.25499,-0.764961 v 0.753371 h -0.058 v -0.02898 q 0,-0.336119 -0.17386,-0.521564 -0.17385,-0.185445 -0.50418,-0.19124 v -0.01159 z m 0,-0.341914 v 0.139084 l -0.57372,-0.05216 q 0.15647,0 0.33032,-0.02898 0.17965,-0.03477 0.2434,-0.05795 z m -2.45136,3.204723 -0.006,0.3593 h -0.37669 v -0.05795 q 0,0 0.029,0 0.029,0 0.0348,0 0.1217,0 0.20863,-0.08693 0.0927,-0.08693 0.0927,-0.214421 z m 0,-2.752701 h -0.0174 q 0,-0.133288 -0.0927,-0.220216 -0.0869,-0.08693 -0.20863,-0.08693 -0.006,0 -0.0348,0 -0.029,0 -0.029,0 v -0.05795 h 0.37669 z m 4.45069,-0.365095 v 3.477096 h -1.13585 v -3.477096 z m 1.21699,3.210519 0.2376,0.266577 h -1.46618 v -0.266577 z m 0.41725,-0.950406 -0.16806,1.216983 h -1.0779 l 0.16806,-0.266577 q 0.22601,0 0.42884,-0.110108 0.20863,-0.115903 0.36509,-0.324529 0.15647,-0.214421 0.22602,-0.515769 z m -2.7527,0.857683 -0.006,0.3593 h -0.37668 v -0.05795 q 0,0 0.029,0 0.029,0 0.0348,0 0.1217,0 0.20863,-0.08693 0.0927,-0.08693 0.0927,-0.214421 z m 1.10687,-2.758496 v -0.3593 h 0.38248 v 0.05795 q -0.006,0 -0.0348,0 -0.029,0 -0.029,0 -0.1275,0 -0.21442,0.08693 -0.0869,0.08113 -0.0927,0.214421 z m -1.10687,0 h -0.0174 q 0,-0.133289 -0.0927,-0.214421 -0.0869,-0.08693 -0.20863,-0.08693 -0.006,0 -0.0348,0 -0.029,0 -0.029,0 v -0.05795 h 0.38248 z m 4.34636,-0.3593 v 3.477096 h -1.13585 v -3.477096 z m 1.21698,3.210519 0.23761,0.266577 h -1.46618 v -0.266577 z m 0.41726,-0.950406 -0.16806,1.216983 h -1.0779 l 0.16806,-0.266577 q 0.22601,0 0.42884,-0.110108 0.20862,-0.115903 0.36509,-0.324529 0.15647,-0.214421 0.22601,-0.515769 z m -2.75271,0.857683 -0.006,0.3593 H 110.732 v -0.05795 q 0,0 0.029,0 0.029,0 0.0348,0 0.1217,0 0.20863,-0.08693 0.0927,-0.08693 0.0927,-0.214421 z m 1.10688,-2.758496 v -0.3593 h 0.38248 v 0.05795 q -0.006,0 -0.0348,0 -0.029,0 -0.029,0 -0.12749,0 -0.21442,0.08693 -0.0869,0.08113 -0.0927,0.214421 z m -1.10688,0 h -0.0174 q 0,-0.133289 -0.0927,-0.214421 -0.0869,-0.08693 -0.20863,-0.08693 -0.006,0 -0.0348,0 -0.029,0 -0.029,0 v -0.05795 h 0.38248 z m 4.68249,-0.567926 1.7965,3.656746 h -1.3155 l -0.97938,-2.236931 z m -1.0721,3.332217 q -0.0637,0.144879 0.0174,0.220216 0.0811,0.07534 0.17965,0.07534 h 0.0406 v 0.05795 h -1.1938 v -0.05795 q 0,0 0.0232,0 0.0232,0 0.0232,0 0.1159,0 0.2434,-0.06375 0.12749,-0.06954 0.20283,-0.231807 z m 1.0721,-3.332217 -0.006,0.88666 -1.21699,2.781677 h -0.4694 l 1.34447,-2.89758 q 0.0232,-0.05795 0.0695,-0.15647 0.0464,-0.104312 0.0927,-0.220216 0.0521,-0.121698 0.0927,-0.226011 0.0406,-0.104313 0.0464,-0.16806 z m 0.38828,2.688955 v 0.260782 h -1.443 v -0.260782 z m -0.0522,0.643262 h 1.29812 q 0.0811,0.162265 0.20862,0.231807 0.1275,0.06375 0.2434,0.06375 0,0 0.0232,0 0.0232,0 0.0232,0 v 0.05795 h -2.03989 v -0.05795 h 0.0464 q 0.0985,0 0.17965,-0.07534 0.0811,-0.07534 0.0174,-0.220216 z m 2.00513,-3.198928 3.52346,2.967122 0.0637,0.654853 -3.52345,-2.955532 z m 0.0348,3.204723 v 0.34771 h -0.42884 v -0.05795 q 0,0 0.0464,0 0.0464,0 0.0464,0 0.13329,0 0.22601,-0.08113 0.0927,-0.08113 0.0927,-0.208626 z m 1.11847,0 q 0.006,0.127494 0.0985,0.208626 0.0927,0.08113 0.22022,0.08113 0,0 0.0464,0 0.0464,0 0.0464,0 v 0.05795 h -0.42304 v -0.34771 z m -1.15324,-3.204723 1.15324,1.222779 v 2.329654 h -1.13586 v -2.938146 q 0,-0.295553 -0.0348,-0.452022 -0.0348,-0.162265 -0.0348,-0.162265 z m 3.56982,0.07534 v 2.914966 q 0,0.208625 0.0174,0.353504 0.0174,0.139084 0.0348,0.208626 0.0174,0.06954 0.0174,0.06954 h -0.0522 l -1.15323,-1.321296 -0.006,-2.225342 z m -0.0116,0.34771 v -0.34771 h 0.42884 v 0.05795 q 0,0 -0.0522,0 -0.0464,0 -0.0464,0 -0.12749,0 -0.22021,0.08113 -0.0927,0.08113 -0.0985,0.208626 z m -1.13006,0 q 0,-0.127494 -0.0927,-0.208626 -0.0869,-0.08113 -0.22022,-0.08113 0,0 -0.0521,0 -0.0464,0 -0.0464,0 v -0.05795 h 0.42885 v 0.34771 z m 3.24528,-0.34771 v 3.477096 h -1.13585 v -3.477096 z m 1.22278,3.210519 0.23181,0.266577 h -1.46618 V 72.46402 Z m -0.14488,-1.582079 v 0.272373 h -1.08949 v -0.272373 z m 0.25499,-1.62844 v 0.266578 h -1.34448 v -0.266578 z m 0.29555,2.260113 -0.16226,1.216983 h -1.0779 l 0.16806,-0.266577 q 0.22601,0 0.42884,-0.110108 0.20863,-0.115903 0.3651,-0.324529 0.15647,-0.214421 0.22601,-0.515769 z m -0.55054,-0.370891 v 0.625878 h -0.058 v -0.02318 q 0,-0.254987 -0.16226,-0.417252 -0.15647,-0.168059 -0.41146,-0.173854 v -0.01159 z m 0,-0.869274 v 0.620082 h -0.63167 v -0.01159 q 0.25499,-0.0058 0.41146,-0.173855 0.16226,-0.168059 0.16226,-0.423046 v -0.01159 z m 0.25499,-0.764961 v 0.753371 h -0.0579 v -0.02898 q 0,-0.336119 -0.17386,-0.521564 -0.17385,-0.185445 -0.50417,-0.19124 v -0.01159 z m 0,-0.341914 v 0.139084 l -0.57372,-0.05216 q 0.15647,0 0.33032,-0.02898 0.17965,-0.03477 0.2434,-0.05795 z m -2.45135,3.204723 -0.006,0.3593 h -0.37668 v -0.05795 q 0,0 0.029,0 0.029,0 0.0348,0 0.1217,0 0.20863,-0.08693 0.0927,-0.08693 0.0927,-0.214421 z m 0,-2.752701 h -0.0174 q 0,-0.133288 -0.0927,-0.220216 -0.0869,-0.08693 -0.20863,-0.08693 -0.006,0 -0.0348,0 -0.029,0 -0.029,0 V 69.2535 h 0.37668 z m 5.19826,-0.434637 q 0.49839,0 0.88666,0.121699 0.39407,0.121698 0.66645,0.353504 0.27816,0.231807 0.41725,0.567926 0.14488,0.336119 0.14488,0.770756 0,0.428842 -0.14488,0.764961 -0.13909,0.330325 -0.41725,0.562131 -0.27238,0.231806 -0.66645,0.353505 -0.38827,0.121698 -0.88666,0.121698 -0.49258,0 -0.88666,-0.121698 -0.38827,-0.121699 -0.66644,-0.353505 -0.27237,-0.231806 -0.41725,-0.562131 -0.13908,-0.336119 -0.13908,-0.764961 0,-0.434637 0.13908,-0.770756 0.14488,-0.336119 0.41725,-0.567926 0.27817,-0.231806 0.66644,-0.353504 0.39408,-0.121699 0.88666,-0.121699 z m 0,3.355398 q 0.30715,0 0.50998,-0.17965 0.20862,-0.185445 0.31294,-0.52736 0.10431,-0.347709 0.10431,-0.834503 0,-0.492588 -0.10431,-0.840298 -0.10432,-0.347709 -0.31294,-0.527359 -0.20283,-0.185446 -0.50998,-0.185446 -0.30134,0 -0.50997,0.185446 -0.20283,0.17965 -0.31294,0.527359 -0.10431,0.34771 -0.10431,0.840298 0,0.486794 0.10431,0.834503 0.11011,0.341915 0.31294,0.52736 0.20863,0.17965 0.50997,0.17965 z m 3.8364,-3.285856 v 2.184775 q 0,0.509975 0.22021,0.799733 0.22602,0.283962 0.62588,0.283962 0.39407,0 0.60849,-0.266577 0.21442,-0.272373 0.22022,-0.753371 v -2.248522 h 0.45782 v 2.184775 q 0,0.637468 -0.37669,1.002563 -0.37668,0.3593 -1.08949,0.3593 -0.94461,0 -1.37345,-0.3593 -0.42884,-0.3593 -0.42884,-0.990972 v -2.196366 z m -1.12426,0 v 0.295553 h -0.0116 q 0,-0.110108 -0.0753,-0.17965 -0.0753,-0.06954 -0.17965,-0.06954 0,0 -0.0406,0 -0.0348,0 -0.0348,0 v -0.04636 z m 1.45458,0 v 0.04636 q 0,0 -0.0406,0 -0.0406,0 -0.0406,0 -0.10431,0 -0.17965,0.06954 -0.0695,0.06954 -0.0695,0.17965 h -0.0116 v -0.295553 z m 1.35607,0 v 0.295553 h -0.0116 q -0.006,-0.110108 -0.0811,-0.17965 -0.0696,-0.06954 -0.17386,-0.06954 0,0 -0.0406,0 -0.0348,0 -0.0348,0 v -0.04636 z m 0.77655,0 v 0.04636 q 0,0 -0.0406,0 -0.0348,0 -0.0348,0 -0.10431,0 -0.17965,0.06954 -0.0753,0.06954 -0.0753,0.17965 h -0.0116 v -0.295553 z m 1.46038,-0.06954 q 0.0869,0 0.27817,0.01159 0.19124,0.0058 0.39987,0.02318 0.21442,0.01739 0.37668,0.04057 0.16227,0.01739 0.19704,0.03477 l -0.1275,0.788142 h -0.0348 q 0,-0.278168 -0.20283,-0.452022 -0.20283,-0.173855 -0.55054,-0.173855 -0.27237,0 -0.42305,0.104313 -0.15067,0.09852 -0.17385,0.278167 -0.0116,0.127494 0.0522,0.214421 0.0695,0.08113 0.18544,0.139084 0.1159,0.05795 0.2376,0.110108 l 0.74758,0.341915 q 0.28976,0.127493 0.46941,0.38248 0.17965,0.249192 0.14488,0.649058 -0.029,0.37089 -0.22022,0.625877 -0.19124,0.249192 -0.53316,0.376686 -0.34191,0.121698 -0.82291,0.121698 -0.30135,0 -0.52736,-0.04636 -0.22601,-0.04636 -0.37089,-0.121699 -0.14488,-0.07534 -0.21442,-0.162264 -0.0637,-0.133289 -0.0522,-0.324529 0.0116,-0.19124 0.0753,-0.37089 0.0637,-0.185445 0.15068,-0.295553 h 0.0348 q -0.0116,0.260782 0.10431,0.504178 0.1217,0.237602 0.3593,0.394071 0.2434,0.150674 0.58531,0.15647 0.32453,0.0058 0.46361,-0.139084 0.14488,-0.144879 0.14488,-0.312939 0,-0.162264 -0.13908,-0.295553 -0.13329,-0.133289 -0.44043,-0.266577 l -0.6085,-0.283963 q -0.37089,-0.156469 -0.55054,-0.457818 -0.17385,-0.307143 -0.1159,-0.695419 0.0464,-0.301348 0.18545,-0.498384 0.14488,-0.20283 0.37668,-0.301348 0.23181,-0.09852 0.53895,-0.09852 z m 1.26335,0.05216 -0.0174,0.09852 h -0.75337 v -0.09852 z"
         id="path42"
         style="font-weight:900;font-size:5.79516px;line-height:0.8;font-family:Cinzel;-inkscape-font-specification:'Cinzel Heavy';text-align:center;text-anchor:middle;fill:#141220;stroke:#141220;stroke-width:0" />
      <rect
         style="opacity:1;fill:#d2a4a4;fill-opacity:1;stroke:#141220;stroke-width:0;stroke-dasharray:none;stroke-opacity:1"
         id="rect41"
         width="49.923134"
         height="6.3499999"
         x="88.456245"
         y="49.779499" />
      <rect
         style="fill:#90b4d6;fill-opacity:1;stroke:#141220;stroke-width:0;stroke-dasharray:none;stroke-opacity:1"
         id="rect41-35"
         width="49.923134"
         height="6.3499999"
         x="88.462067"
         y="56.128956" />
      <rect
         style="fill:#90b4d6;fill-opacity:1;stroke:#141220;stroke-width:0;stroke-dasharray:none;stroke-opacity:1"
         id="rect41-35-5"
         width="49.923134"
         height="6.3499999"
         x="88.461777"
         y="74.438866" />
      <rect
         style="fill:#d2a4a4;fill-opacity:1;stroke:#141220;stroke-width:0;stroke-dasharray:none;stroke-opacity:1"
         id="rect41-3"
         width="49.923134"
         height="6.3499999"
         x="88.45343"
         y="80.768532" />
    </g>
  </g>
</svg>
