<?xml version="1.0" encoding="UTF-8" standalone="no"?>
<!-- Created with Inkscape (http://www.inkscape.org/) -->

<svg
   width="199.99805mm"
   height="199.99739mm"
   viewBox="0 0 199.99805 199.99739"
   version="1.1"
   id="svg1"
   inkscape:export-filename="plowAlertLogoTiffanyBlueBG.png"
   inkscape:export-xdpi="96"
   inkscape:export-ydpi="96"
   inkscape:version="1.3 (0e150ed6c4, 2023-07-21)"
   sodipodi:docname="plowAlertLogoMainFile.svg"
   xmlns:inkscape="http://www.inkscape.org/namespaces/inkscape"
   xmlns:sodipodi="http://sodipodi.sourceforge.net/DTD/sodipodi-0.dtd"
   xmlns="http://www.w3.org/2000/svg"
   xmlns:svg="http://www.w3.org/2000/svg">
  <sodipodi:namedview
     id="namedview1"
     pagecolor="#505050"
     bordercolor="#ffffff"
     borderopacity="1"
     inkscape:showpageshadow="0"
     inkscape:pageopacity="0"
     inkscape:pagecheckerboard="1"
     inkscape:deskcolor="#505050"
     inkscape:document-units="mm"
     inkscape:zoom="0.5"
     inkscape:cx="240"
     inkscape:cy="355"
     inkscape:window-width="1920"
     inkscape:window-height="974"
     inkscape:window-x="2869"
     inkscape:window-y="76"
     inkscape:window-maximized="1"
     inkscape:current-layer="layer1" />
  <defs
     id="defs1" />
  <g
     inkscape:label="Layer 1"
     inkscape:groupmode="layer"
     id="layer1"
     transform="translate(-4.7624993,-48.418749)">
    <g
       id="g1">
      <rect
         style="fill:#98d9c2;fill-opacity:1;stroke:#550000;stroke-width:0"
         id="rect6"
         width="200"
         height="200"
         x="4.7624993"
         y="48.418751"
         ry="0" />
      <rect
         style="fill:#c84c09;fill-opacity:1;stroke:#550000;stroke-width:0"
         id="rect7"
         width="190.18182"
         height="31.544235"
         x="9.862545"
         y="178.46841"
         ry="3.8187902" />
      <rect
         style="fill:#336671;fill-opacity:1;stroke:#550000;stroke-width:0"
         id="rect9-6"
         width="1.3439527"
         height="44.337486"
         x="134.43976"
         y="-66.828621"
         ry="2.2795541"
         transform="rotate(90)" />
      <rect
         style="fill:#336671;fill-opacity:1;stroke:#550000;stroke-width:0"
         id="rect9-6-0"
         width="1.3439527"
         height="44.337486"
         x="-26.300102"
         y="-135.67809"
         ry="2.2795541"
         transform="scale(-1)" />
      <path
         id="path10-5"
         style="fill:#336671;fill-opacity:1;stroke:#550000;stroke-width:0"
         d="m 35.249251,143.00276 a 16.273142,16.273142 0 0 0 -15.75868,7.82645 16.273142,16.273142 0 0 0 -2.249459,7.68517 16.273142,16.273142 0 0 1 1.758807,-4.19207 16.273142,16.273142 0 0 1 22.315684,-5.62151 16.273142,16.273142 0 0 1 7.913954,14.484 16.273142,16.273142 0 0 0 -7.423302,-17.97709 16.273142,16.273142 0 0 0 -6.557004,-2.20495 z m -2.280444,19.66737 12.47417,7.45693 a 16.273142,16.273142 0 0 0 0.0027,-0.003 z" />
      <path
         id="path10-5-3"
         style="fill:#336671;fill-opacity:1;stroke:#550000;stroke-width:0"
         d="m 70.860435,149.65242 a 10.966412,10.966412 0 0 1 10.391633,5.71048 10.966412,10.966412 0 0 1 1.299615,5.23749 10.966412,10.966412 0 0 0 -1.066966,-2.87179 10.966412,10.966412 0 0 0 -14.868245,-4.4093 10.966412,10.966412 0 0 0 -5.733755,9.53093 10.966412,10.966412 0 0 1 5.501105,-11.89661 10.966412,10.966412 0 0 1 4.476613,-1.3012 z m 0.985296,13.30613 -8.60765,4.67193 a 10.966412,10.966412 0 0 1 -0.0016,-0.002 z" />
      <path
         id="rect8-7"
         style="fill:#4a4547;fill-opacity:1;stroke:#550000;stroke-width:0"
         d="m 9.8246718,175.48941 c -1.33947,0 -2.41794,1.03033 -2.41794,2.31001 v 32.08737 c 0,1.27968 1.07847,2.31 2.41794,2.31 H 199.56813 c 1.33946,0 2.41794,-1.03032 2.41794,-2.31 v -32.08737 c 0,-1.27968 -1.07848,-2.31001 -2.41794,-2.31001 z m 46.6276372,7.0495 c 2.80085,0 5.08376,0.93015 6.84868,2.79039 1.87043,1.97937 2.80603,4.68737 2.80603,8.12379 0,3.23482 -0.87322,5.97027 -2.61896,8.20624 -1.83206,2.33676 -4.17734,3.50477 -7.03575,3.50477 -2.94472,0 -5.32799,-1.17733 -7.150457,-3.53242 -1.71696,-2.21764 -2.57556,-4.94377 -2.57556,-8.17859 0,-3.45476 0.93509,-6.16742 2.80552,-8.13762 1.764917,-1.8511 4.071697,-2.77656 6.920497,-2.77656 z m -38.271557,0.3846 c 3.52024,0 6.34013,0.67362 8.45995,2.0207 2.40758,1.53034 3.61115,3.7756 3.61115,6.73551 0,2.60253 -0.87271,4.68716 -2.61845,6.25415 -1.73614,1.55786 -4.04292,2.33669 -6.92051,2.33669 l -0.1726,4.19247 h -7.92768 l -0.41754,-10.24025 c -0.1247,-2.6392 -0.32106,-6.26333 -0.58963,-10.87272 1.49634,-0.28408 3.68813,-0.42655 6.57531,-0.42655 z m 148.943878,0.0277 c 8.06683,0 12.10004,2.76758 12.10004,8.30249 0,1.68616 -0.49411,3.18006 -1.48208,4.48131 -0.87287,1.13631 -1.96633,1.95142 -3.28042,2.44626 0.27816,0.41239 0.96427,1.27874 2.05775,2.59833 0.54674,0.60481 1.38095,1.4018 2.50321,2.39148 -0.45082,0.15578 -1.4434,0.55011 -2.97812,1.1824 -1.07429,0.46736 -2.08638,0.92544 -3.03599,1.37445 -0.27816,-0.32989 -0.8965,-1.18229 -1.8557,-2.55685 -0.44123,-0.69645 -1.08883,-1.86909 -1.94251,-3.51857 h -0.0289 l -0.14366,4.81058 h -8.10028 c -0.10552,-1.99771 -0.25465,-5.29179 -0.44649,-9.88285 -0.0863,-2.7033 -0.28268,-6.44664 -0.58963,-11.23013 2.63779,-0.26575 5.04545,-0.3989 7.22282,-0.3989 z m -135.922968,0.3989 h 9.98544 l -0.82011,17.51194 c 0.93042,0 2.32599,-0.0964 4.18683,-0.2888 0.38367,-0.0366 0.91089,-0.12838 1.58233,-0.275 -0.09592,0.36656 -0.27329,1.05833 -0.53227,2.07551 -0.13429,0.59563 -0.24928,1.29207 -0.3452,2.08933 h -13.02091 c -0.04796,-2.1535 -0.16783,-5.6999 -0.35967,-10.63919 -0.12469,-2.52921 -0.35031,-6.02018 -0.67644,-10.47379 z m 35.552347,0 h 9.81284 c 0.20143,0.89805 0.55616,2.3505 1.06453,4.35738 l 1.52549,5.4983 c 0.27817,-0.76059 0.69039,-2.08503 1.23714,-3.97276 -0.45083,-1.60367 -1.0263,-3.56448 -1.72651,-5.88292 h 8.92038 c 0.15347,0.87973 0.40784,2.30472 0.76275,4.27493 0.25898,1.31043 0.61371,3.17068 1.06453,5.58075 l 1.48208,-5.60839 c 0.26857,-1.06301 0.58044,-2.47867 0.93534,-4.24729 h 5.00693 c -0.84409,2.26347 -2.15829,5.97931 -3.94239,11.14769 -0.77695,2.40091 -1.80803,5.72244 -3.09335,9.96529 h -5.16506 c -0.4796,-1.9244 -1.34307,-5.20965 -2.59003,-9.85569 -0.78654,2.39175 -1.84637,5.677 -3.17965,9.85569 h -5.09323 c -0.61388,-2.09852 -1.66447,-5.52574 -3.15122,-10.28174 -0.87287,-2.61169 -2.1632,-6.22184 -3.87057,-10.83124 z m 47.048811,0 h 8.64702 c 0.26857,1.43873 1.00242,4.78771 2.20141,10.04773 0.66185,2.74915 1.57794,6.43754 2.74815,11.06525 h -7.87032 l -0.53226,-1.82815 c -0.22062,0.0825 -0.77222,0.36226 -1.65468,0.83878 -0.56593,0.34822 -1.19402,0.81095 -1.88464,1.38828 l -0.82011,-1.66326 c -0.16306,-0.32991 -0.39792,-0.79263 -0.70486,-1.38828 l -0.77722,2.65263 h -4.17235 c 0.61388,-2.26346 1.5636,-5.99746 2.84892,-11.20249 0.78654,-3.48225 1.44338,-6.78562 1.97094,-9.91049 z m 14.12885,0 h 9.98544 l -0.82011,17.51194 c 0.93042,0 2.32599,-0.0964 4.18683,-0.2888 0.38368,-0.0366 0.91141,-0.12838 1.58285,-0.275 -0.0959,0.36656 -0.2738,1.05833 -0.53279,2.07551 -0.13428,0.59563 -0.24928,1.29207 -0.34519,2.08933 h -13.02092 c -0.048,-2.1535 -0.16782,-5.6999 -0.35966,-10.63919 -0.1247,-2.52921 -0.35032,-6.02018 -0.67645,-10.47379 z m 15.61094,0 h 15.12207 l -0.61908,8.70093 c -0.35491,-0.0549 -1.12186,-0.15136 -2.30167,-0.28882 -0.80573,-0.0733 -1.68819,-0.11892 -2.64739,-0.13724 l -0.216,2.62547 c 1.05511,0.0276 2.77666,0.004 5.16506,-0.069 -0.10552,0.33906 -0.27313,0.97174 -0.50333,1.89728 -0.13429,0.55898 -0.25416,1.20465 -0.35967,1.93777 -0.27817,-0.0641 -0.97351,-0.14653 -2.08618,-0.24735 -0.51796,-0.0276 -1.28544,-0.0368 -2.30218,-0.0277 l -0.14418,3.06536 c 0.7194,-0.009 2.04335,-0.0687 3.97133,-0.17872 0.3645,-0.0276 0.96384,-0.13735 1.79834,-0.32978 -0.0767,0.28407 -0.2541,0.96701 -0.53226,2.04835 -0.13429,0.55899 -0.29754,1.26424 -0.48938,2.11647 h -12.87725 l -0.41703,-10.77643 c -0.0767,-2.46505 -0.26385,-5.91042 -0.5612,-10.33654 z m 36.1859,0 h 17.89865 l -0.41755,8.64564 c -0.37408,-0.055 -0.97343,-0.12339 -1.79834,-0.20588 -0.50837,-0.0275 -1.33334,-0.0549 -2.47478,-0.0825 -0.0575,0.54066 -0.15843,1.84647 -0.30231,3.91749 -0.10551,2.00686 -0.278,4.95272 -0.5178,8.83817 h -6.96391 c -0.0767,-1.85109 -0.22048,-4.76017 -0.4315,-8.72808 -0.0959,-1.37457 -0.19679,-2.71717 -0.30231,-4.02758 l -2.27324,0.0825 -2.05724,0.20588 z m -158.109208,8.49454 c -0.21102,0 -0.42689,0.014 -0.64751,0.0414 l -0.14366,4.81059 c 2.30207,-0.0733 3.45302,-0.97547 3.45302,-2.70744 0,-1.42955 -0.88734,-2.14462 -2.66185,-2.14462 z m 147.793038,0.15108 -0.0863,4.70098 c 0.79614,0 1.5056,-0.16944 2.12907,-0.50851 0.82491,-0.43986 1.23765,-1.09484 1.23765,-1.9654 0,-0.87057 -0.38399,-1.49392 -1.15135,-1.86965 -0.56592,-0.2749 -1.27538,-0.3941 -2.12907,-0.35742 z m -112.931091,0.0553 c -1.75532,0 -2.63291,1.283 -2.63291,3.84886 0,1.02634 0.22998,1.98395 0.6904,2.87284 0.51796,0.99885 1.15581,1.49786 1.91357,1.49786 0.73858,0 1.39107,-0.50836 1.95699,-1.52552 0.51797,-0.92554 0.7767,-1.88313 0.7767,-2.87281 0,-2.54755 -0.90146,-3.82123 -2.70475,-3.82123 z m 59.839241,3.03771 c -0.22061,0.53151 -0.56559,1.40206 -1.03559,2.61167 -0.25898,0.69645 -0.56597,1.64472 -0.92088,2.84518 0.28776,0 0.93973,-0.055 1.95647,-0.16489 0.61389,-0.0826 1.281,-0.22448 2.0004,-0.42606 -0.16306,-0.48569 -0.45106,-1.27383 -0.86351,-2.36432 -0.24939,-0.60481 -0.62851,-1.43857 -1.13689,-2.50158 z m -17.567401,0.34361 h 8.690431 l -0.64751,4.1925 h -7.338051 z" />
      <path
         id="rect8-7-3-2"
         style="fill:#ffffff;fill-opacity:1;stroke:#550000;stroke-width:0"
         d="m 9.028214,172.57316 c -1.3515319,0 -2.4397134,1.07848 -2.4397134,2.41794 v 33.58658 c 0,1.33947 1.0881815,2.41794 2.4397134,2.41794 H 200.48029 c 1.35152,0 2.43972,-1.07847 2.43972,-2.41794 V 174.9911 c 0,-1.33946 -1.0882,-2.41794 -2.43972,-2.41794 z m 47.047515,7.37888 c 2.826072,0 5.129538,0.97359 6.910353,2.92075 1.887273,2.07186 2.831297,4.90638 2.831297,8.50336 0,3.38596 -0.881082,6.24922 -2.642543,8.58966 -1.848558,2.44594 -4.214957,3.66851 -7.099107,3.66851 -2.971237,0 -5.375968,-1.23232 -7.214846,-3.69745 -1.732422,-2.32125 -2.598752,-5.17476 -2.598752,-8.56072 0,-3.61617 0.94351,-6.45556 2.830783,-8.51783 1.78081,-1.93757 4.108362,-2.90628 6.982815,-2.90628 z m -38.61619,0.40256 c 3.55194,0 6.397223,0.7051 8.536131,2.11512 2.429261,1.60185 3.643668,3.95201 3.643668,7.05021 0,2.72412 -0.880567,4.90615 -2.642027,6.54637 -1.751775,1.63063 -4.079328,2.44585 -6.98283,2.44585 l -0.174153,4.38836 H 11.84126 l -0.4213,-10.71872 c -0.125823,-2.76249 -0.323953,-6.55595 -0.594941,-11.38071 1.509816,-0.29735 3.721342,-0.44648 6.63452,-0.44648 z m 150.285101,0.0289 c 8.13947,0 12.20901,2.89689 12.20901,8.69042 0,1.76492 -0.49857,3.32862 -1.49543,4.69067 -0.88073,1.18941 -1.98403,2.04261 -3.30996,2.56057 0.28066,0.43164 0.97295,1.33849 2.07628,2.71973 0.55166,0.63307 1.39339,1.46728 2.52575,2.50321 -0.45489,0.16306 -1.45639,0.5758 -3.00493,1.23765 -1.08398,0.48919 -2.10518,0.96867 -3.06334,1.43867 -0.28065,-0.34531 -0.90456,-1.23753 -1.8724,-2.67632 -0.44522,-0.72899 -1.09865,-1.95643 -1.96002,-3.68298 h -0.0291 l -0.14497,5.03535 h -8.17321 c -0.10646,-2.09104 -0.25696,-5.53902 -0.45051,-10.34459 -0.087,-2.82962 -0.28523,-6.74784 -0.59495,-11.75484 2.66154,-0.27816 5.09088,-0.41754 7.28786,-0.41754 z m -137.146938,0.41754 h 10.075359 l -0.827497,18.33015 c 0.9388,0 2.346937,-0.10087 4.224533,-0.3023 0.387125,-0.0384 0.919093,-0.13437 1.596579,-0.28784 -0.09679,0.38368 -0.275751,1.10777 -0.537062,2.17247 -0.135501,0.62348 -0.251526,1.35245 -0.34831,2.18695 H 31.643142 c -0.04839,-2.25411 -0.169341,-5.96621 -0.362909,-11.13627 -0.125813,-2.64738 -0.353465,-6.30147 -0.682531,-10.96316 z m 35.872493,0 H 76.3714 c 0.203243,0.94002 0.561167,2.46033 1.074115,4.56097 l 1.539227,5.7552 c 0.280676,-0.79613 0.696608,-2.18246 1.24828,-4.1584 -0.454888,-1.67859 -1.035541,-3.731 -1.742056,-6.15777 h 9.000708 c 0.154852,0.92083 0.411511,2.4124 0.769619,4.47467 0.261311,1.37165 0.619236,3.31882 1.074114,5.8415 l 1.495427,-5.87044 c 0.270988,-1.11267 0.585667,-2.59448 0.943762,-4.44573 h 5.052018 c -0.851691,2.36922 -2.177726,6.25868 -3.977891,11.66854 -0.783948,2.51309 -1.824311,5.98982 -3.121206,10.43089 h -5.211571 c -0.483919,-2.01431 -1.355165,-5.45305 -2.613353,-10.31617 -0.793623,2.5035 -1.862997,5.94224 -3.208283,10.31617 h -5.139094 c -0.619407,-2.19656 -1.679458,-5.78391 -3.179596,-10.76213 -0.88073,-2.73371 -2.18268,-6.51254 -3.905425,-11.3373 z m 47.472475,0 h 8.72488 c 0.27099,1.50594 1.01145,5.01141 2.22124,10.51719 0.66782,2.87759 1.59216,6.73831 2.7729,11.58224 h -7.94119 l -0.53705,-1.91358 c -0.2226,0.0863 -0.77917,0.3792 -1.66959,0.87799 -0.57102,0.36449 -1.20476,0.84884 -1.90161,1.45314 l -0.82749,-1.74098 c -0.16453,-0.34531 -0.4015,-0.82967 -0.71122,-1.45314 l -0.78421,2.77657 h -4.20993 c 0.61941,-2.36921 1.57769,-6.27767 2.87458,-11.7259 0.79363,-3.64494 1.45638,-7.10267 1.98869,-10.37353 z m 14.25608,0 h 10.07536 l -0.82751,18.33015 c 0.93882,0 2.34694,-0.10087 4.22455,-0.3023 0.38713,-0.0384 0.91962,-0.13437 1.5971,-0.28784 -0.0967,0.38368 -0.27627,1.10777 -0.53758,2.17247 -0.1355,0.62348 -0.25152,1.35245 -0.3483,2.18695 h -13.13818 c -0.0484,-2.25411 -0.16932,-5.96621 -0.36289,-11.13627 -0.12582,-2.64738 -0.35348,-6.30147 -0.68255,-10.96316 z m 15.75152,0 h 15.25824 l -0.62465,9.10746 c -0.35811,-0.0575 -1.13196,-0.15843 -2.3224,-0.30231 -0.81298,-0.0767 -1.70339,-0.12447 -2.67123,-0.14366 l -0.21794,2.74815 c 1.06461,0.0288 2.80166,0.004 5.21157,-0.0723 -0.10647,0.3549 -0.2756,1.01714 -0.50787,1.98592 -0.1355,0.58511 -0.25645,1.26095 -0.36291,2.0283 -0.28067,-0.0671 -0.98227,-0.15338 -2.10496,-0.2589 -0.52262,-0.0288 -1.29701,-0.0385 -2.32292,-0.0289 l -0.14547,3.20859 c 0.72589,-0.01 2.06175,-0.072 4.0071,-0.18706 0.36778,-0.0288 0.97251,-0.14377 1.81454,-0.3452 -0.0773,0.29735 -0.25641,1.0122 -0.53706,2.14405 -0.13552,0.58511 -0.30022,1.32332 -0.4938,2.21537 H 144.9373 l -0.42078,-11.27993 c -0.0773,-2.58023 -0.26622,-6.18658 -0.56625,-10.8195 z m 36.51175,0 h 18.05982 l -0.4213,9.04958 c -0.37746,-0.0576 -0.98219,-0.12916 -1.81455,-0.21549 -0.51294,-0.0288 -1.34532,-0.0575 -2.49705,-0.0863 -0.0579,0.56593 -0.15987,1.93275 -0.30504,4.10053 -0.10646,2.10063 -0.2805,5.18412 -0.52246,9.25111 h -7.02663 c -0.0773,-1.93757 -0.22246,-4.98256 -0.43537,-9.13588 -0.0967,-1.43879 -0.19856,-2.84411 -0.30504,-4.21576 l -2.29371,0.0863 -2.07577,0.21549 z m -159.532967,8.89145 c -0.21292,0 -0.430734,0.0146 -0.653341,0.0434 l -0.144953,5.03535 c 2.3228,-0.0767 3.484114,-1.02106 3.484114,-2.83393 0,-1.49635 -0.89533,-2.24483 -2.68582,-2.24483 z m 149.123897,0.15813 -0.087,4.92063 c 0.80332,0 1.51916,-0.17736 2.14824,-0.53227 0.83235,-0.46041 1.2488,-1.146 1.2488,-2.05723 0,-0.91124 -0.38745,-1.56372 -1.16172,-1.95699 -0.57101,-0.28776 -1.28686,-0.41251 -2.14824,-0.37414 z m -113.94802,0.0579 c -1.771127,0 -2.656619,1.34295 -2.656619,4.02869 0,1.0743 0.23205,2.07664 0.696615,3.00706 0.522625,1.04552 1.16622,1.56786 1.930803,1.56786 0.745231,0 1.403596,-0.5321 1.974612,-1.5968 0.522635,-0.96879 0.783696,-1.97112 0.783696,-3.00705 0,-2.66657 -0.90958,-3.99976 -2.729107,-3.99976 z m 60.37809,3.17965 c -0.2226,0.55633 -0.57069,1.46755 -1.04492,2.73368 -0.26132,0.72899 -0.57106,1.72157 -0.92916,2.97812 0.29032,0 0.94818,-0.0575 1.97408,-0.1726 0.6194,-0.0863 1.29253,-0.23495 2.0184,-0.44597 -0.16451,-0.50837 -0.45512,-1.33334 -0.87128,-2.47478 -0.25164,-0.63307 -0.63418,-1.50578 -1.14712,-2.61845 z m -17.725594,0.35967 h 8.768674 l -0.65333,4.38836 h -7.404128 z" />
      <path
         style="fill:#4a4547;fill-opacity:1;stroke:#550000;stroke-width:0"
         id="path3-2-7-8"
         sodipodi:type="arc"
         sodipodi:cx="71.748428"
         sodipodi:cy="164.23293"
         sodipodi:rx="13.845721"
         sodipodi:ry="10.838506"
         sodipodi:start="0.45980769"
         sodipodi:end="0.45949675"
         sodipodi:open="true"
         sodipodi:arc-type="arc"
         d="m 84.156103,169.04279 a 13.845721,10.838506 0 0 1 -18.551106,4.9033 13.845721,10.838506 0 0 1 -6.265199,-14.52152 13.845721,10.838506 0 0 1 18.550132,-4.90556 13.845721,10.838506 0 0 1 6.268083,14.52076" />
      <path
         style="fill:#4a4547;fill-opacity:1;stroke:#550000;stroke-width:0"
         id="path3-4-0"
         sodipodi:type="arc"
         sodipodi:cx="34.17485"
         sodipodi:cy="158.01039"
         sodipodi:rx="19.797501"
         sodipodi:ry="17.040886"
         sodipodi:start="0.45980769"
         sodipodi:end="0.45949675"
         sodipodi:open="true"
         sodipodi:arc-type="arc"
         d="m 51.91614,165.57272 a 19.797501,17.040886 0 0 1 -26.525562,7.70924 19.797501,17.040886 0 0 1 -8.958383,-22.83153 19.797501,17.040886 0 0 1 26.524169,-7.71278 19.797501,17.040886 0 0 1 8.962507,22.83032" />
      <rect
         style="fill:#4a4547;fill-opacity:1;stroke:#550000;stroke-width:0"
         id="rect3-61-2"
         width="86.958641"
         height="37.590183"
         x="7.1406379"
         y="128.68619"
         ry="18.795092" />
      <path
         id="rect2-7-9"
         style="fill:#4a4547;fill-opacity:1;stroke:#550000;stroke-width:0"
         d="M 17.389329,85.772917 H 57.950126 L 71.268597,132.35661 17.69202,132.88595 Z"
         sodipodi:nodetypes="ccccc" />
      <rect
         style="fill:#4a4547;fill-opacity:1;stroke:#550000;stroke-width:0"
         id="rect5-4-9"
         width="39.516014"
         height="16.615244"
         x="69.289688"
         y="-158.62872"
         transform="scale(1,-1)" />
      <path
         id="rect4-79-6"
         style="fill:#4a4547;fill-opacity:1;stroke:#550000;stroke-width:0"
         d="m 98.217686,135.63772 c 13.469724,-7.63494 9.237794,-4.4823 19.940384,0.4833 -2.76629,13.01161 5.84694,25.53641 29.4196,36.43308 l -49.867829,0.0174 z"
         sodipodi:nodetypes="ccccc" />
      <path
         id="rect2-1"
         style="fill:#e8bf5e;fill-opacity:1;stroke:#550000;stroke-width:0"
         d="m 22.117168,90.198815 h 33.580573 l 11.026455,44.105825 -44.356427,0.5012 z"
         sodipodi:nodetypes="ccccc" />
      <rect
         style="fill:#e8bf5e;fill-opacity:1;stroke:#550000;stroke-width:0"
         id="rect3-6"
         width="77.435791"
         height="29.821543"
         x="12.093119"
         y="132.55043"
         ry="14.910771" />
      <path
         id="rect4-7"
         style="fill:#e8bf5e;fill-opacity:1;stroke:#550000;stroke-width:0"
         d="m 100.83952,137.59082 c 10.23172,-6.74979 7.00986,-3.95882 15.03353,0.48714 -2.21135,11.56123 4.16394,22.72236 21.83661,32.47888 l -37.60832,-0.12809 z"
         sodipodi:nodetypes="ccccc" />
      <rect
         style="fill:#e8bf5e;fill-opacity:1;stroke:#550000;stroke-width:0"
         id="rect5-0"
         width="39.516014"
         height="7.4424777"
         x="66.291313"
         y="146.40451" />
      <path
         id="rect2-7-3-4"
         style="fill:#4a4547;fill-opacity:1;stroke:#550000;stroke-width:0"
         d="m 49.258996,90.871485 6.120694,-0.01415 10.499321,41.750915 -15.951338,0.10031 z"
         sodipodi:nodetypes="ccccc" />
      <path
         id="rect2-7-3"
         style="fill:#336671;fill-opacity:1;stroke:#550000;stroke-width:0"
         d="m 51.329625,92.755719 3.037324,-0.173357 9.064033,38.545698 -11.614479,0.0922 z"
         sodipodi:nodetypes="ccccc" />
      <path
         style="fill:#e6e6e6;fill-opacity:1;stroke:#550000;stroke-width:0"
         id="path8"
         sodipodi:type="arc"
         sodipodi:cx="164.92384"
         sodipodi:cy="141.31557"
         sodipodi:rx="33.357235"
         sodipodi:ry="33.357235"
         sodipodi:start="0.45980769"
         sodipodi:end="0.45952249"
         sodipodi:arc-type="slice"
         d="m 194.81652,156.1187 a 33.357235,33.357235 0 0 1 -44.69368,15.0906 33.357235,33.357235 0 0 1 -15.09379,-44.6926 33.357235,33.357235 0 0 1 44.69153,-15.09698 33.357235,33.357235 0 0 1 15.10017,44.69045 l -29.89691,-14.7946 z" />
      <path
         style="fill:#ffffff;fill-opacity:1;stroke:#550000;stroke-width:0"
         id="path8-7"
         sodipodi:type="arc"
         sodipodi:cx="164.83066"
         sodipodi:cy="141.0183"
         sodipodi:rx="28.132607"
         sodipodi:ry="28.132607"
         sodipodi:start="0.45980769"
         sodipodi:end="0.45952249"
         sodipodi:arc-type="slice"
         d="m 190.04135,153.50286 a 28.132607,28.132607 0 0 1 -37.69346,12.72702 28.132607,28.132607 0 0 1 -12.72971,-37.69256 28.132607,28.132607 0 0 1 37.69165,-12.73239 28.132607,28.132607 0 0 1 12.73508,37.69074 L 164.83066,141.0183 Z" />
      <path
         style="fill:#e6e6e6;fill-opacity:1;stroke:#550000;stroke-width:0"
         id="path8-7-2"
         sodipodi:type="arc"
         sodipodi:cx="165.00822"
         sodipodi:cy="140.71516"
         sodipodi:rx="21.771591"
         sodipodi:ry="21.771591"
         sodipodi:start="0.45980769"
         sodipodi:end="0.45952249"
         sodipodi:arc-type="slice"
         d="m 184.51857,150.37687 a 21.771591,21.771591 0 0 1 -29.17066,9.84933 21.771591,21.771591 0 0 1 -9.85141,-29.16996 21.771591,21.771591 0 0 1 29.16926,-9.85349 21.771591,21.771591 0 0 1 9.85557,29.16855 l -19.51311,-9.65614 z" />
      <path
         style="fill:#ffffff;fill-opacity:1;stroke:#550000;stroke-width:0"
         id="path8-7-2-2"
         sodipodi:type="arc"
         sodipodi:cx="165.13358"
         sodipodi:cy="140.76921"
         sodipodi:rx="18.216906"
         sodipodi:ry="18.216906"
         sodipodi:start="0.45980769"
         sodipodi:end="0.45952249"
         sodipodi:arc-type="slice"
         d="m 181.45843,148.85343 a 18.216906,18.216906 0 0 1 -24.40791,8.24122 18.216906,18.216906 0 0 1 -8.24296,-24.40733 18.216906,18.216906 0 0 1 24.40674,-8.2447 18.216906,18.216906 0 0 1 8.24644,24.40616 l -16.32716,-8.07957 z" />
      <path
         style="fill:#336671;fill-opacity:1;stroke:#4a4547;stroke-width:2.99668;stroke-dasharray:none;stroke-opacity:1"
         id="path3-2-0"
         sodipodi:type="arc"
         sodipodi:cx="71.888763"
         sodipodi:cy="162.01009"
         sodipodi:rx="12.492152"
         sodipodi:ry="12.492152"
         sodipodi:start="0.45980769"
         sodipodi:end="0.45949675"
         sodipodi:open="true"
         sodipodi:arc-type="arc"
         d="m 83.083454,167.5538 a 12.492152,12.492152 0 0 1 -16.737535,5.65141 12.492152,12.492152 0 0 1 -5.652708,-16.7371 12.492152,12.492152 0 0 1 16.736656,-5.65401 12.492152,12.492152 0 0 1 5.65531,16.73622" />
      <path
         style="fill:#336671;fill-opacity:1;stroke:#4a4547;stroke-width:4.12327;stroke-dasharray:none;stroke-opacity:1"
         id="path3-2-0-7"
         sodipodi:type="arc"
         sodipodi:cx="33.717438"
         sodipodi:cy="157.54245"
         sodipodi:rx="17.188505"
         sodipodi:ry="17.188505"
         sodipodi:start="0.45980769"
         sodipodi:end="0.45949675"
         sodipodi:open="true"
         sodipodi:arc-type="arc"
         d="m 49.120708,165.17029 a 17.188505,17.188505 0 0 1 -23.029915,7.77602 17.188505,17.188505 0 0 1 -7.777811,-23.02931 17.188505,17.188505 0 0 1 23.028706,-7.7796 17.188505,17.188505 0 0 1 7.781391,23.0281" />
      <path
         style="fill:#4a4547;fill-opacity:1;stroke:#c84c09;stroke-width:0;stroke-dasharray:none;stroke-opacity:1"
         id="path12"
         sodipodi:type="arc"
         sodipodi:cx="33.469791"
         sodipodi:cy="157.49323"
         sodipodi:rx="8.1359377"
         sodipodi:ry="8.1359377"
         sodipodi:start="0.45980769"
         sodipodi:end="0.45952249"
         sodipodi:arc-type="slice"
         d="m 40.760713,161.10376 a 8.1359377,8.1359377 0 0 1 -10.900934,3.68064 8.1359377,8.1359377 0 0 1 -3.681424,-10.90067 8.1359377,8.1359377 0 0 1 10.900409,-3.6822 8.1359377,8.1359377 0 0 1 3.682979,10.90015 l -7.291952,-3.60845 z" />
      <path
         style="fill:#4a4547;fill-opacity:1;stroke:#c84c09;stroke-width:0;stroke-dasharray:none;stroke-opacity:1"
         id="path12-3"
         sodipodi:type="arc"
         sodipodi:cx="71.736961"
         sodipodi:cy="161.95987"
         sodipodi:rx="5.5231771"
         sodipodi:ry="5.5231771"
         sodipodi:start="0.45980769"
         sodipodi:end="0.45952249"
         sodipodi:arc-type="slice"
         d="m 76.686489,164.41092 a 5.5231771,5.5231771 0 0 1 -7.400227,2.49865 5.5231771,5.5231771 0 0 1 -2.499178,-7.40005 5.5231771,5.5231771 0 0 1 7.399871,-2.4997 5.5231771,5.5231771 0 0 1 2.500233,7.39969 l -4.950227,-2.44964 z" />
    </g>
  </g>
</svg>
