<?xml version="1.0" encoding="UTF-8" standalone="no"?>
<!-- Created with Inkscape (http://www.inkscape.org/) -->

<svg
   width="55.916676mm"
   height="55.916679mm"
   viewBox="0 0 55.916676 55.916679"
   version="1.1"
   id="svg1"
   inkscape:version="1.3 (0e150ed6c4, 2023-07-21)"
   sodipodi:docname="Event type img icons.svg"
   xmlns:inkscape="http://www.inkscape.org/namespaces/inkscape"
   xmlns:sodipodi="http://sodipodi.sourceforge.net/DTD/sodipodi-0.dtd"
   xmlns="http://www.w3.org/2000/svg"
   xmlns:svg="http://www.w3.org/2000/svg">
  <sodipodi:namedview
     id="namedview1"
     pagecolor="#505050"
     bordercolor="#ffffff"
     borderopacity="1"
     inkscape:showpageshadow="0"
     inkscape:pageopacity="0"
     inkscape:pagecheckerboard="1"
     inkscape:deskcolor="#505050"
     inkscape:document-units="mm"
     inkscape:zoom="1"
     inkscape:cx="-519"
     inkscape:cy="442.5"
     inkscape:window-width="2880"
     inkscape:window-height="1514"
     inkscape:window-x="-11"
     inkscape:window-y="-11"
     inkscape:window-maximized="1"
     inkscape:current-layer="layer1" />
  <defs
     id="defs1" />
  <g
     inkscape:label="Layer 1"
     inkscape:groupmode="layer"
     id="layer1"
     transform="translate(-224.89583,-500.85625)">
    <g
       id="g31"
       transform="translate(53.975,363.5375)">
      <rect
         style="fill:#f5f5f5;fill-opacity:1;stroke:#141220;stroke-width:3;stroke-dasharray:none;stroke-opacity:1"
         id="rect1-5-1-3-8-4"
         width="52.916668"
         height="52.916668"
         x="172.42084"
         y="138.81874"
         ry="8.1275444" />
      <path
         style="fill:#ffe680;fill-opacity:1;stroke:#90b4d6;stroke-width:0;stroke-dasharray:none;stroke-opacity:1"
         id="path12-5"
         sodipodi:type="arc"
         sodipodi:cx="194.60858"
         sodipodi:cy="152.27528"
         sodipodi:rx="7.2173862"
         sodipodi:ry="7.2173862"
         sodipodi:start="0.65778456"
         sodipodi:end="0.65751517"
         sodipodi:open="true"
         sodipodi:arc-type="arc"
         d="m 200.32005,156.68774 a 7.2173862,7.2173862 0 0 1 -10.12354,1.29931 7.2173862,7.2173862 0 0 1 -1.29999,-10.12346 7.2173862,7.2173862 0 0 1 10.12337,-1.30067 7.2173862,7.2173862 0 0 1 1.30135,10.12328" />
      <rect
         style="opacity:1;fill:#90b4d6;fill-opacity:1;stroke:#141220;stroke-width:0;stroke-dasharray:none;stroke-opacity:1"
         id="rect30"
         width="46.023811"
         height="15.99608"
         x="177.07944"
         y="150.98056" />
      <rect
         style="fill:#ffe680;fill-opacity:1;stroke:#141220;stroke-width:0;stroke-dasharray:none;stroke-opacity:1"
         id="rect30-8"
         width="46.023811"
         height="24.508615"
         x="175.85988"
         y="166.29727" />
      <text
         xml:space="preserve"
         style="font-weight:bold;font-size:4.93889px;line-height:0.8;font-family:Raleway;-inkscape-font-specification:'Raleway Bold';text-align:center;text-anchor:middle;fill:#141220;fill-opacity:1;stroke:#cbe6ad;stroke-width:0;stroke-dasharray:none;stroke-opacity:1"
         x="199.18239"
         y="144.58038"
         id="text20-8-2-3-9-3"><tspan
           sodipodi:role="line"
           id="tspan20-7-5-3-3-6"
           style="font-style:normal;font-variant:normal;font-weight:900;font-stretch:normal;font-size:4.93889px;font-family:Cinzel;-inkscape-font-specification:'Cinzel Heavy';fill:#141220;fill-opacity:1;stroke:#cbe6ad;stroke-width:0;stroke-opacity:1"
           x="199.18239"
           y="144.58038">Retirement</tspan></text>
      <path
         style="opacity:0.551527;fill:#e1c7c7;fill-opacity:1;stroke:#90b4d6;stroke-width:0;stroke-dasharray:none;stroke-opacity:1"
         id="path12-7-1-6-7-1-2"
         sodipodi:type="arc"
         sodipodi:cx="248.65968"
         sodipodi:cy="-40.554111"
         sodipodi:rx="7.5647144"
         sodipodi:ry="17.074169"
         sodipodi:start="0.65778456"
         sodipodi:end="0.65751517"
         sodipodi:open="true"
         sodipodi:arc-type="arc"
         d="m 254.64601,-30.115559 a 7.5647144,17.074169 0 0 1 -10.61073,3.073771 7.5647144,17.074169 0 0 1 -1.36255,-23.949056 7.5647144,17.074169 0 0 1 10.61055,-3.076996 7.5647144,17.074169 0 0 1 1.36398,23.948641"
         transform="matrix(0.65042251,0.75957261,-0.97547802,0.22009686,0,0)" />
      <rect
         style="fill:#141220;fill-opacity:1;stroke:#141220;stroke-width:0;stroke-dasharray:none;stroke-opacity:1"
         id="rect28-6-9"
         width="0.67826223"
         height="16.557236"
         x="-34.473965"
         y="237.34306"
         transform="matrix(-0.74647266,0.66541609,0.64325303,0.76565367,0,0)" />
      <rect
         style="fill:#141220;fill-opacity:1;stroke:#141220;stroke-width:0;stroke-dasharray:none;stroke-opacity:1"
         id="rect28-6-9-1"
         width="0.67826223"
         height="16.557236"
         x="-34.155746"
         y="237.45528"
         transform="matrix(-0.74647266,0.66541609,0.64325303,0.76565367,0,0)" />
      <rect
         style="fill:#d2a4a4;fill-opacity:1;stroke:#141220;stroke-width:0;stroke-dasharray:none;stroke-opacity:1"
         id="rect28-6"
         width="0.60803819"
         height="14.780005"
         x="-30.715868"
         y="236.52238"
         transform="matrix(-0.75616476,0.65438128,0.65438128,0.75616476,0,0)" />
      <rect
         style="opacity:1;fill:#141220;fill-opacity:1;stroke:#141220;stroke-width:0;stroke-dasharray:none;stroke-opacity:1"
         id="rect27"
         width="4.9578505"
         height="38.44672"
         x="173.61827"
         y="151.44829"
         ry="0" />
      <rect
         style="fill:#141220;fill-opacity:1;stroke:#141220;stroke-width:0;stroke-dasharray:none;stroke-opacity:1"
         id="rect28-8"
         width="0.60803819"
         height="14.780005"
         x="269.70465"
         y="-24.159872"
         transform="rotate(40.872752)" />
      <rect
         style="fill:#141220;fill-opacity:1;stroke:#141220;stroke-width:0;stroke-dasharray:none;stroke-opacity:1"
         id="rect28-8-7"
         width="0.60803819"
         height="14.780005"
         x="269.32999"
         y="-26.766066"
         transform="rotate(40.872752)" />
      <rect
         style="opacity:1;fill:#d2a4a4;fill-opacity:1;stroke:#141220;stroke-width:0;stroke-dasharray:none;stroke-opacity:1"
         id="rect28"
         width="0.60803819"
         height="14.780005"
         x="269.52859"
         y="-25.339008"
         transform="rotate(40.872752)" />
      <rect
         style="fill:#141220;fill-opacity:1;stroke:#141220;stroke-width:0;stroke-dasharray:none;stroke-opacity:1"
         id="rect27-1"
         width="4.9578505"
         height="38.44672"
         x="219.23274"
         y="151.62781"
         ry="0" />
      <rect
         style="fill:#141220;fill-opacity:1;stroke:#141220;stroke-width:0;stroke-dasharray:none;stroke-opacity:1"
         id="rect28-9-5"
         width="0.60803819"
         height="14.780005"
         x="268.51486"
         y="35.8834"
         transform="rotate(27.926388)" />
      <rect
         style="fill:#141220;fill-opacity:1;stroke:#141220;stroke-width:0;stroke-dasharray:none;stroke-opacity:1"
         id="rect28-9-5-8"
         width="0.60803819"
         height="14.780005"
         x="268.05685"
         y="34.666313"
         transform="rotate(27.926388)" />
      <rect
         style="fill:#d2a4a4;fill-opacity:1;stroke:#141220;stroke-width:0;stroke-dasharray:none;stroke-opacity:1"
         id="rect28-9"
         width="0.60803819"
         height="14.780005"
         x="268.27786"
         y="35.882004"
         transform="rotate(27.926388)" />
      <rect
         style="fill:#141220;fill-opacity:1;stroke:#141220;stroke-width:0;stroke-dasharray:none;stroke-opacity:1"
         id="rect28-9-8-6"
         width="0.62371653"
         height="15.20693"
         x="-67.142494"
         y="228.36917"
         transform="matrix(-0.84701819,0.53156391,0.52634341,0.85027208,0,0)" />
      <rect
         style="fill:#141220;fill-opacity:1;stroke:#141220;stroke-width:0;stroke-dasharray:none;stroke-opacity:1"
         id="rect28-9-8-6-4"
         width="0.62371653"
         height="15.20693"
         x="-67.550934"
         y="229.59695"
         transform="matrix(-0.84701819,0.53156391,0.52634341,0.85027208,0,0)" />
      <rect
         style="fill:#d2a4a4;fill-opacity:1;stroke:#141220;stroke-width:0;stroke-dasharray:none;stroke-opacity:1"
         id="rect28-9-8"
         width="0.60803819"
         height="14.780005"
         x="-66.637444"
         y="229.03561"
         transform="matrix(-0.8486516,0.52895222,0.52895222,0.8486516,0,0)" />
      <path
         id="path14-0-1"
         style="fill:#141220;fill-opacity:1;stroke:#90b4d6;stroke-width:0"
         d="m 212.61554,166.86129 c -6.07102,0.55117 -16.82721,5.7425 -23.37251,2.91951 -6.94357,-2.99477 -7.56383,5.39404 -1.894,7.61982 7.67572,3.01329 18.23777,1.8032 23.37222,-2.91845 5.63037,-5.17759 7.8268,-6.32154 1.89714,-7.62015"
         sodipodi:nodetypes="csssc" />
      <rect
         style="fill:#141220;fill-opacity:1;stroke:#bf3e1d;stroke-width:0;stroke-dasharray:none"
         id="rect2-6-5-5-2-8"
         width="1.0637394"
         height="8.1688576"
         x="66.515152"
         y="274.4429"
         transform="matrix(-0.60169136,0.79872868,0.9126574,0.40872542,0,0)" />
      <rect
         style="fill:#141220;fill-opacity:1;stroke:#bf3e1d;stroke-width:0;stroke-dasharray:none"
         id="rect2-6-5-5-2-8-1"
         width="1.0637394"
         height="8.1688576"
         x="254.52028"
         y="15.923162"
         transform="matrix(0.78628731,0.61786105,-0.77743629,0.62896169,0,0)" />
      <path
         id="path14-0"
         style="fill:#cbe6ad;fill-opacity:1;stroke:#90b4d6;stroke-width:0"
         d="m 212.16427,167.25329 c -5.89691,0.51521 -16.34463,5.3678 -22.70222,2.72901 -6.74445,-2.79936 -7.34692,5.04207 -1.83969,7.12262 7.4556,2.81667 17.71475,1.68554 22.70195,-2.72802 5.4689,-4.83975 7.60234,-5.90905 1.84273,-7.12293"
         sodipodi:nodetypes="csssc" />
      <rect
         style="fill:#141220;fill-opacity:1;stroke:#bf3e1d;stroke-width:0;stroke-dasharray:none"
         id="rect2-9-1-1"
         width="3.6673145"
         height="13.58639"
         x="225.51305"
         y="-141.47397"
         transform="rotate(70.896891)" />
      <path
         style="fill:#141220;fill-opacity:1;stroke:#bf3e1d;stroke-width:0;stroke-dasharray:none"
         id="path1-1-9-9"
         sodipodi:type="arc"
         sodipodi:cx="208.62166"
         sodipodi:cy="166.82178"
         sodipodi:rx="3.566247"
         sodipodi:ry="3.566247"
         sodipodi:start="0.65778456"
         sodipodi:end="0.65751517"
         sodipodi:open="true"
         sodipodi:arc-type="arc"
         d="m 211.4438,169.00206 a 3.566247,3.566247 0 0 1 -5.00223,0.64201 3.566247,3.566247 0 0 1 -0.64235,-5.00219 3.566247,3.566247 0 0 1 5.00215,-0.64269 3.566247,3.566247 0 0 1 0.64302,5.00211" />
      <rect
         style="fill:#141220;fill-opacity:1;stroke:#bf3e1d;stroke-width:0;stroke-dasharray:none"
         id="rect2-6-5-5-6"
         width="1.2128128"
         height="8.2054615"
         x="-52.353592"
         y="256.38821"
         transform="matrix(-0.77509406,0.63184586,0.63184586,0.77509406,0,0)" />
      <rect
         style="fill:#141220;fill-opacity:1;stroke:#bf3e1d;stroke-width:0;stroke-dasharray:none"
         id="rect2-6-5-5-7-3"
         width="0.95919031"
         height="5.0617409"
         x="269.19113"
         y="-15.524983"
         transform="matrix(0.80314538,0.5957831,0.60881758,-0.79331025,0,0)" />
      <rect
         style="fill:#141220;fill-opacity:1;stroke:#bf3e1d;stroke-width:0;stroke-dasharray:none"
         id="rect2-6-5-5-7-3-0"
         width="0.95919031"
         height="5.0617409"
         x="63.803379"
         y="245.91606"
         transform="matrix(-0.43966144,0.89816358,0.89086498,0.45426818,0,0)" />
      <rect
         style="fill:#141220;fill-opacity:1;stroke:#bf3e1d;stroke-width:0;stroke-dasharray:none"
         id="rect2-6-5-5-7-3-0-3"
         width="0.95919031"
         height="5.0617409"
         x="237.41397"
         y="-97.227036"
         transform="matrix(0.43966144,0.89816358,-0.89086498,0.45426818,0,0)" />
      <rect
         style="fill:#141220;fill-opacity:1;stroke:#bf3e1d;stroke-width:0;stroke-dasharray:none"
         id="rect2-6-5-5-7-3-0-21"
         width="0.95919031"
         height="5.0617409"
         x="-242.35736"
         y="-83.749207"
         transform="matrix(-0.49064819,-0.87135776,-0.87925298,0.47635512,0,0)" />
      <rect
         style="fill:#141220;fill-opacity:1;stroke:#bf3e1d;stroke-width:0;stroke-dasharray:none"
         id="rect2-6-5-5-7-3-0-21-5"
         width="0.93531609"
         height="2.0484593"
         x="70.900169"
         y="-212.49825"
         transform="matrix(0.99643494,-0.08436475,-0.54508867,-0.8383784,0,0)" />
      <rect
         style="fill:#141220;fill-opacity:1;stroke:#bf3e1d;stroke-width:0;stroke-dasharray:none"
         id="rect2-6-5-5-7-3-0-21-5-9"
         width="0.93531609"
         height="2.0484593"
         x="-59.927898"
         y="-278.68954"
         transform="matrix(0.85730101,-0.51481549,-0.85874846,-0.51239738,0,0)" />
      <rect
         style="fill:#141220;fill-opacity:1;stroke:#bf3e1d;stroke-width:0;stroke-dasharray:none"
         id="rect2-6-5-5-7-3-0-2"
         width="0.95919031"
         height="5.0617409"
         x="9.4509277"
         y="256.79263"
         transform="matrix(-0.62252609,0.78259905,0.77233001,0.6352215,0,0)" />
      <rect
         style="fill:#141220;fill-opacity:1;stroke:#bf3e1d;stroke-width:0;stroke-dasharray:none"
         id="rect2-6-5-5-7-7-6"
         width="0.95919031"
         height="5.0617409"
         x="-179.44353"
         y="194.26875"
         transform="matrix(-0.0485339,-0.99882154,0.99789591,-0.06483636,0,0)" />
      <path
         id="rect29-6"
         style="fill:#141220;fill-opacity:1;stroke:#141220;stroke-width:0"
         d="m 185.42164,169.33961 c 0.71988,6.72094 17.00484,10.43289 27.41277,-2.03881 10.56828,0.86356 -10.09296,16.92991 -23.99055,10.67239 -4.62221,-1.23335 -6.92973,-6.07238 -3.42222,-8.63358 z"
         sodipodi:nodetypes="cccc" />
      <path
         id="rect29-6-4"
         style="fill:#141220;fill-opacity:1;stroke:#141220;stroke-width:0"
         d="m 185.60582,169.47053 c 0.71988,6.72094 17.00484,10.43289 27.41277,-2.03881 10.56828,0.86356 -10.09296,16.92991 -23.99055,10.67239 -4.62221,-1.23335 -6.92973,-6.07238 -3.42222,-8.63358 z"
         sodipodi:nodetypes="cccc" />
      <path
         id="rect29-6-8"
         style="fill:#cbe6ad;fill-opacity:1;stroke:#141220;stroke-width:0"
         d="m 185.40828,169.68244 c 0.71778,6.34471 16.95514,9.84888 27.33267,-1.92468 10.5374,0.81522 -10.06348,15.9822 -23.92045,10.07498 -4.60871,-1.16433 -6.90949,-5.73248 -3.41222,-8.1503 z"
         sodipodi:nodetypes="cccc" />
      <path
         id="rect29-6-8-5"
         style="fill:#cbe6ad;fill-opacity:1;stroke:#141220;stroke-width:0"
         d="m 212.91755,167.42598 c -0.54396,0.70864 -1.13211,1.36327 -1.75004,1.97579 l 2.37194,2.49726 c 3.17146,-2.6431 3.72996,-4.93924 -0.6219,-4.47305 z" />
      <path
         id="rect29-4"
         style="fill:#141220;fill-opacity:1;stroke:#141220;stroke-width:0"
         d="m 175.00251,151.32644 c 9.75617,-3.95259 10.33752,5.03826 14.7415,8.17568 l -0.17502,0.32026 c -4.52867,-3.14863 -7.53108,-8.34288 -15.6771,-6.64329 z"
         sodipodi:nodetypes="ccccc" />
      <path
         id="rect29-4-8"
         style="fill:#141220;fill-opacity:1;stroke:#141220;stroke-width:0"
         d="m 173.79048,150.73084 c 10.46018,-1.17919 8.59878,7.63605 11.99514,11.84357 l -0.2548,0.26129 c -3.51342,-4.25189 -5.00608,-10.0628 -13.30886,-10.61974 z"
         sodipodi:nodetypes="ccccc" />
      <path
         id="rect29-4-8-7"
         style="fill:#141220;fill-opacity:1;stroke:#141220;stroke-width:0"
         d="m 172.07144,151.97042 c 5.12145,-7.84834 9.5661,-1.17924 14.08608,-0.91505 l 0.02,0.33367 c -4.61313,-0.21163 -9.06541,-2.75509 -14.05976,2.55984 z"
         sodipodi:nodetypes="ccccc" />
      <path
         id="rect29-4-8-7-4"
         style="fill:#141220;fill-opacity:1;stroke:#141220;stroke-width:0"
         d="m 171.38771,154.1744 c -0.75907,-7.35796 4.61666,-5.55398 7.16574,-7.67922 l 0.16012,0.19259 c -2.57563,2.20429 -6.10862,2.91059 -6.41529,8.66516 z"
         sodipodi:nodetypes="ccccc" />
      <path
         id="rect29-4-0"
         style="fill:#141220;fill-opacity:1;stroke:#141220;stroke-width:0"
         d="m 222.56781,152.00517 c -9.75617,-3.95259 -10.33752,5.03826 -14.7415,8.17568 l 0.17502,0.32026 c 4.52867,-3.14863 7.53108,-8.34288 15.6771,-6.64329 z"
         sodipodi:nodetypes="ccccc" />
      <path
         id="rect29-4-8-1"
         style="fill:#141220;fill-opacity:1;stroke:#141220;stroke-width:0"
         d="m 223.77984,151.40957 c -10.46018,-1.17919 -8.59878,7.63605 -11.99514,11.84357 l 0.2548,0.26129 c 3.51342,-4.25189 5.00608,-10.0628 13.30886,-10.61974 z"
         sodipodi:nodetypes="ccccc" />
      <path
         id="rect29-4-8-7-3"
         style="fill:#141220;fill-opacity:1;stroke:#141220;stroke-width:0"
         d="m 225.49888,152.64915 c -5.12145,-7.84834 -9.5661,-1.17924 -14.08608,-0.91505 l -0.02,0.33367 c 4.61313,-0.21163 9.06541,-2.75509 14.05976,2.55984 z"
         sodipodi:nodetypes="ccccc" />
      <path
         id="rect29-4-8-7-4-2"
         style="fill:#141220;fill-opacity:1;stroke:#141220;stroke-width:0"
         d="m 226.18261,154.85313 c 0.75907,-7.35796 -4.61666,-5.55398 -7.16574,-7.67922 l -0.16012,0.19259 c 2.57563,2.20429 6.10862,2.91059 6.41529,8.66516 z"
         sodipodi:nodetypes="ccccc" />
      <rect
         style="opacity:1;fill:#141220;fill-opacity:1;stroke:#141220;stroke-width:0;stroke-dasharray:none;stroke-opacity:1"
         id="rect31"
         width="47.239887"
         height="1.917659"
         x="175.34886"
         y="189.09988" />
    </g>
  </g>
</svg>
