<?xml version="1.0" encoding="UTF-8" standalone="no"?>
<!-- Created with Inkscape (http://www.inkscape.org/) -->

<svg
   width="169.75703mm"
   height="141.57385mm"
   viewBox="0 0 169.75703 141.57385"
   version="1.1"
   id="svg1"
   xmlns:inkscape="http://www.inkscape.org/namespaces/inkscape"
   xmlns:sodipodi="http://sodipodi.sourceforge.net/DTD/sodipodi-0.dtd"
   xmlns:xlink="http://www.w3.org/1999/xlink"
   xmlns="http://www.w3.org/2000/svg"
   xmlns:svg="http://www.w3.org/2000/svg">
  <sodipodi:namedview
     id="namedview1"
     pagecolor="#505050"
     bordercolor="#ffffff"
     borderopacity="1"
     inkscape:showpageshadow="0"
     inkscape:pageopacity="0"
     inkscape:pagecheckerboard="1"
     inkscape:deskcolor="#505050"
     inkscape:document-units="mm" />
  <defs
     id="defs1">
    <filter
       inkscape:collect="always"
       style="color-interpolation-filters:sRGB"
       id="filter51"
       x="-0.013538862"
       y="-0.024670923"
       width="1.0270777"
       height="1.0493418">
      <feGaussianBlur
         inkscape:collect="always"
         stdDeviation="1.8328703"
         id="feGaussianBlur51" />
    </filter>
    <filter
       inkscape:collect="always"
       style="color-interpolation-filters:sRGB"
       id="filter52"
       x="-0.013451232"
       y="-0.024306613"
       width="1.0269025"
       height="1.0486132">
      <feGaussianBlur
         inkscape:collect="always"
         stdDeviation="1.8328703"
         id="feGaussianBlur52" />
    </filter>
    <linearGradient
       inkscape:collect="always"
       xlink:href="#linearGradient55"
       id="linearGradient56"
       x1="577.84998"
       y1="-151.87083"
       x2="589.49164"
       y2="-248.17917"
       gradientUnits="userSpaceOnUse" />
    <linearGradient
       id="linearGradient55"
       inkscape:collect="always">
      <stop
         style="stop-color:#ff0000;stop-opacity:1;"
         offset="0"
         id="stop55" />
      <stop
         style="stop-color:#ff0000;stop-opacity:0;"
         offset="1"
         id="stop56" />
    </linearGradient>
    <filter
       inkscape:collect="always"
       style="color-interpolation-filters:sRGB"
       id="filter53"
       x="-0.019167451"
       y="-0.19875173"
       width="1.0383349"
       height="1.3975035">
      <feGaussianBlur
         inkscape:collect="always"
         stdDeviation="2.8484296"
         id="feGaussianBlur53" />
    </filter>
    <filter
       inkscape:collect="always"
       style="color-interpolation-filters:sRGB"
       id="filter54"
       x="-0.038081492"
       y="-1.1878633"
       width="1.076163"
       height="3.3757266">
      <feGaussianBlur
         inkscape:collect="always"
         stdDeviation="5.5000558"
         id="feGaussianBlur54" />
    </filter>
  </defs>
  <g
     inkscape:label="Layer 1"
     inkscape:groupmode="layer"
     id="layer1"
     transform="translate(-19.503224,-104.06072)">
    <g
       id="g60"
       transform="matrix(0.45507746,0,0,0.45507746,-151.60679,267.71393)">
      <path
         id="rect50-7"
         style="fill:#000000;stroke:#afc6e9;stroke-width:0;filter:url(#filter51)"
         d="m 406.24446,-231.59319 34.925,176.154351 252.94167,2.148224 37.04167,-178.302575 z m 162.15238,32.86741 c 6.38689,-0.26713 11.65128,5.30383 11.80341,12.49075 l 2.19677,103.782382 c 0.15213,7.18692 -4.86721,13.187596 -11.25409,13.45472 -6.38691,0.267124 -11.65129,-5.303303 -11.80342,-12.490222 l -2.19676,-103.78291 c -0.15213,-7.18692 4.8672,-13.1876 11.25409,-13.45472 z m -54.18894,0.0724 c 5.85305,0.19006 10.6869,5.32302 11.08459,12.0502 l 6.12573,103.6198 c 0.4242,7.175664 -4.36423,13.368182 -10.7363,13.884259 -6.37204,0.516081 -11.84326,-4.845155 -12.26747,-12.020822 L 502.28873,-184.7403 c -0.4242,-7.17569 4.36423,-13.36821 10.7363,-13.88426 0.39825,-0.0323 0.79266,-0.0415 1.18287,-0.0288 z m -51.95962,0.63933 c 5.85591,0.0389 10.81661,5.04491 11.38277,11.75964 l 8.7204,103.42837 c 0.60389,7.162388 -4.02735,13.476587 -10.38438,14.156983 -6.35708,0.680402 -11.96123,-4.537983 -12.56513,-11.700371 l -8.7204,-103.428372 c -0.60389,-7.16238 4.02787,-13.47658 10.3849,-14.15699 0.39732,-0.0425 0.79144,-0.0618 1.18184,-0.0593 z m 159.40526,0.26066 c 0.3902,-0.0127 0.78513,-0.003 1.18339,0.0288 6.37206,0.51608 11.1605,6.70858 10.73629,13.88425 l -6.12572,103.620335 c -0.42421,7.175681 -5.89592,12.536902 -12.26799,12.020822 -6.37206,-0.516079 -11.15997,-6.708578 -10.73578,-13.88426 l 6.12573,-103.619797 c 0.39769,-6.72721 5.231,-11.86014 11.08408,-12.0502 z m 51.95962,0.63933 c 0.39039,-0.003 0.78504,0.0168 1.18235,0.0593 6.35708,0.68041 10.9888,6.99457 10.3849,14.15699 l -8.72092,103.428369 c -0.60389,7.162417 -6.20753,12.380774 -12.5646,11.700373 -6.35708,-0.680401 -10.9888,-6.994567 -10.3849,-14.156984 l 8.7204,-103.428368 c 0.56615,-6.71477 5.52682,-11.72074 11.38277,-11.75964 z" />
      <path
         id="rect50-7-6"
         style="fill:#000000;stroke:#afc6e9;stroke-width:0;filter:url(#filter52)"
         d="m 395.81667,-233.89166 35.15253,178.794572 254.5895,2.180422 37.28298,-180.974994 z m 163.20875,33.36003 c 6.4285,-0.27113 11.72718,5.38332 11.88031,12.67796 l 2.21108,105.337886 c 0.15312,7.294638 -4.89892,13.385254 -11.32741,13.656381 -6.42852,0.271128 -11.72719,-5.382789 -11.88031,-12.677426 l -2.21108,-105.338431 c -0.15312,-7.29463 4.89891,-13.38525 11.32741,-13.65637 z m -54.54196,0.0735 c 5.89118,0.19291 10.75652,5.4028 11.1568,12.23081 l 6.16564,105.172869 c 0.42696,7.283214 -4.39266,13.568547 -10.80625,14.092359 -6.41355,0.523816 -11.92041,-4.917775 -12.34738,-12.200992 L 492.48664,-186.3365 c -0.42696,-7.28324 4.39266,-13.56858 10.80624,-14.09236 0.40085,-0.0328 0.79783,-0.0421 1.19058,-0.0292 z m -52.29812,0.64892 c 5.89406,0.0395 10.88708,5.12052 11.45692,11.93589 l 8.77721,104.978568 c 0.60783,7.269738 -4.05358,13.678575 -10.45203,14.36917 -6.39849,0.690599 -12.03915,-4.606 -12.64698,-11.875739 l -8.77721,-104.978569 c -0.60783,-7.26973 4.05411,-13.67857 10.45255,-14.36917 0.39991,-0.0431 0.7966,-0.0627 1.18954,-0.0602 z m 160.44373,0.26457 c 0.39274,-0.0129 0.79024,-0.003 1.1911,0.0292 6.41357,0.52381 11.23321,6.80914 10.80623,14.09235 l -6.16562,105.173412 c -0.42698,7.283231 -5.93433,12.724808 -12.34792,12.200992 -6.41357,-0.523814 -11.23267,-6.809127 -10.80572,-14.092359 l 6.16564,-105.172865 c 0.40028,-6.82804 5.26508,-12.03789 11.15629,-12.23081 z m 52.29812,0.64891 c 0.39293,-0.003 0.79015,0.017 1.19005,0.0602 6.3985,0.6906 11.06039,7.0994 10.45256,14.36917 l -8.77774,104.978567 c -0.60782,7.269768 -6.24797,12.566338 -12.64645,11.87574 -6.3985,-0.6906 -11.06039,-7.099404 -10.45256,-14.369172 l 8.77721,-104.978565 c 0.56984,-6.81541 5.56283,-11.89641 11.45693,-11.93589 z" />
      <path
         id="rect50"
         style="opacity:1;fill:url(#linearGradient56);fill-opacity:1;stroke:#afc6e9;stroke-width:0"
         d="m 401.10833,-233.89167 34.925,173.56667 252.94167,2.116667 37.04167,-175.683337 z m 162.15238,32.38459 c 6.38689,-0.2632 11.65128,5.22592 11.80341,12.30726 l 2.19677,102.25784 c 0.15213,7.081345 -4.86721,12.993872 -11.25409,13.257072 -6.38691,0.2632 -11.65129,-5.225398 -11.80342,-12.306742 l -2.19676,-102.25836 c -0.15213,-7.08134 4.8672,-12.99387 11.25409,-13.25707 z m -54.18894,0.0713 c 5.85305,0.18727 10.6869,5.24482 11.08459,11.87318 l 6.12573,102.097645 c 0.4242,7.070254 -4.36423,13.171805 -10.7363,13.680301 -6.37204,0.5085 -11.84326,-4.77398 -12.26747,-11.844238 L 497.1526,-187.72704 c -0.4242,-7.07028 4.36423,-13.17184 10.7363,-13.6803 0.39825,-0.0318 0.79266,-0.0409 1.18287,-0.0284 z m -51.95962,0.62994 c 5.85591,0.0383 10.81661,4.9708 11.38277,11.58689 l 8.7204,101.909024 c 0.60389,7.057173 -4.02735,13.278617 -10.38438,13.949019 -6.35708,0.670406 -11.96123,-4.471321 -12.56513,-11.528495 l -8.7204,-101.909028 c -0.60389,-7.05716 4.02787,-13.27861 10.3849,-13.94902 0.39732,-0.0419 0.79144,-0.0609 1.18184,-0.0584 z m 159.40526,0.25683 c 0.3902,-0.0125 0.78513,-0.003 1.18339,0.0284 6.37206,0.5085 11.1605,6.61004 10.73629,13.6803 l -6.12572,102.098166 c -0.42421,7.070271 -5.89592,12.352737 -12.26799,11.844238 -6.37206,-0.508498 -11.15997,-6.61003 -10.73578,-13.680302 l 6.12573,-102.097642 c 0.39769,-6.62839 5.231,-11.68591 11.08408,-11.87318 z m 51.95962,0.62994 c 0.39039,-0.003 0.78504,0.0165 1.18235,0.0584 6.35708,0.67041 10.9888,6.89182 10.3849,13.94902 l -8.72092,101.909025 c -0.60389,7.057202 -6.20753,12.198902 -12.5646,11.528496 -6.35708,-0.670406 -10.9888,-6.891818 -10.3849,-13.94902 l 8.7204,-101.909021 c 0.56615,-6.61613 5.52682,-11.54856 11.38277,-11.58689 z" />
      <rect
         style="opacity:1;fill:#000000;fill-opacity:1;stroke:#afc6e9;stroke-width:0;stroke-dasharray:none;stroke-opacity:1;filter:url(#filter53)"
         id="rect49"
         width="356.65836"
         height="34.395836"
         x="384.70419"
         y="-248.17917" />
      <rect
         style="fill:#aa0000;fill-opacity:1;stroke:#afc6e9;stroke-width:0;stroke-dasharray:none;stroke-opacity:1"
         id="rect49-7"
         width="346.6286"
         height="21.16667"
         x="389.46667"
         y="-241.56458" />
      <rect
         style="fill:#ff5555;fill-opacity:1;stroke:#afc6e9;stroke-width:0;stroke-dasharray:none;stroke-opacity:1;filter:url(#filter54)"
         id="rect49-7-7"
         width="346.6286"
         height="11.112503"
         x="389.20209"
         y="-242.8875" />
      <path
         style="opacity:1;fill:#800000;fill-opacity:1;stroke:#000000;stroke-width:1.99481;stroke-dasharray:none;stroke-opacity:0.72549"
         id="path60"
         sodipodi:type="arc"
         sodipodi:cx="445.271"
         sodipodi:cy="-231.24159"
         sodipodi:rx="8.980257"
         sodipodi:ry="8.980257"
         sodipodi:start="0.65778456"
         sodipodi:end="0.65751517"
         sodipodi:open="true"
         sodipodi:arc-type="arc"
         d="m 452.37751,-225.75138 a 8.980257,8.980257 0 0 1 -12.59625,1.61667 8.980257,8.980257 0 0 1 -1.61752,-12.59614 8.980257,8.980257 0 0 1 12.59604,-1.61837 8.980257,8.980257 0 0 1 1.61921,12.59593" />
      <path
         style="fill:#800000;fill-opacity:1;stroke:#000000;stroke-width:1.99481;stroke-dasharray:none;stroke-opacity:0.909804"
         id="path60-9"
         sodipodi:type="arc"
         sodipodi:cx="680.18835"
         sodipodi:cy="-231.14618"
         sodipodi:rx="8.980257"
         sodipodi:ry="8.980257"
         sodipodi:start="0.65778456"
         sodipodi:end="0.65751517"
         sodipodi:open="true"
         sodipodi:arc-type="arc"
         d="m 687.29487,-225.65596 a 8.980257,8.980257 0 0 1 -12.59625,1.61666 8.980257,8.980257 0 0 1 -1.61752,-12.59614 8.980257,8.980257 0 0 1 12.59603,-1.61836 8.980257,8.980257 0 0 1 1.61922,12.59592" />
      <path
         style="fill:#800000;fill-opacity:1;stroke:#afc6e9;stroke-width:2.28572;stroke-dasharray:none;stroke-opacity:1"
         id="path60-9-8"
         sodipodi:type="arc"
         sodipodi:cx="542.3667"
         sodipodi:cy="-348.18964"
         sodipodi:rx="10.289878"
         sodipodi:ry="10.289878"
         sodipodi:start="0.65778456"
         sodipodi:end="0.65751517"
         sodipodi:open="true"
         sodipodi:arc-type="arc"
         d="m 550.50958,-341.89876 a 10.289878,10.289878 0 0 1 -14.43321,1.85243 10.289878,10.289878 0 0 1 -1.8534,-14.43308 10.289878,10.289878 0 0 1 14.43296,-1.85438 10.289878,10.289878 0 0 1 1.85534,14.43283" />
      <path
         style="fill:#800000;fill-opacity:1;stroke:#afc6e9;stroke-width:2.28572;stroke-dasharray:none;stroke-opacity:1"
         id="path60-9-8-0"
         sodipodi:type="arc"
         sodipodi:cx="569.87109"
         sodipodi:cy="-346.39975"
         sodipodi:rx="10.289878"
         sodipodi:ry="10.289878"
         sodipodi:start="0.65778456"
         sodipodi:end="0.65751517"
         sodipodi:open="true"
         sodipodi:arc-type="arc"
         d="m 578.01397,-340.10888 a 10.289878,10.289878 0 0 1 -14.4332,1.85243 10.289878,10.289878 0 0 1 -1.8534,-14.43308 10.289878,10.289878 0 0 1 14.43295,-1.85437 10.289878,10.289878 0 0 1 1.85535,14.43283" />
      <rect
         style="opacity:1;fill:#999999;fill-opacity:1;stroke:#000000;stroke-width:3.33248;stroke-dasharray:none;stroke-opacity:0.635294"
         id="rect60"
         width="8.9170885"
         height="162.14148"
         x="188.84206"
         y="-648.76404"
         ry="4.5039301"
         transform="matrix(0.67036557,0.742031,-0.64309436,0.76578694,0,0)" />
      <rect
         style="fill:#999999;fill-opacity:1;stroke:#000000;stroke-width:3.52033;stroke-dasharray:none;stroke-opacity:0.635294"
         id="rect60-2"
         width="9.4431915"
         height="170.85684"
         x="-655.66223"
         y="139.48972"
         ry="4.7460232"
         transform="matrix(-0.71950306,0.69448927,0.69367037,0.72029259,0,0)" />
    </g>
  </g>
</svg>
