<?xml version="1.0" encoding="UTF-8" standalone="no"?>
<!-- Created with Inkscape (http://www.inkscape.org/) -->

<svg
   width="55.916676mm"
   height="55.916679mm"
   viewBox="0 0 55.916676 55.916679"
   version="1.1"
   id="svg1"
   inkscape:version="1.3 (0e150ed6c4, 2023-07-21)"
   sodipodi:docname="Event type img icons.svg"
   xmlns:inkscape="http://www.inkscape.org/namespaces/inkscape"
   xmlns:sodipodi="http://sodipodi.sourceforge.net/DTD/sodipodi-0.dtd"
   xmlns="http://www.w3.org/2000/svg"
   xmlns:svg="http://www.w3.org/2000/svg">
  <sodipodi:namedview
     id="namedview1"
     pagecolor="#505050"
     bordercolor="#ffffff"
     borderopacity="1"
     inkscape:showpageshadow="0"
     inkscape:pageopacity="0"
     inkscape:pagecheckerboard="1"
     inkscape:deskcolor="#505050"
     inkscape:document-units="mm"
     inkscape:zoom="1"
     inkscape:cx="-519"
     inkscape:cy="442.5"
     inkscape:window-width="2880"
     inkscape:window-height="1514"
     inkscape:window-x="-11"
     inkscape:window-y="-11"
     inkscape:window-maximized="1"
     inkscape:current-layer="layer1" />
  <defs
     id="defs1" />
  <g
     inkscape:label="Layer 1"
     inkscape:groupmode="layer"
     id="layer1"
     transform="translate(-223.60663,-322.2907)">
    <g
       id="g36"
       transform="translate(115.62292,248.70833)">
      <rect
         style="fill:#f5f5f5;fill-opacity:1;stroke:#141220;stroke-width:3;stroke-dasharray:none;stroke-opacity:1"
         id="rect1-5-1-3-8-5"
         width="52.916668"
         height="52.916668"
         x="109.48372"
         y="75.082375"
         ry="8.1275444" />
      <text
         xml:space="preserve"
         style="font-weight:bold;font-size:4.93889px;line-height:0.8;font-family:Raleway;-inkscape-font-specification:'Raleway Bold';text-align:center;text-anchor:middle;fill:#141220;fill-opacity:1;stroke:#cbe6ad;stroke-width:0;stroke-dasharray:none;stroke-opacity:1"
         x="135.19046"
         y="82.538857"
         id="text20-8-2-0"><tspan
           sodipodi:role="line"
           id="tspan20-7-5-8"
           style="font-style:normal;font-variant:normal;font-weight:900;font-stretch:normal;font-size:4.93889px;font-family:Cinzel;-inkscape-font-specification:'Cinzel Heavy';fill:#141220;fill-opacity:1;stroke:#cbe6ad;stroke-width:0;stroke-opacity:1"
           x="135.19046"
           y="82.538857">Work Party</tspan></text>
      <path
         id="path13-3-8-5"
         style="fill:#141220;fill-opacity:1;stroke:#90b4d6;stroke-width:0;stroke-dasharray:none;stroke-opacity:1"
         d="m 130.66121,98.121507 a 4.5330797,6.2271903 4.956549 0 1 1.47692,1.935783 4.5330797,6.2271903 4.956549 0 1 -1.56808,8.63114 l -0.001,8.4e-4 a 4.5330797,6.2271903 4.956549 0 1 -0.42857,0.3363 4.5330797,6.6493727 4.956549 0 0 -0.59227,0.76455 4.5330797,6.6493727 4.956549 0 0 0.007,9.36219 l 0.001,0.001 a 4.5330797,6.6493727 4.956549 0 0 0.44153,0.51913 4.5330797,6.2271903 4.956549 0 1 -0.9073,-0.8723 l -4.3e-4,-0.001 a 4.5330797,6.2271903 4.956549 0 1 -0.0593,-8.77228 4.5330797,6.2271903 4.956549 0 1 0.52976,-0.6538 4.5330797,6.2271903 4.956549 0 1 -0.0354,0.0192 4.5330797,6.6493727 4.956549 0 0 0.0661,-0.0507 4.5330797,6.2271903 4.956549 0 1 0.65763,-0.59706 4.5330797,6.6493727 4.956549 0 0 1.42039,-9.009623 4.5330797,6.6493727 4.956549 0 0 -1.00848,-1.6135 z" />
      <path
         id="path13-3-4"
         style="fill:#cbe6ad;fill-opacity:1;stroke:#90b4d6;stroke-width:0;stroke-dasharray:none;stroke-opacity:1"
         d="m 130.78793,98.100867 a 4.5330797,6.2271903 4.956549 0 1 1.47693,1.935783 4.5330797,6.2271903 4.956549 0 1 -1.56808,8.63114 l -10e-4,8.3e-4 a 4.5330797,6.2271903 4.956549 0 1 -0.42857,0.3363 4.5330797,6.6493727 4.956549 0 0 -0.59227,0.76456 4.5330797,6.6493727 4.956549 0 0 0.007,9.3622 l 0.001,10e-4 a 4.5330797,6.6493727 4.956549 0 0 0.44152,0.51913 4.5330797,6.2271903 4.956549 0 1 -0.90729,-0.87231 l -4.3e-4,-0.001 a 4.5330797,6.2271903 4.956549 0 1 -0.0593,-8.77229 4.5330797,6.2271903 4.956549 0 1 0.52976,-0.65379 4.5330797,6.2271903 4.956549 0 1 -0.0354,0.0192 4.5330797,6.6493727 4.956549 0 0 0.0661,-0.0507 4.5330797,6.2271903 4.956549 0 1 0.65762,-0.59706 4.5330797,6.6493727 4.956549 0 0 1.4204,-9.009633 4.5330797,6.6493727 4.956549 0 0 -1.00848,-1.61349 z" />
      <path
         id="path13-3-8-16-5"
         style="fill:#141220;fill-opacity:1;stroke:#90b4d6;stroke-width:0;stroke-dasharray:none;stroke-opacity:1"
         d="m 134.50109,100.3991 a 4.5330797,6.2271903 29.801859 0 1 0.52688,2.37717 4.5330797,6.2271903 29.801859 0 1 -5.0495,7.17344 l -10e-4,3.7e-4 a 4.5330797,6.2271903 29.801859 0 1 -0.5302,0.12509 4.5330797,6.6493727 29.801859 0 0 -0.8587,0.44495 4.5330797,6.6493727 29.801859 0 0 -3.92727,8.49866 l 0.001,10e-4 a 4.5330797,6.6493727 29.801859 0 0 0.18254,0.65661 4.5330797,6.2271903 29.801859 0 1 -0.45681,-1.1728 l 3e-5,-0.001 a 4.5330797,6.2271903 29.801859 0 1 3.63204,-7.98528 4.5330797,6.2271903 29.801859 0 1 0.75543,-0.3707 4.5330797,6.2271903 29.801859 0 1 -0.0402,0.002 4.5330797,6.6493727 29.801859 0 0 0.0814,-0.0183 4.5330797,6.2271903 29.801859 0 1 0.84762,-0.26548 4.5330797,6.6493727 29.801859 0 0 5.07451,-7.57895 4.5330797,6.6493727 29.801859 0 0 -0.2372,-1.88789 z" />
      <path
         id="path13-3-89-2"
         style="fill:#d2a4a4;fill-opacity:1;stroke:#90b4d6;stroke-width:0;stroke-dasharray:none;stroke-opacity:1"
         d="m 134.36383,100.38979 a 4.5330797,6.2271903 29.801859 0 1 0.52688,2.37717 4.5330797,6.2271903 29.801859 0 1 -5.0495,7.17344 l -10e-4,3.6e-4 a 4.5330797,6.2271903 29.801859 0 1 -0.5302,0.1251 4.5330797,6.6493727 29.801859 0 0 -0.8587,0.44495 4.5330797,6.6493727 29.801859 0 0 -3.92727,8.49865 l 0.001,10e-4 a 4.5330797,6.6493727 29.801859 0 0 0.18254,0.65659 4.5330797,6.2271903 29.801859 0 1 -0.4568,-1.17278 l 2e-5,-0.001 a 4.5330797,6.2271903 29.801859 0 1 3.63204,-7.98529 4.5330797,6.2271903 29.801859 0 1 0.75543,-0.37068 4.5330797,6.2271903 29.801859 0 1 -0.0402,0.002 4.5330797,6.6493727 29.801859 0 0 0.0814,-0.0183 4.5330797,6.2271903 29.801859 0 1 0.84762,-0.26548 4.5330797,6.6493727 29.801859 0 0 5.07451,-7.57894 4.5330797,6.6493727 29.801859 0 0 -0.23719,-1.88789 z" />
      <path
         id="path13-3-8-1-1"
         style="fill:#141220;fill-opacity:1;stroke:#90b4d6;stroke-width:0;stroke-dasharray:none;stroke-opacity:1"
         d="m 140.39444,103.94564 a 4.5330797,6.2271903 44.981927 0 0 -2.43213,0.11551 4.5330797,6.2271903 44.981927 0 0 -5.59664,6.75522 l 7e-5,10e-4 a 4.5330797,6.2271903 44.981927 0 0 0.0184,0.54444 4.5330797,6.6493727 44.981927 0 1 -0.20397,0.94538 4.5330797,6.6493727 44.981927 0 1 -7.16996,6.02016 l -0.002,-4.2e-4 a 4.5330797,6.6493727 44.981927 0 1 -0.68148,-0.004 4.5330797,6.2271903 44.981927 0 0 1.25157,0.13294 l 0.001,-3.5e-4 a 4.5330797,6.2271903 44.981927 0 0 6.75206,-5.60054 4.5330797,6.2271903 44.981927 0 0 0.15942,-0.82624 4.5330797,6.2271903 44.981927 0 0 0.008,0.0395 4.5330797,6.6493727 44.981927 0 1 -0.004,-0.0833 4.5330797,6.2271903 44.981927 0 0 0.0337,-0.88758 4.5330797,6.6493727 44.981927 0 1 5.98138,-6.8858 4.5330797,6.6493727 44.981927 0 1 1.88396,-0.26662 z" />
      <path
         id="path13-3-9-3"
         style="fill:#90b4d6;fill-opacity:1;stroke:#90b4d6;stroke-width:0;stroke-dasharray:none;stroke-opacity:1"
         d="m 140.32868,103.83535 a 4.5330797,6.2271903 44.981927 0 0 -2.43212,0.11552 4.5330797,6.2271903 44.981927 0 0 -5.59665,6.75523 l 7e-5,10e-4 a 4.5330797,6.2271903 44.981927 0 0 0.0184,0.54446 4.5330797,6.6493727 44.981927 0 1 -0.20397,0.94537 4.5330797,6.6493727 44.981927 0 1 -7.16996,6.02016 l -0.002,-4.2e-4 a 4.5330797,6.6493727 44.981927 0 1 -0.68148,-0.004 4.5330797,6.2271903 44.981927 0 0 1.25157,0.13294 l 0.001,-3.4e-4 a 4.5330797,6.2271903 44.981927 0 0 6.75206,-5.60054 4.5330797,6.2271903 44.981927 0 0 0.15942,-0.82624 4.5330797,6.2271903 44.981927 0 0 0.008,0.0395 4.5330797,6.6493727 44.981927 0 1 -0.004,-0.0833 4.5330797,6.2271903 44.981927 0 0 0.0337,-0.88759 4.5330797,6.6493727 44.981927 0 1 5.98137,-6.88579 4.5330797,6.6493727 44.981927 0 1 1.88397,-0.26661 z" />
      <path
         id="path12-7-1-7-3"
         style="fill:#141220;fill-opacity:1;stroke:#90b4d6;stroke-width:0;stroke-dasharray:none;stroke-opacity:1"
         d="m 127.81906,84.006617 a 8.1791675,6.5750118 73.13159 0 1 3.64889,1.74483 8.1791675,6.5750118 73.13159 0 1 2.13948,11.33019 8.1791675,6.5750118 73.13159 0 1 -1.81959,2.00895 l 0.90594,0.948543 -1.00387,0.54468 -0.4814,-1.146793 a 8.1791675,6.5750118 73.13159 0 1 -6.86742,-1.15747 l -10e-4,-10e-4 a 8.1791675,6.5750118 73.13159 0 1 -2.13834,-11.33054 8.1791675,6.5750118 73.13159 0 1 5.61775,-2.94142 z" />
      <path
         id="path12-7-1-7-9-2"
         style="fill:#141220;fill-opacity:1;stroke:#90b4d6;stroke-width:0;stroke-dasharray:none;stroke-opacity:1"
         d="m 133.50059,84.037257 a 8.3065494,6.8008058 87.18356 0 0 -2.9942,2.84958 8.3065494,6.8008058 87.18356 0 0 1.6739,11.60143 8.3065494,6.8008058 87.18356 0 0 2.45106,1.35291 l -0.57193,1.203983 1.16482,0.20273 0.09,-1.259053 a 8.3065494,6.8008058 87.18356 0 0 6.34278,-3.31434 l 0.001,-0.002 a 8.3065494,6.8008058 87.18356 0 0 -1.67513,-11.60141 8.3065494,6.8008058 87.18356 0 0 -6.48234,-1.035 z" />
      <path
         id="path12-7-1-7-9-9-9"
         style="fill:#cbe6ad;fill-opacity:1;stroke:#90b4d6;stroke-width:0;stroke-dasharray:none;stroke-opacity:1"
         d="m 133.55866,84.123767 a 8.1791675,6.5750118 88.294511 0 0 -2.90305,2.81623 8.1791675,6.5750118 88.294511 0 0 1.58093,11.42151 8.1791675,6.5750118 88.294511 0 0 2.36471,1.32473 l -0.55661,1.187693 1.12516,0.19608 0.091,-1.240403 a 8.1791675,6.5750118 88.294511 0 0 6.14103,-3.28465 l 0.001,-0.002 a 8.1791675,6.5750118 88.294511 0 0 -1.58212,-11.42149 8.1791675,6.5750118 88.294511 0 0 -6.26206,-0.99882 z" />
      <path
         id="path12-7-1-7-9-5-6"
         style="fill:#141220;fill-opacity:1;stroke:#90b4d6;stroke-width:0;stroke-dasharray:none;stroke-opacity:1"
         d="m 151.20687,91.014977 a 6.8008058,8.3065494 42.425189 0 0 -4.13171,-0.11969 6.8008058,8.3065494 42.425189 0 0 -7.05935,9.357393 6.8008058,8.3065494 42.425189 0 0 0.76516,2.69306 l -1.25762,0.44163 0.6762,0.96987 0.95744,-0.82259 a 6.8008058,8.3065494 42.425189 0 0 6.81953,2.17021 l 0.002,-5.2e-4 a 6.8008058,8.3065494 42.425189 0 0 7.05848,-9.358263 6.8008058,8.3065494 42.425189 0 0 -3.8294,-5.33174 z" />
      <path
         id="path12-7-1-7-9-9-2-2"
         style="fill:#d2a4a4;fill-opacity:1;stroke:#90b4d6;stroke-width:0;stroke-dasharray:none;stroke-opacity:1"
         d="m 151.18633,91.117117 a 6.5750118,8.1791675 43.53614 0 0 -4.04384,-0.0785 6.5750118,8.1791675 43.53614 0 0 -6.99705,9.164703 6.5750118,8.1791675 43.53614 0 0 0.72436,2.6119 l -1.23528,0.44104 0.65302,0.93702 0.94489,-0.80875 a 6.5750118,8.1791675 43.53614 0 0 6.65638,2.04787 l 0.002,-5.4e-4 a 6.5750118,8.1791675 43.53614 0 0 6.99621,-9.165533 6.5750118,8.1791675 43.53614 0 0 -3.7,-5.14986 z" />
      <path
         id="path12-7-1-2-2"
         style="fill:#141220;fill-opacity:1;stroke:#90b4d6;stroke-width:0;stroke-dasharray:none;stroke-opacity:1"
         d="m 127.99201,84.205207 a 8.0403795,6.4501262 73.487612 0 1 3.5766,1.71422 8.0403795,6.4501262 73.487612 0 1 2.0915,11.1431 8.0403795,6.4501262 73.487612 0 1 -1.7851,1.97697 l 0.88771,0.93249 -0.98454,0.536283 -0.47136,-1.127713 a 8.0403795,6.4501262 73.487612 0 1 -6.73252,-1.13481 l -0.002,-10e-4 a 8.0403795,6.4501262 73.487612 0 1 -2.09039,-11.14343 8.0403795,6.4501262 73.487612 0 1 5.50952,-2.89621 z" />
      <path
         id="path12-7-1-4"
         style="fill:#90b4d6;fill-opacity:1;stroke:#90b4d6;stroke-width:0;stroke-dasharray:none;stroke-opacity:1"
         d="m 127.79958,84.140117 a 8.0403795,6.4501262 73.487612 0 1 3.57661,1.7142 8.0403795,6.4501262 73.487612 0 1 2.09149,11.14311 8.0403795,6.4501262 73.487612 0 1 -1.7851,1.97698 l 0.88772,0.93248 -0.98454,0.536283 -0.47137,-1.127703 a 8.0403795,6.4501262 73.487612 0 1 -6.73251,-1.13481 l -10e-4,-10e-4 a 8.0403795,6.4501262 73.487612 0 1 -2.09039,-11.14344 8.0403795,6.4501262 73.487612 0 1 5.50951,-2.8962 z" />
      <path
         id="rect16-6-4"
         style="fill:#f5f5f5;fill-opacity:1;stroke:#90b4d6;stroke-width:0"
         d="m 126.97761,84.444217 c -1.10948,0.34926 -1.37308,0.23474 -1.24984,-0.0919 -1.06595,0.4694 -1.84115,0.98506 -2.37941,1.53846 -0.32399,0.57275 0.55279,0.26654 1.24984,0.0919 0.51966,-0.64972 1.44537,-1.09617 2.37941,-1.53846 z"
         sodipodi:nodetypes="ccccc" />
      <path
         id="rect16-6-7-4"
         style="fill:#f5f5f5;fill-opacity:1;stroke:#90b4d6;stroke-width:0"
         d="m 137.9365,85.248627 c -1.07415,-0.49227 -1.16457,-0.93933 -0.80513,-1.36565 -1.14363,-0.24937 -2.12075,-0.13943 -2.96218,0.26334 -0.70639,0.6429 0.16765,0.98149 0.80513,1.36564 0.90865,-0.58174 1.93422,-0.43006 2.96218,-0.26333 z"
         sodipodi:nodetypes="ccccc" />
      <path
         id="rect16-6-2-5"
         style="fill:#f5f5f5;fill-opacity:1;stroke:#90b4d6;stroke-width:0"
         d="m 147.62478,96.584797 c -1.178,0.092 -1.47434,-0.25472 -1.36747,-0.80202 -1.12063,0.33805 -1.92108,0.90911 -2.46059,1.67014 -0.30473,0.90521 0.62363,0.77622 1.36747,0.80201 0.51125,-0.9501 1.48121,-1.31611 2.46059,-1.67013 z"
         sodipodi:nodetypes="ccccc" />
      <path
         id="path13-2-5-3"
         style="fill:#141220;fill-opacity:1;stroke:#90b4d6;stroke-width:0.2;stroke-dasharray:none;stroke-opacity:1"
         d="m 134.06357,116.14961 a 5.5893089,6.491813 0 0 0 -0.4029,-0.6941 l -8.7e-4,-0.002 a 5.5893089,6.491813 0 0 0 -7.83976,-1.1685 5.5893089,6.491813 0 0 0 -1.27778,1.63851 5.234432,6.491813 0 0 1 1.51377,-2.34684 5.234432,6.491813 0 0 1 7.34212,1.1696 l 8.4e-4,0.001 a 5.234432,6.491813 0 0 1 0.66458,1.40243 z" />
      <rect
         style="fill:#141220;fill-opacity:1;stroke:#90b4d6;stroke-width:0.2;stroke-dasharray:none;stroke-opacity:1"
         id="rect1-5-14-2-25"
         width="19.645311"
         height="12.369271"
         x="119.34416"
         y="113.69909"
         ry="1.8998137" />
      <rect
         style="fill:#90b4d6;fill-opacity:1;stroke:#cbe6ad;stroke-width:0"
         id="rect12-9"
         width="0.14730871"
         height="19.281511"
         x="124.88725"
         y="-138.81244"
         ry="0.20388304"
         transform="rotate(90)" />
      <rect
         style="fill:#90b4d6;fill-opacity:1;stroke:#cbe6ad;stroke-width:0"
         id="rect12-5"
         width="0.2558158"
         height="10.556291"
         x="-52.701439"
         y="194.5219"
         ry="0.11162242"
         transform="matrix(0.93729029,-0.34854972,0.86998199,0.4930835,0,0)" />
      <rect
         style="fill:#90b4d6;fill-opacity:1;stroke:#cbe6ad;stroke-width:0"
         id="rect12-5-5"
         width="0.2558158"
         height="10.556291"
         x="-219.01346"
         y="76.894302"
         ry="0.11162242"
         transform="matrix(-0.93729029,-0.34854972,-0.86998199,0.4930835,0,0)" />
      <path
         style="fill:#90b4d6;fill-opacity:1;stroke:#cbe6ad;stroke-width:0"
         id="path15"
         sodipodi:type="arc"
         sodipodi:cx="129.06706"
         sodipodi:cy="119.21133"
         sodipodi:rx="0.52916664"
         sodipodi:ry="0.52916664"
         sodipodi:start="0.65778456"
         sodipodi:end="0.65751517"
         sodipodi:open="true"
         sodipodi:arc-type="arc"
         d="m 129.48582,119.53484 a 0.52916664,0.52916664 0 0 1 -0.74224,0.0953 0.52916664,0.52916664 0 0 1 -0.0953,-0.74223 0.52916664,0.52916664 0 0 1 0.74223,-0.0954 0.52916664,0.52916664 0 0 1 0.0954,0.74222" />
    </g>
  </g>
</svg>
